<svg width="90" height="98" viewBox="0 0 90 98" fill="none" xmlns="http://www.w3.org/2000/svg">
<path d="M50.9595 3.08252H38.472V13.0263H50.9595V3.08252Z" fill="#DC8B00"/>
<path d="M77.8562 18.8638L71.9851 14.1107L67.232 19.9818L73.1031 24.7349L77.8562 18.8638Z" fill="#DC8B00"/>
<path d="M43.4824 14.3367H42.172V21.8908H43.4824V14.3367Z" fill="#212121"/>
<path d="M54.0428 0.77002H35.3887V5.24085H54.0428V0.77002Z" fill="#DC8B00"/>
<path d="M44.7158 95.4284C68.1304 95.4284 87.1116 76.4471 87.1116 53.0326C87.1116 29.618 68.1304 10.6367 44.7158 10.6367C21.3012 10.6367 2.31995 29.618 2.31995 53.0326C2.31995 76.4471 21.3012 95.4284 44.7158 95.4284Z" fill="#212121" stroke="#DC8B00" stroke-width="4" stroke-miterlimit="10"/>
<path d="M47.6765 36.0278C44.1274 26.6372 32.3708 15.5546 32.3708 15.5546C32.3708 15.5546 29.3393 33.5744 30.966 40.0886C32.149 44.7417 35.1066 48.5487 37.3249 49.8177C40.2085 51.4251 44.4232 53.0325 44.4232 53.0325C44.4232 53.0325 50.4863 43.5573 47.6765 36.0278Z" fill="#DC8B00"/>
<path d="M46.4934 41.5269C46.3456 41.3577 46.1977 41.2731 46.0498 41.2731C45.9759 41.2731 45.828 41.1885 45.754 41.1885C45.6062 41.1885 45.5322 41.1885 45.3843 41.1885C45.1625 41.1885 45.0146 41.2731 44.7928 41.3577C45.1625 40.7655 45.6062 40.2579 46.1977 40.0041C45.6062 40.0887 45.0146 40.5963 44.571 41.1039C44.3492 41.4423 44.1273 41.7807 43.9055 42.1191C43.9055 41.9499 43.9055 41.8653 43.8316 41.6961C43.8316 41.3577 43.6098 41.0193 43.4619 40.7655C43.314 40.5117 43.0922 40.2579 42.8704 40.0887C43.0922 40.3425 43.2401 40.5963 43.3879 40.8501C43.5358 41.1039 43.6098 41.4423 43.6098 41.6961C43.6098 42.1191 43.5358 42.5421 43.4619 42.9651C43.4619 43.1343 43.3879 43.3035 43.3879 43.4727C43.2401 43.9803 43.0922 44.4879 43.0182 45.0801C42.6485 44.1495 42.2788 43.2189 41.7613 42.3729C41.1697 41.4423 40.6521 40.4271 40.1346 39.4119C39.6909 38.4813 39.2473 37.5507 38.8036 36.6201C38.6558 36.2817 38.5079 35.9433 38.36 35.6049C38.36 35.4357 38.286 35.3511 38.286 35.1819C38.1382 34.2512 38.1382 33.3206 38.286 32.4746C38.36 31.967 38.6558 31.544 39.0255 31.2056C39.3212 30.8672 39.6909 30.5288 40.1346 30.3596V30.275C39.6909 30.3596 39.2473 30.698 38.8776 31.0364C38.8036 31.121 38.6558 31.2902 38.5818 31.3748C38.5818 31.2056 38.5818 30.9518 38.5818 30.7826C38.5079 30.3596 38.2861 29.9366 38.0642 29.6828C38.0642 29.6828 38.0642 29.6828 38.1382 29.7674C38.36 30.0212 38.5079 30.4442 38.5818 30.7826C38.5818 31.121 38.5818 31.4594 38.4339 31.7132C38.4339 31.7978 38.4339 31.7978 38.36 31.7978V31.8824C38.286 31.967 38.2121 32.1362 38.2121 32.3054C38.0642 32.7284 37.9903 33.1514 37.9903 33.659C37.9903 33.8282 37.9903 33.9128 37.9903 34.082C37.9903 34.1667 37.9903 34.1666 37.9903 34.2512C37.8424 33.9128 37.6945 33.5744 37.5466 33.236C36.7333 31.121 35.9939 28.9214 35.6242 26.6372C35.6242 26.5526 35.6242 26.468 35.5503 26.3834H35.4763C35.6242 27.5678 35.846 28.6676 36.1418 29.7674C35.9939 29.5982 35.92 29.5136 35.6981 29.429C35.4024 29.2598 35.0327 29.2598 34.663 29.3444C34.663 29.3444 34.663 29.3444 34.7369 29.3444C35.0327 29.2598 35.4024 29.3444 35.6242 29.5136C35.846 29.6828 36.0678 29.9366 36.2157 30.1904C36.5115 31.2056 36.8072 32.2208 37.103 33.236C37.3988 33.9974 37.6206 34.8435 37.9163 35.6049V35.6895C38.4339 37.1277 38.9515 38.4813 39.617 39.8349C39.7649 40.1733 39.9127 40.5117 40.0606 40.8501C39.617 40.5117 39.0994 40.2579 38.5818 40.0041C38.5079 39.9195 38.4339 39.9195 38.286 39.9195C37.9903 39.7503 37.6945 39.4965 37.5466 39.1581C37.3248 38.7351 37.2509 38.2275 37.2509 37.7199C37.2509 37.8045 37.2509 37.8045 37.2509 37.8891C37.1769 38.3967 37.2509 38.8197 37.3988 39.3273C37.4727 39.5811 37.6206 39.7503 37.7685 39.9195H37.6945C37.3988 39.9195 37.103 40.0041 36.8072 40.0041C36.2897 40.0887 35.846 40.1733 35.3284 40.3425C35.2545 40.3425 35.2545 40.3425 35.1805 40.3425C35.1066 40.3425 35.1066 40.3425 35.0327 40.3425C35.6242 40.2579 36.1418 40.1733 36.7333 40.1733C37.0291 40.1733 37.3248 40.1733 37.6206 40.1733C37.8424 40.1733 38.0642 40.2579 38.2121 40.3425C38.1382 40.3425 38.1382 40.3425 38.0642 40.4271C37.7685 40.5117 37.4727 40.6809 37.1769 40.9347C37.103 40.9347 37.103 40.9347 37.0291 41.0193C36.6594 41.4423 36.3636 41.9499 36.3636 42.5421C36.3636 42.6267 36.3636 42.7113 36.3636 42.7113C36.3636 42.7959 36.3636 42.8805 36.3636 42.8805C36.4375 42.1191 36.8072 41.4423 37.3248 41.0193C37.6206 40.8501 37.8424 40.6809 38.1382 40.5963C38.36 40.5117 38.5818 40.5117 38.8036 40.5963C39.1733 40.8501 39.4691 41.1039 39.7649 41.3577C39.9867 41.5269 40.2085 41.7807 40.4303 42.0345L40.5043 42.1191L40.7261 42.3729C40.8 42.5421 40.874 42.7113 40.9479 42.7959C41.4655 43.7265 41.8352 44.8263 42.2049 45.9261C42.5007 46.8567 42.7225 47.8719 42.9443 48.8871C43.2401 50.1561 43.3879 51.5097 43.5358 52.7787L44.2013 52.6941L44.8668 52.6095C44.571 50.6637 44.2013 48.8871 43.6098 47.1105C43.6098 46.8567 43.6098 46.6029 43.6098 46.3491C43.6098 45.2493 43.6837 44.1495 43.9055 43.1343C44.0534 42.7113 44.1274 42.2883 44.3492 41.8653L44.4231 41.7807C44.6449 41.5269 44.9407 41.3577 45.3104 41.2731C45.3843 41.2731 45.4583 41.2731 45.5322 41.1885C45.828 41.1885 46.1977 41.1885 46.4195 41.4423C46.4934 41.6115 46.4934 41.5269 46.4934 41.5269Z" fill="#212121"/>
<path d="M51.4991 61.3575C58.5137 62.8221 70.847 60.2013 70.847 60.2013C70.847 60.2013 62.6762 51.8763 58.2824 50.4117C55.122 49.4096 51.4991 49.6408 49.572 50.4117C47.1054 51.4138 43.9449 53.2637 43.9449 53.2637C43.9449 53.2637 45.872 60.2013 51.4991 61.3575Z" fill="#DC8B00" stroke="#212121" stroke-miterlimit="10"/>
<path d="M63.2158 57.7347C63.2928 57.7347 63.3699 57.8117 63.447 57.8117C62.8303 57.5034 62.1366 57.1951 61.4428 56.9638C61.5199 56.9638 61.597 56.8867 61.6741 56.8867C61.9824 56.7326 62.1366 56.5013 62.2908 56.2701H62.2137C62.2137 56.2701 62.2137 56.3471 62.1366 56.3471C61.9824 56.5013 61.8283 56.6555 61.597 56.7326C61.4428 56.8097 61.2116 56.8096 60.9803 56.8096C60.2866 56.5784 59.5158 56.3472 58.822 56.193C58.2824 56.0388 57.7428 55.8847 57.1262 55.8076H57.0491C55.9699 55.5763 54.8908 55.3451 53.8116 55.1909C53.7345 55.1909 53.6574 55.1909 53.5803 55.1909C53.8116 55.1138 54.0428 54.9596 54.2741 54.8055C54.2741 54.8055 54.3512 54.8055 54.3512 54.7284C54.4283 54.7284 54.5054 54.6513 54.5824 54.6513C54.8137 54.5742 55.0449 54.4971 55.2762 54.4971C55.5845 54.4971 55.9699 54.6513 56.2012 54.8826C56.2012 54.8826 56.2012 54.8826 56.1241 54.8055C55.8928 54.5742 55.5845 54.4201 55.2762 54.343C55.122 54.343 54.9678 54.343 54.8137 54.343C54.9678 54.1888 55.122 53.9576 55.1991 53.8034C55.4303 53.4951 55.6616 53.1096 55.8158 52.7242C55.8158 52.7242 55.8158 52.6471 55.8928 52.6471C55.6616 52.9555 55.3533 53.3409 55.0449 53.6492C54.8908 53.8034 54.7366 53.9576 54.5824 54.1117C54.5054 54.1888 54.4283 54.2659 54.3512 54.2659C54.4283 54.0346 54.5053 53.8805 54.5053 53.6492C54.5053 53.5721 54.5053 53.5721 54.5053 53.4951C54.5053 53.1096 54.2741 52.7242 53.9658 52.493L53.8887 52.4159C54.2741 52.7242 54.4283 53.1867 54.3512 53.6492C54.2741 53.8805 54.197 54.0346 54.1199 54.1888C54.0428 54.343 53.9658 54.4201 53.8116 54.4971C53.5033 54.5742 53.1178 54.6513 52.8095 54.7284C52.6553 54.7284 52.5012 54.8055 52.347 54.8055C52.2699 54.8055 52.1158 54.8055 52.0387 54.8826H51.8845C51.7304 54.8826 51.4991 54.8826 51.3449 54.8055C50.5741 54.7284 49.8033 54.5742 49.0324 54.343C47.4908 53.8805 46.0262 53.2638 44.7158 52.5701L44.2533 53.2638L43.7908 53.9576C45.1012 54.4971 46.3345 54.9596 47.6449 55.268C47.8762 55.4221 48.0303 55.4992 48.2616 55.6534C48.7241 55.9617 49.1095 56.2701 49.4949 56.7326C49.6491 56.9638 49.8804 57.1951 49.9574 57.4263C49.9574 57.5034 49.9574 57.5034 49.9574 57.5805C49.9574 57.7347 49.8803 57.9659 49.8033 58.1201C49.8033 58.1972 49.7262 58.1972 49.7262 58.2742C49.572 58.5055 49.4178 58.6597 49.1095 58.7367C49.4178 58.7367 49.6491 58.5826 49.8033 58.4284C49.8803 58.3513 49.9574 58.2742 50.0345 58.1972C50.1116 58.1201 50.1887 58.043 50.1887 57.9659C50.3428 58.3513 50.3428 58.7367 50.1887 59.1222C50.497 58.7367 50.5741 58.2742 50.497 57.8117C50.497 57.5805 50.4199 57.4263 50.3429 57.2722C50.3429 57.2722 50.3429 57.2722 50.4199 57.2722C50.6512 57.3492 50.9595 57.4263 51.1908 57.3492C51.422 57.3492 51.6533 57.2722 51.8845 57.1951C51.6533 57.1951 51.422 57.1951 51.2678 57.1951C51.0366 57.1951 50.8824 57.118 50.7283 56.9638C50.5741 56.8097 50.4199 56.7326 50.2658 56.5784C50.1887 56.4242 50.0345 56.3472 49.9574 56.193C49.8804 56.0388 49.8033 55.8847 49.6491 55.7305C50.1887 55.8076 50.7283 55.8846 51.3449 55.8846C52.1928 55.8846 52.9637 55.9617 53.8116 55.9617C54.8137 56.0388 55.8158 56.193 56.8178 56.3471C56.972 56.4242 57.1262 56.5013 57.2803 56.5013C57.7428 56.7326 58.2824 57.0409 58.5908 57.4263C58.822 57.6576 58.8991 57.9659 58.8991 58.2742C58.8991 58.5826 58.9762 58.8909 58.822 59.1992C59.0533 58.8909 59.0533 58.5826 59.1303 58.1972C59.1303 58.1201 59.1303 58.043 59.1303 57.9659C59.2074 58.043 59.2845 58.043 59.3616 58.1201C59.6699 58.2742 59.9783 58.2742 60.2866 58.1972V58.1201H60.2095C59.9783 58.1201 59.6699 58.1201 59.5158 57.9659C59.3616 57.8888 59.2074 57.7347 59.1303 57.6576L59.0533 57.5805C59.0533 57.4263 58.9762 57.3492 58.8991 57.2722C58.7449 57.0409 58.5908 56.8867 58.4366 56.7326L58.3595 56.6555C58.5137 56.6555 58.5908 56.7326 58.7449 56.7326C60.2095 56.8867 61.7512 57.1951 63.2158 57.7347Z" fill="#212121"/>
<path d="M44.3303 16.2637V11.5616" stroke="#DC8B00" stroke-miterlimit="10"/>
<path d="M44.2533 94.7346V89.9554" stroke="#DC8B00" stroke-miterlimit="10"/>
<path d="M81.2533 53.418H86.0324" stroke="#DC8B00" stroke-miterlimit="10"/>
<path d="M3.4762 53.418H8.25536" stroke="#DC8B00" stroke-miterlimit="10"/>
</svg>
