<svg width="111" height="111" viewBox="0 0 111 111" fill="none" xmlns="http://www.w3.org/2000/svg">
<path d="M4.70203 45.6333H25.2833V52.2625H12.6416V57.9666H23.4333V64.5958H12.6416V75.6187H4.70203V45.6333Z" fill="#DC8B00"/>
<path d="M30.8333 45.6333H42.0103C48.4853 45.6333 54.0353 47.8687 54.0353 55.3458C54.0353 62.5916 48.4853 65.5979 42.0103 65.5979H38.7728V75.6958H30.8333V45.6333ZM41.4707 59.2771C44.6312 59.2771 46.2499 57.8896 46.2499 55.2687C46.2499 52.6479 44.5541 51.8771 41.4707 51.8771H38.7728V59.2771H41.4707ZM45.9416 58.1979L55.7312 75.6187H46.7895L40.5457 63.4396L45.9416 58.1979Z" fill="#DC8B00"/>
<path d="M59.7395 45.6333H80.1666V52.2625H67.6791V56.9646H78.3166V63.5937H67.6791V68.9896H80.6291V75.6187H59.7395V45.6333Z" fill="#DC8B00"/>
<path d="M87.4895 45.6333H107.917V52.2625H95.4291V56.9646H106.067V63.5937H95.4291V68.9896H108.379V75.6187H87.4895V45.6333Z" fill="#DC8B00"/>
<path d="M53.4958 60.4333C60.5104 51.8 62.977 34.225 62.977 34.225C62.977 34.225 41.9333 41.3166 36.4604 46.4812C32.5291 50.1812 30.8333 55.1916 31.2187 58.0437C31.7583 61.7437 33.377 66.7541 33.377 66.7541C33.377 66.7541 47.9458 67.3708 53.4958 60.4333Z" fill="#212121" stroke="#DC8B00" stroke-miterlimit="10"/>
<path d="M46.9437 62.2833C46.9437 62.052 46.9437 61.8979 46.8666 61.6666C46.7895 61.5895 46.7895 61.4354 46.7124 61.3583C46.6353 61.2041 46.5582 61.127 46.4812 61.05C46.327 60.8958 46.0957 60.6645 45.8645 60.5875C46.7124 60.5875 47.6374 60.7416 48.3312 61.2041C47.7145 60.6645 46.8666 60.3562 45.9416 60.2791C45.402 60.202 44.8624 60.202 44.3999 60.202C44.5541 60.125 44.7082 60.0479 44.7853 59.8937C45.0937 59.6625 45.3249 59.3541 45.4791 58.9687C45.6332 58.6604 45.6332 58.352 45.7103 58.0437C45.6332 58.352 45.4791 58.6604 45.3249 58.9687C45.1707 59.277 44.9395 59.5083 44.6312 59.6625C44.2457 59.8937 43.7062 60.0479 43.2437 60.202C43.0124 60.2791 42.8582 60.3562 42.627 60.3562C41.9332 60.5104 41.3166 60.6645 40.6999 60.8958C41.3937 60.0479 42.0103 59.1229 42.5499 58.1208C43.0895 57.0416 43.7062 55.9625 44.3999 54.8833C45.0166 53.9583 45.6332 52.9562 46.327 52.0312C46.5582 51.7229 46.7895 51.3374 47.0207 51.0291C47.1749 50.952 47.252 50.7979 47.4062 50.7208C48.2541 50.1041 49.1791 49.5645 50.1812 49.2562C50.7978 49.102 51.4145 49.102 52.1082 49.2562C52.7249 49.4104 53.3416 49.4874 53.8041 49.8729H53.8812H53.9582C53.4957 49.4104 52.8791 49.2562 52.2624 49.102C52.1082 49.0249 51.877 49.0249 51.6457 48.9479C51.877 48.8708 52.1082 48.7166 52.2624 48.5624C52.6478 48.2541 52.8791 47.7916 52.9562 47.4062H52.8791H52.802V47.4833C52.6478 47.8687 52.4166 48.177 52.0312 48.4854C51.7228 48.7166 51.3374 48.7937 50.952 48.8708C50.8749 48.8708 50.8749 48.8708 50.7978 48.8708H50.7207C50.4895 48.8708 50.3353 48.8708 50.1041 48.9479C49.5645 49.0249 49.0249 49.2562 48.5624 49.4104C48.4082 49.4874 48.2541 49.5645 48.177 49.5645C48.0999 49.5645 48.0999 49.6416 48.0228 49.6416C48.2541 49.3333 48.5624 49.0249 48.7937 48.6395C50.4124 46.7124 52.0312 44.7083 54.1124 43.0895C54.1895 43.0124 54.2666 43.0124 54.3437 42.9354L54.2666 42.8583C53.1874 43.6291 52.1853 44.477 51.2603 45.402C51.3374 45.2479 51.3374 45.0166 51.2603 44.8624C51.1832 44.477 50.8749 44.0916 50.5666 43.8604H50.4895C50.4895 43.8604 50.4895 43.8604 50.5666 43.9374C50.8749 44.2458 51.1062 44.5541 51.1062 44.9395C51.1062 45.2479 51.0291 45.6333 50.8749 45.8645C50.8749 45.8645 50.8749 45.8645 50.8749 45.9416C50.027 46.7895 49.2562 47.6374 48.4853 48.4854C47.8687 49.1791 47.252 49.8729 46.6353 50.6437H46.2499C45.1707 51.9541 44.1687 53.2645 43.2437 54.575C43.0124 54.8833 42.7812 55.1916 42.5499 55.577C42.5499 54.9604 42.4728 54.3437 42.3187 53.727C42.3187 53.6499 42.2416 53.4958 42.1645 53.4187C42.0874 53.0333 42.1645 52.6479 42.3187 52.2625C42.627 51.8 43.0895 51.4145 43.6291 51.1833C43.552 51.1833 43.4749 51.2604 43.4749 51.2604C42.9353 51.4916 42.4728 51.7999 42.1645 52.1854C42.0103 52.4166 41.9332 52.6479 41.8562 52.8791C41.8562 52.8791 41.8562 52.802 41.7791 52.802C41.5478 52.4937 41.2395 52.2625 41.0082 52.0312C40.5457 51.5687 40.0832 51.1833 39.5437 50.7979C39.5437 50.7979 39.4666 50.7208 39.3895 50.7208C39.3124 50.6437 39.3124 50.6437 39.2353 50.5666C39.7749 51.0291 40.3145 51.5687 40.6999 52.1083C40.9312 52.4166 41.1624 52.6479 41.3166 52.9562C41.4707 53.1874 41.5478 53.4187 41.6249 53.6499C41.5478 53.5729 41.5478 53.5729 41.4707 53.4958C41.0853 53.2645 40.6999 53.0333 40.2374 52.9562C40.1603 52.9562 40.0832 52.9562 40.0062 52.8791C39.3124 52.7249 38.5416 52.802 37.8478 53.0333C37.7707 53.0333 37.6937 53.1104 37.6166 53.1104C37.6937 53.1875 37.6166 53.1875 37.6166 53.1875C38.4645 52.802 39.4666 52.802 40.2374 53.1104C40.6228 53.2645 41.0082 53.4958 41.3166 53.727C41.5478 53.8812 41.7791 54.1895 41.8562 54.4208C41.8562 54.8833 41.8562 55.3458 41.7791 55.8083C41.702 56.1166 41.702 56.502 41.6249 56.8104V56.9645L41.5478 57.35C41.4707 57.5041 41.3166 57.6583 41.2395 57.8125C40.6228 58.8145 39.852 59.8166 38.927 60.7416C38.1562 61.5895 37.3082 62.3604 36.3832 63.1312C35.227 64.1333 34.0707 65.0583 32.8374 65.9062L33.4541 66.5229L34.0707 67.1395C35.8437 65.8291 37.3853 64.3645 38.8499 62.9C39.0812 62.7458 39.3895 62.5916 39.6207 62.4375C40.6999 61.8208 41.9332 61.2812 43.1666 60.9729C43.7062 60.8187 44.3228 60.7416 44.8624 60.6645C44.9395 60.6645 44.9395 60.6645 45.0166 60.6645C45.402 60.7416 45.8645 60.9729 46.1728 61.2041C46.2499 61.2812 46.327 61.3583 46.4041 61.4354C46.7124 61.7437 46.9437 62.052 46.8666 62.4375C46.8666 62.3604 46.9437 62.3604 46.9437 62.2833Z" fill="#DC8B00"/>
</svg>
