<svg width="78" height="112" viewBox="0 0 78 112" fill="none" xmlns="http://www.w3.org/2000/svg">
<path d="M37.2792 1.44788L9.52919 12.7928L5.21252 32.7114L30.5729 111L77.2854 91.8609L51.925 13.5722L37.2792 1.44788ZM26.4875 17.989C25.4854 18.422 24.4063 17.8158 24.0209 16.6899C23.6354 15.5641 24.175 14.3517 25.1771 13.9186C26.1792 13.4856 27.2584 14.0918 27.6438 15.2177C28.0292 16.3435 27.4896 17.6425 26.4875 17.989Z" fill="#DC8B00" stroke="#212121" stroke-miterlimit="10"/>
<path d="M39.1292 3.4397L10.0688 9.15546L2.74585 27.8616L15.6188 109.961L64.5667 100.261L51.6938 18.2487L39.1292 3.4397ZM25.9479 17.7291C24.8688 17.9023 23.8667 17.1229 23.7125 15.9971C23.5583 14.7846 24.2521 13.6588 25.2542 13.4856C26.3333 13.3124 27.3354 14.0918 27.4896 15.2176C27.7208 16.3435 27.0271 17.4693 25.9479 17.7291Z" fill="#DC8B00" stroke="#212121" stroke-miterlimit="10"/>
<path d="M40.9021 6.5575H11.3792L1.28125 23.6182V106.93H51V23.6182L40.9021 6.5575ZM25.7167 17.989C24.6375 17.989 23.7896 17.0364 23.7896 15.824C23.7896 14.6115 24.6375 13.6589 25.7167 13.6589C26.7958 13.6589 27.6438 14.6115 27.6438 15.824C27.6438 17.0364 26.7958 17.989 25.7167 17.989Z" fill="#DC8B00" stroke="#212121" stroke-miterlimit="10"/>
<path d="M33.5021 77.1386C30.1875 67.1793 17.7 54.8817 17.7 54.8817C17.7 54.8817 12.9979 73.0682 14.3854 79.8232C15.3875 84.673 18.3937 88.8299 20.8604 90.3021C23.9437 92.2074 28.7229 94.1993 28.7229 94.1993C28.7229 94.1993 36.2 85.0194 33.5021 77.1386Z" fill="#212121" stroke="#DC8B00" stroke-miterlimit="10"/>
<path d="M31.7291 82.5945C31.5749 82.4213 31.4208 82.3347 31.1895 82.2481C31.1124 82.2481 30.9583 82.1615 30.8812 82.1615C30.727 82.1615 30.6499 82.1615 30.4958 82.1615C30.2645 82.1615 30.0333 82.1615 29.802 82.2481C30.2645 81.6419 30.8041 81.2088 31.4979 81.0356C30.8041 81.1222 30.1104 81.4687 29.6479 82.0749C29.3395 82.4213 29.1083 82.6811 28.877 83.1141C28.877 82.9409 28.877 82.8543 28.877 82.6811C28.877 82.3347 28.7229 81.9883 28.4916 81.7285C28.3374 81.4687 28.1062 81.2088 27.8749 81.0356C28.1062 81.2954 28.2604 81.5553 28.4145 81.8151C28.5687 82.0749 28.6458 82.4213 28.5687 82.6811C28.5687 83.1141 28.4145 83.5471 28.3374 83.9801C28.2604 84.1533 28.2604 84.3265 28.1833 84.4997C27.952 85.0194 27.7979 85.539 27.6437 86.0586C27.3354 85.106 26.8729 84.0667 26.4104 83.2007C25.7937 82.1615 25.2541 81.1222 24.7916 79.9964C24.3291 79.0438 23.8666 78.0046 23.4812 76.9653C23.327 76.6189 23.1729 76.2725 23.0187 75.8395C23.0187 75.6663 22.9416 75.5797 22.9416 75.4065C22.8645 74.4539 22.8645 73.5012 23.1729 72.6352C23.327 72.1156 23.6354 71.7692 24.0979 71.3362C24.4833 70.9898 24.9458 70.6433 25.4083 70.5567V70.4701C24.8687 70.4701 24.4062 70.8165 23.9437 71.163C23.7895 71.2496 23.6354 71.3362 23.5583 71.5094C23.5583 71.3362 23.6354 71.0764 23.5583 70.9032C23.4812 70.4701 23.25 70.0371 23.0187 69.6907C23.0187 69.6907 23.0187 69.7773 23.0958 69.7773C23.327 70.1237 23.4812 70.4701 23.4812 70.9032C23.4812 71.2496 23.4041 71.596 23.25 71.8558C23.25 71.9424 23.1729 71.9424 23.1729 71.9424C23.1729 71.9424 23.1729 71.9424 23.1729 72.029C23.0958 72.1156 23.0187 72.2888 22.9416 72.462C22.7875 72.895 22.6333 73.328 22.5562 73.761C22.5562 73.9342 22.5562 74.0208 22.4791 74.194C22.4791 74.2806 22.4791 74.2806 22.4791 74.3673C22.325 74.0208 22.2479 73.6744 22.0937 73.2414C21.3229 70.9898 20.6291 68.7381 20.3208 66.3998C20.3208 66.3132 20.3208 66.2266 20.3208 66.14H20.2437C20.3208 67.3524 20.475 68.4783 20.7062 69.6907C20.552 69.5175 20.475 69.4309 20.2437 69.3443C19.8583 69.1711 19.4729 69.0845 19.0875 69.1711V69.2577C19.0875 69.2577 19.0875 69.2577 19.1645 69.2577C19.55 69.2577 19.8583 69.2577 20.1666 69.5175C20.3979 69.6907 20.6291 69.9505 20.7833 70.2969C21.0145 71.3362 21.3229 72.3754 21.6312 73.4146C21.8625 74.2807 22.0937 75.0601 22.402 75.9261V76.0127C22.8645 77.4849 23.4041 78.9572 24.0208 80.4294C24.175 80.7758 24.3291 81.1222 24.4833 81.4687C24.0208 81.1222 23.4812 80.7758 22.9416 80.4294C22.8645 80.3428 22.7104 80.3428 22.6333 80.3428C22.325 80.1696 22.0166 79.9098 21.8625 79.5634C21.6312 79.1304 21.6312 78.5242 21.6312 78.0046C21.6312 78.0912 21.6312 78.0912 21.6312 78.1778C21.5541 78.6108 21.5541 79.1304 21.7083 79.65C21.7854 79.9098 21.9395 80.083 22.0937 80.2562H22.0166C21.7083 80.2562 21.3229 80.2562 21.0145 80.2562C20.475 80.3428 19.9354 80.3428 19.3187 80.516C19.2416 80.516 19.2416 80.516 19.1645 80.516C19.0875 80.516 19.0875 80.516 19.0104 80.516C19.627 80.4294 20.3208 80.4294 20.9375 80.516C21.2458 80.516 21.5541 80.516 21.9395 80.6026C22.1708 80.6026 22.402 80.7758 22.6333 80.8624C22.5562 80.8624 22.4791 80.8624 22.4791 80.8624C22.0937 80.949 21.7854 81.1222 21.477 81.2955C21.4 81.2955 21.4 81.3821 21.3229 81.3821C20.8604 81.7285 20.552 82.3347 20.3979 82.9409C20.3979 83.0275 20.3979 83.1141 20.3979 83.1141C20.3979 83.2007 20.3979 83.2873 20.3979 83.2873C20.552 82.5079 21.0145 81.8151 21.6312 81.4687C21.9395 81.2954 22.2479 81.2088 22.6333 81.1222C22.8645 81.1222 23.1729 81.1222 23.4041 81.2089C23.7895 81.4687 24.0979 81.8151 24.4062 82.0749C24.6375 82.3347 24.8687 82.5945 25.1 82.7677L25.177 82.8543L25.4083 83.1141C25.4854 83.2873 25.5625 83.4605 25.6395 83.6337C26.1791 84.6729 26.5645 85.7988 26.7958 86.9246C27.027 87.9638 27.2583 89.0031 27.4124 90.0423C27.6437 91.3413 27.7208 92.727 27.7979 94.026L28.5687 93.9394L29.3395 93.8528C29.1083 91.861 28.7999 89.9557 28.3374 88.1371C28.3374 87.8772 28.3374 87.6174 28.3374 87.3576C28.4145 86.2318 28.5687 85.1926 28.9541 84.1533C29.1083 83.7203 29.3395 83.2873 29.5708 82.8543L29.6479 82.7677C29.8791 82.5079 30.2645 82.4213 30.6499 82.3347C30.727 82.3347 30.8812 82.3347 30.9583 82.3347C31.3437 82.3347 31.7291 82.4213 31.9604 82.6811C31.8062 82.6811 31.8062 82.5945 31.7291 82.5945Z" fill="#DC8B00"/>
<path d="M40.9792 93.6796C45.2188 89.0896 48.4563 78.0045 48.4563 78.0045C48.4563 78.0045 38.05 79.3902 34.8896 81.9882C32.6542 83.8069 31.2667 86.838 31.1125 88.7432C30.8813 91.2547 31.0354 94.8054 31.0354 94.8054C31.0354 94.8054 37.5875 97.3169 40.9792 93.6796Z" fill="#212121" stroke="#DC8B00" stroke-miterlimit="10"/>
<path d="M43.1375 82.5078C43.2146 82.4212 43.2917 82.4212 43.3688 82.3346C42.8292 82.5944 42.2896 83.0274 41.75 83.3738C41.75 83.2872 41.75 83.2006 41.75 83.114C41.75 82.8542 41.6729 82.5078 41.5188 82.3346V82.4212C41.5958 82.681 41.6729 82.8542 41.5958 83.114C41.5958 83.2872 41.5188 83.4604 41.3646 83.6336C40.9021 84.0666 40.3625 84.4997 39.9 84.9327C39.5146 85.2791 39.2063 85.6255 38.8208 85.9719C38.8208 85.9719 38.8208 85.9719 38.7438 85.9719C38.05 86.6647 37.4333 87.3575 36.8167 88.0504C36.8167 88.137 36.7396 88.137 36.6625 88.2236C36.6625 87.9638 36.7396 87.704 36.6625 87.4441V87.3575C36.6625 87.2709 36.6625 87.1843 36.6625 87.1843C36.6625 86.9245 36.7396 86.7513 36.8167 86.4915C36.9708 86.2317 37.2021 86.0585 37.5104 85.9719H37.4333C37.125 86.0585 36.8938 86.1451 36.6625 86.4049C36.5854 86.4915 36.5083 86.5781 36.4313 86.7513C36.3542 86.5781 36.2771 86.3183 36.2 86.1451C36.0458 85.7987 35.8146 85.3657 35.5833 85.0193V84.9327C35.7375 85.3657 35.8917 85.7987 36.0458 86.1451C36.1229 86.4049 36.2 86.5781 36.2 86.8379C36.2 86.9245 36.2 87.0111 36.2 87.0977C36.0458 86.9245 35.8917 86.7513 35.7375 86.6647C35.6604 86.6647 35.6604 86.5781 35.5833 86.5781C35.275 86.4049 34.8896 86.3183 34.5042 86.4049C34.5042 86.4049 34.4271 86.4049 34.35 86.4049C34.8125 86.3183 35.1979 86.4915 35.5063 86.7513C35.6604 86.9245 35.7375 87.0977 35.8146 87.2709C35.8917 87.4442 35.8917 87.5308 35.9688 87.704C35.8917 88.0504 35.8146 88.3102 35.7375 88.6566C35.7375 88.8298 35.6604 88.9164 35.5833 89.003C35.5833 89.0896 35.5063 89.1762 35.5063 89.2628L35.4292 89.436C35.3521 89.5226 35.275 89.6958 35.1208 89.7824C34.7354 90.302 34.2729 90.8217 33.7333 91.2547C32.7313 92.1207 31.4979 92.9867 30.3417 93.5929L30.7271 94.3724L31.1125 95.1518C32.1146 94.459 33.0396 93.7661 33.8875 92.9001C34.1188 92.8135 34.2729 92.7269 34.5042 92.6403C34.9667 92.4671 35.4292 92.3805 35.8917 92.2939C36.1229 92.2939 36.4313 92.2939 36.6625 92.2939C36.7396 92.2939 36.7396 92.3805 36.8167 92.3805C36.9708 92.4671 37.125 92.6403 37.2021 92.8135C37.2021 92.9001 37.2792 92.9001 37.2792 92.9867C37.3563 93.2465 37.4333 93.5063 37.3563 93.7661C37.4333 93.5063 37.4333 93.3331 37.4333 93.0733C37.4333 92.9867 37.3563 92.9001 37.3563 92.8135C37.3563 92.7269 37.2792 92.6403 37.2021 92.5537C37.5104 92.6403 37.8958 92.9001 38.1271 93.2465C37.8958 92.8135 37.5875 92.4671 37.125 92.2073C36.9708 92.1207 36.8167 92.0341 36.5854 91.9475C36.5854 91.9475 36.5854 91.9475 36.6625 91.9475C36.8938 91.8609 36.9708 91.6011 37.0479 91.4279C37.125 91.2547 37.2021 90.9949 37.2021 90.8217C37.125 90.9949 37.0479 91.1681 36.8938 91.3413C36.7396 91.5145 36.6625 91.6011 36.5083 91.6011C36.3542 91.6877 36.2 91.6877 35.9688 91.6877C35.8146 91.6877 35.6604 91.6877 35.5063 91.6877C35.3521 91.6877 35.1979 91.6877 35.0438 91.6877C35.3521 91.3413 35.6604 90.9083 35.8917 90.4752C36.2771 89.7824 36.6625 89.2628 37.0479 88.6566C37.5875 87.9638 38.1271 87.1843 38.6667 86.4915C38.7438 86.4049 38.8979 86.3183 38.975 86.2317C39.3604 85.9719 39.8229 85.7987 40.2854 85.7121C40.5938 85.7121 40.825 85.7987 41.1333 85.9719C41.3646 86.1451 41.6729 86.3183 41.8271 86.5781C41.6729 86.2317 41.4417 85.9719 41.1333 85.7987C41.0563 85.7987 41.0563 85.7121 40.9792 85.6255C41.0563 85.6255 41.1333 85.5389 41.2104 85.5389C41.4417 85.3657 41.5958 85.1059 41.6729 84.8461C41.6729 84.8461 41.6729 84.8461 41.6729 84.9327C41.5958 85.1059 41.4417 85.2791 41.2104 85.3657C41.0563 85.4523 40.9021 85.4523 40.7479 85.4523H40.6708C40.5167 85.3657 40.4396 85.3657 40.2854 85.3657C40.0542 85.3657 39.8229 85.3657 39.5917 85.4523C39.5917 85.4523 39.5146 85.4523 39.4375 85.4523C39.5146 85.3657 39.5917 85.2791 39.6688 85.1925C41.1333 84.2399 42.0583 83.2872 43.1375 82.5078Z" fill="#DC8B00"/>
<path d="M22.6333 86.4916C16.2354 82.9409 3.74792 83.3739 3.74792 83.3739C3.74792 83.3739 9.45209 96.1045 13.3063 98.9624C16.0042 101.041 19.6271 101.56 21.6313 101.041C24.2521 100.261 27.7208 98.7026 27.7208 98.7026C27.7208 98.7026 27.7208 89.2629 22.6333 86.4916Z" fill="#212121" stroke="#DC8B00" stroke-miterlimit="10"/>
<path d="M24.7917 95.4117C24.6375 95.2385 24.4834 95.0653 24.3292 94.8921C23.9438 94.2859 23.5584 93.6797 23.3271 93.0734C23.173 92.727 23.0959 92.3806 23.0188 92.0342C23.0188 91.9476 23.0188 91.9476 23.0188 91.861C23.0959 91.6012 23.173 91.3414 23.3271 91.1682C23.4042 91.0816 23.4042 91.0816 23.4813 90.995C23.6355 90.7352 23.8667 90.562 24.175 90.562C24.098 90.562 24.0209 90.562 24.0209 90.562C23.7896 90.562 23.6355 90.6486 23.4813 90.8218C23.4042 90.9084 23.3271 90.9084 23.25 90.995C23.173 91.0816 23.0188 91.2548 22.9417 91.3414C22.9417 90.8218 23.0188 90.3022 23.25 89.7825C22.8646 90.2156 22.7105 90.8218 22.6334 91.428C22.6334 91.6878 22.6334 92.0342 22.6334 92.294L22.5563 92.2074C22.4021 92.0342 22.0938 91.9476 21.8625 91.861C21.6313 91.861 21.4 91.861 21.1688 91.861C21.4 91.861 21.6313 91.9476 21.7855 92.0342C22.0167 92.1208 22.1709 92.2074 22.248 92.4672C22.4021 92.6404 22.4792 92.9002 22.6334 93.16C22.7105 93.3332 22.7875 93.5064 22.7875 93.5931C22.8646 93.8529 22.9417 94.1993 23.0959 94.4591C22.5563 94.1993 21.9396 93.9395 21.323 93.7663C20.5521 93.5065 19.7813 93.3332 19.0105 92.9868C18.0855 92.6404 17.1605 92.2074 16.2355 91.7744C16.1584 91.6878 16.0042 91.6012 15.9271 91.428C15.4646 90.995 15.0792 90.4754 14.848 89.8692C14.6938 89.5227 14.6938 89.0897 14.7709 88.6567C14.848 88.2237 14.925 87.7907 15.0792 87.5309C14.7709 87.8773 14.6938 88.3103 14.5396 88.7433C14.5396 88.8299 14.4625 89.0031 14.4625 89.0897C14.3855 89.0031 14.3084 88.9165 14.2313 88.8299C14 88.5701 13.6917 88.4835 13.3834 88.4835V88.5701H13.4605C13.6917 88.6567 14 88.7433 14.1542 88.9165C14.3084 89.0897 14.3855 89.2629 14.4625 89.5227V89.6093C14.4625 89.7825 14.4625 89.9558 14.5396 90.0424C14.6167 90.3888 14.7709 90.6486 14.925 90.9084C14.925 90.995 15.0021 91.0816 15.0792 91.1682C14.925 91.0816 14.6938 90.995 14.5396 90.9084C13.1521 90.129 11.6875 89.3495 10.4542 88.2237C10.3771 88.2237 10.3 88.1371 10.3 88.0505C10.8396 88.6567 11.4563 89.1763 12.073 89.6959C11.9959 89.6959 11.8417 89.6959 11.7646 89.7825C11.4563 89.8691 11.225 90.129 11.0709 90.3888L11.148 90.3022C11.3021 90.129 11.5334 89.9558 11.7646 89.8692C11.9959 89.7825 12.15 89.8692 12.3813 89.9558C12.3813 89.9558 12.3813 89.9558 12.4584 89.9558C13.075 90.3888 13.6917 90.8218 14.3855 91.2548C14.925 91.6012 15.3875 91.861 15.9271 92.2074C16.8521 92.727 17.8542 93.2466 18.8563 93.7663C19.0105 93.8529 19.1646 93.9395 19.3188 93.9395C18.9334 94.0261 18.625 94.1127 18.3167 94.2859C18.2396 94.2859 18.0855 94.3725 18.0084 94.4591L16.3896 93.7663C16.3896 93.7663 16.4667 93.8529 16.5438 93.9395C16.698 94.1993 16.9292 94.4591 17.1605 94.6323C17.3146 94.7189 17.4688 94.7189 17.5459 94.7189C17.3917 94.8921 17.1605 95.0653 17.0063 95.3251C16.698 95.6715 16.3896 96.1045 16.1584 96.5375L16.0813 96.6241C16.3896 96.1911 16.775 95.8447 17.1605 95.4983C17.3146 95.3251 17.5459 95.1519 17.7771 94.9787C17.9313 94.8921 18.0084 94.8055 18.1625 94.8055C18.0084 95.0653 17.8542 95.3251 17.7771 95.6715C17.7771 95.7581 17.7771 95.7581 17.7771 95.8447C17.7 96.3643 17.7771 96.8839 18.0084 97.2304C18.0084 97.317 18.0855 97.317 18.0855 97.4036C17.7771 96.8839 17.7771 96.2777 17.9313 95.7581C18.0084 95.4983 18.1625 95.2385 18.3167 95.0653C18.4709 94.8921 18.548 94.7189 18.7021 94.7189C19.0105 94.6323 19.3959 94.6323 19.7042 94.6323C19.9355 94.6323 20.0896 94.6323 20.3209 94.6323H20.398H20.6292C20.7834 94.7189 20.9375 94.7189 21.0917 94.8055C21.2459 94.8055 21.323 94.8921 21.4771 94.9787L23.9438 96.4509C25.023 97.317 26.1021 98.2696 27.0271 99.3088L27.5667 98.7026L28.1063 98.0964C27.0271 97.0572 25.948 96.1911 24.7917 95.4117Z" fill="#DC8B00"/>
<path d="M18.9333 38.4271L20.7834 38.2539H31.9604V39.2931H18.9333V38.4271ZM18.9333 41.8912L20.7834 41.718H31.9604V42.7572H18.9333V41.8912ZM20.6292 45.9615C20.6292 39.8994 28.7229 39.2931 28.7229 34.6166C28.7229 32.798 27.4125 31.3257 25.3313 31.3257C23.5584 31.3257 22.7104 32.0185 21.5542 33.4908L20.7834 32.6248C21.9396 31.1525 23.1729 30.1133 25.3313 30.1133C28.0292 30.1133 30.0334 32.0185 30.0334 34.7032C30.0334 40.0726 21.9396 40.6788 21.9396 46.0481C21.9396 48.1266 23.4042 49.5988 26.025 49.5988C27.9521 49.5988 29.2625 48.473 30.4188 47.0874L31.1125 48.04C29.8792 49.5122 28.1063 50.7247 26.025 50.7247C23.0188 50.8113 20.6292 49.0792 20.6292 45.9615Z" fill="black"/>
<path d="M28.5687 4.99857C28.6458 3.52633 28.6458 2.05408 28.6458 0.495239" stroke="#9D917C" stroke-width="2" stroke-miterlimit="10"/>
<path d="M22.7104 0.495239C22.7104 8.63588 24.175 15.2177 25.8709 15.2177C26.1792 15.2177 26.4875 14.8713 26.7959 14.5248" stroke="#9D917C" stroke-width="2" stroke-miterlimit="10"/>
</svg>
