<svg width="111" height="111" viewBox="0 0 111 111" fill="none" xmlns="http://www.w3.org/2000/svg">
<path d="M33.3771 42.2417C32.9146 29.3688 21.6604 9.71252 21.6604 9.71252C21.6604 9.71252 8.55623 28.4438 7.70831 36.8458C7.09165 42.7813 9.40415 48.9479 11.9479 51.8C15.1854 55.3458 20.5041 59.7396 20.5041 59.7396C20.5041 59.7396 33.7625 52.4938 33.3771 42.2417Z" fill="#DC8B00" stroke="#212121" stroke-miterlimit="10"/>
<path d="M20.273 59.4313C20.273 59.4313 22.4313 51.4146 21.1209 45.7875C19.6563 39.5438 19.2709 27.75 20.5042 23.6646" fill="#DC8B00"/>
<path d="M19.5021 59.2C20.2729 56.3479 20.8125 53.4188 20.8896 50.4896C20.9667 49.025 20.8896 47.5604 20.6583 46.0959C20.35 44.6313 20.1187 43.0896 19.9646 41.625C19.6562 38.6188 19.5021 35.6125 19.5021 32.6063C19.5021 31.0646 19.5792 29.6 19.6562 28.0584C19.8104 26.5938 19.9646 25.0521 20.4271 23.5875H20.5042C20.1187 25.0521 20.0417 26.5167 19.9646 28.0584C19.8875 29.5229 19.8875 31.0646 19.9646 32.5292C20.0417 35.5354 20.35 38.5417 20.7354 41.4709C20.9667 42.9354 21.1979 44.4 21.5833 45.8646C21.9687 47.4063 22.0458 48.9479 22.0458 50.4896C22.0458 53.5729 21.6604 56.5792 20.9667 59.5854L19.5021 59.2Z" fill="#212121"/>
<path d="M19.8875 35.9979C19.8875 35.9979 20.6583 32.2208 22.7395 31.45C24.6666 30.6791 25.4375 30.9875 25.4375 30.9875" fill="#DC8B00"/>
<path d="M19.5791 35.9208C19.7333 35.2271 20.0416 34.5333 20.2729 33.9167C20.5812 33.3 20.9666 32.6833 21.4291 32.1438C21.6604 31.9125 21.9687 31.6812 22.277 31.45C22.5854 31.2958 22.9708 31.2187 23.2791 31.0646C23.9729 30.9104 24.6666 30.7562 25.3604 30.9104V30.9875C24.6666 30.8333 23.9729 31.0646 23.3562 31.2958C22.6624 31.5271 22.1229 31.8354 21.6604 32.375C20.8124 33.3771 20.3499 34.7646 20.1187 36.075L19.5791 35.9208Z" fill="#212121"/>
<path d="M21.1208 45.7875C21.0437 45.2479 18.6541 41.3167 17.2666 40.7C15.4937 39.8521 13.2583 39.4667 13.2583 39.4667" fill="#DC8B00"/>
<path d="M20.6584 45.8646C20.6584 45.7875 20.5042 45.5563 20.4271 45.325C20.35 45.0938 20.2729 44.9396 20.1188 44.7083C19.8875 44.3229 19.7334 43.9375 19.5021 43.5521C19.0396 42.7813 18.5771 42.0875 17.9604 41.3938C17.6521 41.0854 17.3438 40.7771 16.9584 40.6229C16.5729 40.3917 16.1875 40.2375 15.725 40.0833C14.8771 39.775 14.0292 39.5438 13.1813 39.3125C14.0292 39.4667 14.9542 39.6208 15.8021 39.9292C16.2646 40.0833 16.65 40.1604 17.1125 40.3917C17.575 40.5458 17.9604 40.8542 18.2688 41.1625C18.9625 41.7792 19.5021 42.4729 20.0417 43.2438C20.2729 43.6292 20.5813 44.0146 20.8125 44.4C20.9667 44.5542 21.0438 44.7854 21.1979 45.0167C21.3521 45.2479 21.4292 45.4021 21.5063 45.7104L20.6584 45.8646Z" fill="#212121"/>
<path d="M21.3521 52.8021C22.5854 49.6417 24.1271 47.7917 25.9771 46.6355C27.8271 45.4792 29.2916 45.7875 29.2916 45.7875" fill="#DC8B00"/>
<path d="M20.8895 52.5709C21.6604 50.798 22.7395 49.1022 24.127 47.7917C24.8208 47.098 25.5916 46.5584 26.5166 46.173C27.3645 45.7876 28.3666 45.5563 29.2916 45.7876C28.3666 45.6334 27.4416 45.9417 26.5937 46.4042C25.8229 46.8667 25.1291 47.4834 24.5124 48.1772C23.2791 49.5647 22.5083 51.2605 21.8916 52.9563L20.8895 52.5709Z" fill="#212121"/>
<path d="M18.0402 41.2396C18.0402 41.2396 17.1923 40.4688 17.1152 39.5438C17.0381 38.6188 17.5777 37.6938 17.5777 37.6938" fill="#DC8B00"/>
<path d="M17.9604 41.3167C17.7291 41.0854 17.4979 40.7771 17.3437 40.4688C17.1896 40.1605 17.1125 39.8521 17.0354 39.5438C17.0354 38.85 17.1896 38.2334 17.575 37.6938C17.2666 38.2334 17.1125 38.9271 17.1896 39.5438C17.2666 40.1605 17.6521 40.7 18.1146 41.0855L17.9604 41.3167Z" fill="#212121"/>
<path d="M18.8083 42.1675C18.2687 41.5509 16.8042 41.3196 15.725 41.705C14.3375 42.1675 13.875 43.2467 13.875 43.2467" fill="#DC8B00"/>
<path d="M18.6542 42.3188C18.4229 42.0105 17.9604 41.8563 17.4979 41.7792C17.0354 41.7021 16.5729 41.7021 16.1104 41.7792C15.1854 41.9334 14.3375 42.473 13.875 43.3209C14.2604 42.473 15.1083 41.7792 16.1104 41.548C16.5729 41.4709 17.1125 41.3938 17.575 41.4709C18.0375 41.548 18.5771 41.7021 18.9625 42.0876L18.6542 42.3188Z" fill="#212121"/>
<path d="M23.8959 48.4855C23.8959 48.4855 25.1292 46.7126 25.1292 45.7876C25.1292 44.8626 24.5896 44.0146 24.5896 44.0146" fill="#DC8B00"/>
<path d="M23.5875 48.3313C24.05 47.7146 24.5125 47.0209 24.8209 46.3271C24.975 45.9417 24.975 45.5563 24.8979 45.1709C24.8208 44.7855 24.6667 44.4001 24.5125 44.0146C24.7438 44.323 24.8979 44.7084 25.0521 45.0938C25.2063 45.4792 25.2063 45.9417 25.1292 46.3271C24.8979 47.1751 24.5125 47.8688 24.1271 48.6396L23.5875 48.3313Z" fill="#212121"/>
<path d="M25.6687 46.8666C26.6708 46.4041 28.752 46.9437 29.0604 47.8687L25.6687 46.8666Z" fill="#DC8B00"/>
<path d="M25.5145 46.7125C26.2083 46.4812 26.902 46.5583 27.5187 46.7125C27.827 46.7896 28.1354 46.9437 28.3666 47.175C28.5979 47.3292 28.9062 47.6375 28.9833 47.9458C28.8291 47.6375 28.5979 47.4833 28.2895 47.3292C27.9812 47.175 27.7499 47.0979 27.4416 47.0208C26.8249 46.8666 26.1312 46.8666 25.6687 47.175L25.5145 46.7125Z" fill="#212121"/>
<path d="M22.6625 28.9833C23.125 30.1396 22.8937 31.0646 21.9688 31.8354L22.6625 28.9833Z" fill="#DC8B00"/>
<path d="M22.7396 28.9833C22.9708 29.4458 23.0479 29.9854 22.9708 30.525C22.8937 31.0646 22.5083 31.5271 22.1229 31.9125L21.9688 31.6813C22.3542 31.3729 22.6625 30.9104 22.8167 30.4479C22.8937 29.9854 22.8167 29.4458 22.7396 28.9833Z" fill="#212121"/>
<path d="M17.8063 26.5938C19.0396 26.825 19.6563 27.5958 19.8104 28.7521L17.8063 26.5938Z" fill="#DC8B00"/>
<path d="M17.8063 26.5938C18.3459 26.6708 18.8084 26.9021 19.1938 27.2875C19.5792 27.6729 19.8104 28.2125 19.8875 28.7521H19.6563C19.5792 28.2125 19.425 27.75 19.1167 27.3646C18.8084 26.9792 18.3459 26.7479 17.8063 26.5938Z" fill="#212121"/>
<path d="M80.475 86.4104C80.0125 71.9958 67.3708 50.0271 67.3708 50.0271C67.3708 50.0271 52.6479 71.0708 51.6458 80.475C50.952 87.1813 53.4958 94.0417 56.425 97.2021C60.0479 101.21 66.0604 106.067 66.0604 106.067C66.0604 106.067 80.8604 97.8958 80.475 86.4104Z" fill="#DC8B00" stroke="#212121" stroke-miterlimit="10"/>
<path d="M65.7521 105.604C65.7521 105.604 68.1417 96.6626 66.6771 90.4189C65.0583 83.4043 64.6729 70.223 65.9833 65.598" fill="#DC8B00"/>
<path d="M65.0583 105.45C65.9063 102.29 66.4458 98.975 66.6 95.6605C66.6771 94.0417 66.6 92.3459 66.2917 90.7271C65.9833 89.1084 65.675 87.4125 65.5208 85.7167C65.1354 82.325 64.9813 79.0105 65.0583 75.6188C65.0583 73.923 65.1354 72.2271 65.2896 70.5313C65.4437 68.8355 65.5979 67.1396 66.1375 65.5209H66.2146C65.8292 67.1396 65.675 68.8355 65.5979 70.5313C65.5208 72.2271 65.5208 73.923 65.5979 75.5417C65.675 78.8563 65.9833 82.248 66.4458 85.5625C66.6771 87.2584 66.9854 88.8771 67.3708 90.4959C67.7563 92.1917 67.9104 93.8875 67.9104 95.6605C67.9104 99.1292 67.4479 102.444 66.6771 105.835L65.0583 105.45Z" fill="#212121"/>
<path d="M65.3667 79.3957C65.3667 79.3957 66.2146 75.2332 68.5271 74.3082C70.6855 73.4603 71.6105 73.7687 71.6105 73.7687" fill="#DC8B00"/>
<path d="M65.0583 79.3187C65.2896 78.5479 65.5208 77.7771 65.9063 77.0833C66.2146 76.3896 66.6771 75.6958 67.2167 75.0791C67.525 74.7708 67.8333 74.5396 68.2188 74.3083C68.6042 74.1541 68.9896 74 69.375 73.9229C70.1458 73.7687 70.9167 73.5375 71.6875 73.7687V73.8458C70.9167 73.6917 70.1458 73.9229 69.4521 74.1541C68.6813 74.3854 68.0646 74.6937 67.525 75.3104C66.6 76.4666 66.0604 78.0083 65.7521 79.4729L65.0583 79.3187Z" fill="#212121"/>
<path d="M66.677 90.4188C66.5999 89.8022 63.902 85.4084 62.4374 84.7147C60.4333 83.7897 57.8895 83.3271 57.8895 83.3271" fill="#DC8B00"/>
<path d="M66.2946 90.4959C66.2946 90.4188 66.1404 90.1105 66.0633 89.9563C65.9863 89.7251 65.8321 89.4938 65.755 89.3397C65.5238 88.8772 65.2925 88.4917 64.9842 88.0292C64.4446 87.1813 63.905 86.4105 63.2884 85.6397C62.98 85.2542 62.5946 84.9459 62.2092 84.7917C61.7467 84.5605 61.2842 84.4063 60.8217 84.1751C59.8967 83.7896 58.9717 83.5584 57.9696 83.3271C58.9717 83.4813 59.8967 83.7126 60.8988 84.0209C61.3613 84.1751 61.8238 84.3292 62.2863 84.4834C62.7488 84.6376 63.2113 85.023 63.5967 85.3313C64.2904 86.0251 64.9842 86.873 65.5238 87.6438C65.8321 88.0292 66.0634 88.4918 66.3717 88.8772C66.5259 89.1084 66.6029 89.3397 66.7571 89.4938C66.9113 89.7251 66.9884 89.8793 67.1425 90.2647L66.2946 90.4959Z" fill="#212121"/>
<path d="M67.0625 98.2042C68.45 94.7355 70.2229 92.6542 72.2271 91.2667C74.2312 89.8792 75.9271 90.3417 75.9271 90.3417" fill="#DC8B00"/>
<path d="M66.5229 97.973C67.4479 96.0459 68.5271 94.1188 70.1459 92.6542C70.9167 91.8834 71.8417 91.2667 72.7667 90.8042C73.7688 90.3417 74.8479 90.1104 75.9271 90.3417C74.8479 90.1875 73.8459 90.4959 72.9209 91.0354C71.9959 91.575 71.225 92.2688 70.5313 93.0396C69.1438 94.5813 68.2188 96.4313 67.525 98.4355L66.5229 97.973Z" fill="#212121"/>
<path d="M63.2885 85.2541C63.2885 85.2541 62.3636 84.4062 62.2865 83.327C62.2094 82.2479 62.749 81.3229 62.749 81.3229" fill="#DC8B00"/>
<path d="M63.2083 85.4083C62.9 85.1 62.7458 84.8687 62.5145 84.4833C62.3604 84.175 62.2062 83.7896 62.2062 83.4041C62.1291 82.6333 62.4374 81.9395 62.7458 81.3229C62.4374 81.9395 62.2062 82.7104 62.3604 83.4041C62.4374 84.0979 62.9 84.7146 63.4395 85.1771L63.2083 85.4083Z" fill="#212121"/>
<path d="M64.1333 86.3355C63.5166 85.6417 61.8978 85.4105 60.6645 85.7959C59.1228 86.2584 58.5833 87.5688 58.5833 87.5688" fill="#DC8B00"/>
<path d="M63.9791 86.4875C63.6707 86.1792 63.1312 85.948 62.6687 85.8709C62.1291 85.7938 61.6666 85.7938 61.127 85.8709C60.1249 86.025 59.1228 86.6417 58.5833 87.6438C59.0458 86.6417 59.9707 85.948 61.0499 85.7167C61.5895 85.5625 62.1291 85.5625 62.6687 85.6396C63.2082 85.7167 63.7478 85.8709 64.2103 86.3334L63.9791 86.4875Z" fill="#212121"/>
<path d="M69.8374 93.4251C69.8374 93.4251 71.2249 91.4209 71.2249 90.4188C71.2249 89.3397 70.6082 88.4147 70.6082 88.4147" fill="#DC8B00"/>
<path d="M69.6062 93.1938C70.1458 92.5 70.6853 91.7292 70.9937 90.9584C71.1478 90.5729 71.1478 90.1104 71.0708 89.6479C70.9937 89.1854 70.8395 88.8 70.6083 88.3375C70.8395 88.7229 71.0708 89.1084 71.1478 89.5709C71.302 90.0334 71.3791 90.4959 71.2249 90.9584C71.0708 91.4209 70.9166 91.8834 70.6853 92.2688C70.4541 92.6542 70.2999 93.1167 69.9916 93.5021L69.6062 93.1938Z" fill="#212121"/>
<path d="M71.7667 91.5781C72.923 91.0386 75.1584 91.6552 75.6209 92.7344L71.7667 91.5781Z" fill="#DC8B00"/>
<path d="M71.6875 91.4209C72.0729 91.2667 72.4583 91.2667 72.8438 91.2667C73.2292 91.2667 73.6146 91.3438 73.9229 91.498C74.3083 91.5751 74.6167 91.7292 74.925 91.9605C75.2333 92.1917 75.4646 92.423 75.6188 92.8084C75.4646 92.5001 75.1563 92.2688 74.8479 92.0376C74.5396 91.8834 74.2313 91.7292 73.8458 91.6521C73.1521 91.498 72.3812 91.498 71.8417 91.8063L71.6875 91.4209Z" fill="#212121"/>
<path d="M68.5301 71.5333C69.0697 72.8437 68.7614 73.8458 67.7593 74.6937L68.5301 71.5333Z" fill="#DC8B00"/>
<path d="M68.5271 71.5333C68.7583 72.0729 68.9125 72.6896 68.7583 73.3063C68.6042 73.9229 68.2959 74.4625 67.8334 74.8479L67.6792 74.6167C68.1417 74.2313 68.45 73.7688 68.6042 73.2292C68.7583 72.6896 68.6813 72.0729 68.5271 71.5333Z" fill="#212121"/>
<path d="M63.0541 68.9126C64.4416 69.2209 65.1353 69.9918 65.2895 71.3022L63.0541 68.9126Z" fill="#DC8B00"/>
<path d="M63.0541 68.9126C63.6707 68.9897 64.2103 69.2209 64.6728 69.6834C65.1353 70.1459 65.2895 70.6855 65.4437 71.3022H65.2124C65.1353 70.7626 64.9812 70.1459 64.5957 69.7605C64.1332 69.3751 63.5937 69.1438 63.0541 68.9126Z" fill="#212121"/>
<path d="M52.5708 22.0459C52.8792 31.1417 60.8958 45.1709 60.8958 45.1709C60.8958 45.1709 70.2229 31.8354 70.8396 25.9C71.3021 21.6604 69.6063 17.2667 67.8333 15.3396C65.5208 12.7959 61.7438 9.71252 61.7438 9.71252C61.7438 9.71252 52.3396 14.7229 52.5708 22.0459Z" fill="#DC8B00" stroke="#212121" stroke-miterlimit="10"/>
<path d="M61.975 9.8667C61.975 9.8667 60.4333 15.5709 61.3583 19.5021C62.3604 23.9729 62.6687 32.2979 61.7437 35.2271" fill="#DC8B00"/>
<path d="M62.6687 10.0979C62.1291 12.1021 61.7437 14.1834 61.5895 16.2646C61.5125 17.2667 61.5895 18.3459 61.7437 19.348C61.975 20.4271 62.1291 21.5063 62.2062 22.5855C62.4374 24.7438 62.5145 26.9021 62.4375 28.9834C62.3604 31.1417 62.2833 33.3 61.7437 35.3813H61.6666C62.1291 33.3 62.052 31.1417 61.975 29.0605C61.8979 26.9021 61.6666 24.8209 61.3583 22.7396C61.2041 21.6605 60.9729 20.6584 60.7416 19.6563C60.5104 18.5771 60.3562 17.4209 60.3562 16.3417C60.3562 14.1063 60.5874 12.025 61.0499 9.8667L62.6687 10.0979Z" fill="#212121"/>
<path d="M62.2063 26.5197C62.2063 26.5197 61.6667 29.2176 60.2021 29.7572C58.8146 30.2968 58.275 30.0655 58.275 30.0655" fill="#DC8B00"/>
<path d="M62.5146 26.5938C62.3604 27.1334 62.2063 27.5959 61.975 28.0584C61.7438 28.5209 61.4354 28.9834 61.1271 29.3688C60.7417 29.7542 60.2021 29.9855 59.7396 30.0626C59.2771 30.1396 58.7375 30.2938 58.275 30.1396V30.0626C58.7375 30.1396 59.2 29.9855 59.6625 29.8313C60.125 29.6771 60.5104 29.4459 60.8188 29.0605C61.4354 28.3667 61.7438 27.3646 61.8979 26.4396L62.5146 26.5938Z" fill="#212121"/>
<path d="M61.3584 19.5021C61.4355 19.8876 63.1313 22.6626 64.0563 23.1251C65.2896 23.7417 66.9084 24.0501 66.9084 24.0501" fill="#DC8B00"/>
<path d="M61.7438 19.425C61.7438 19.425 61.8209 19.6563 61.898 19.7334L62.1292 20.1188C62.2834 20.4271 62.4375 20.6584 62.5917 20.9667C62.9 21.5063 63.2855 22.0459 63.6709 22.5084C63.9021 22.7396 64.0563 22.8938 64.3646 23.048C64.673 23.2021 64.9042 23.2792 65.2125 23.4334C65.8292 23.6646 66.3688 23.8959 66.9855 24.05C66.3688 23.973 65.7521 23.8188 65.1355 23.6646C64.8271 23.5875 64.5188 23.5105 64.2105 23.3563C63.9021 23.2792 63.5938 23.048 63.3625 22.8167C62.9 22.3542 62.4375 21.8917 62.0521 21.3521C61.8209 21.1209 61.6667 20.8125 61.5126 20.5813L61.2813 20.1959C61.2042 20.0417 61.1271 19.9646 61.05 19.6563L61.7438 19.425Z" fill="#212121"/>
<path d="M61.1271 14.5688C60.2021 16.8042 59.1229 18.1146 57.8125 18.9625C56.5021 19.8105 55.5 19.5021 55.5 19.5021" fill="#DC8B00"/>
<path d="M61.6697 14.8C61.053 16.0334 60.2822 17.2667 59.2801 18.1917C58.7405 18.6542 58.2009 19.0396 57.5842 19.3479C56.9676 19.6563 56.1967 19.7334 55.5801 19.5792C56.2738 19.6563 56.8905 19.425 57.4301 19.1167C57.9697 18.8084 58.4322 18.3459 58.8947 17.8063C59.7426 16.8042 60.2822 15.6479 60.6676 14.4146L61.6697 14.8Z" fill="#212121"/>
<path d="M63.5167 22.7396C63.5167 22.7396 64.1334 23.2792 64.1334 23.973C64.2105 24.6667 63.8251 25.2834 63.8251 25.2834" fill="#DC8B00"/>
<path d="M63.5938 22.6625C63.9021 23.048 64.2105 23.4334 64.2105 23.973C64.2105 24.4355 64.0563 24.898 63.8251 25.2834C64.0563 24.898 64.1334 24.4355 64.0563 23.973C63.9792 23.5105 63.6709 23.2021 63.3625 22.8938L63.5938 22.6625Z" fill="#212121"/>
<path d="M62.9771 22.1229C63.3625 22.5854 64.3646 22.7396 65.2125 22.4313C66.2146 22.1229 66.5229 21.3521 66.5229 21.3521" fill="#DC8B00"/>
<path d="M63.1312 21.9688C63.2854 22.2 63.5937 22.2771 63.902 22.3542C64.2104 22.4313 64.5187 22.4313 64.9041 22.4313C65.5208 22.3542 66.1375 21.9688 66.5229 21.3521C66.2916 21.9688 65.675 22.5084 64.9812 22.6625C64.6729 22.7396 64.2875 22.7396 63.902 22.7396C63.5166 22.6625 63.2083 22.5854 62.8229 22.2771L63.1312 21.9688Z" fill="#212121"/>
<path d="M59.3543 17.6522C59.3543 17.6522 58.5063 18.8855 58.5063 19.5792C58.5063 20.273 58.8918 20.8897 58.8918 20.8897" fill="#DC8B00"/>
<path d="M59.5855 17.8063C59.2771 18.2688 58.8917 18.7313 58.6605 19.1938C58.5834 19.4251 58.5063 19.7334 58.5834 19.9647C58.6605 20.273 58.7375 20.5042 58.8146 20.8126C58.6605 20.5813 58.5063 20.273 58.4292 20.0417C58.3521 19.7334 58.275 19.4251 58.3521 19.1167C58.5063 18.5001 58.7375 17.9605 59.0459 17.498L59.5855 17.8063Z" fill="#212121"/>
<path d="M58.1208 18.7313C57.4271 19.1167 55.9625 18.6542 55.6542 18.0375L58.1208 18.7313Z" fill="#DC8B00"/>
<path d="M58.1979 18.9625C57.6583 19.1167 57.1958 19.0396 56.7333 18.8855C56.2708 18.7313 55.8083 18.5 55.6542 18.0375C55.8854 18.423 56.3479 18.5771 56.7333 18.7313C57.1958 18.8084 57.6583 18.8084 57.9667 18.5771L58.1979 18.9625Z" fill="#212121"/>
<path d="M60.2021 31.45C59.8938 30.6021 60.048 29.9854 60.6646 29.4459L60.2021 31.45Z" fill="#DC8B00"/>
<path d="M60.2021 31.45C60.0479 31.1417 59.9709 30.6792 60.0479 30.2938C60.125 29.9084 60.3563 29.5229 60.6646 29.2917L60.8188 29.5229C60.5104 29.7542 60.2792 30.0625 60.2021 30.3709C60.0479 30.7563 60.125 31.1417 60.2021 31.45Z" fill="#212121"/>
<path d="M63.6739 33.1459C62.8259 32.9917 62.3635 32.4521 62.2864 31.6042L63.6739 33.1459Z" fill="#DC8B00"/>
<path d="M63.6709 33.1459C63.2855 33.0688 62.9 32.9146 62.6688 32.6834C62.3605 32.375 62.2063 31.9896 62.2063 31.6042H62.4375C62.5146 31.9896 62.5917 32.2979 62.823 32.6063C62.9771 32.8375 63.2855 32.9917 63.6709 33.1459Z" fill="#212121"/>
<path d="M11.948 81.1688C12.2563 91.2667 21.1209 106.683 21.1209 106.683C21.1209 106.683 31.45 91.9605 32.1438 85.4084C32.6063 80.7063 30.8334 75.9272 28.8292 73.6917C26.2855 70.9167 22.123 67.448 22.123 67.448C22.123 67.448 11.6396 73.1522 11.948 81.1688Z" fill="#DC8B00" stroke="#212121" stroke-miterlimit="10"/>
<path d="M22.2771 67.7563C22.2771 67.7563 20.5813 74.0001 21.6604 78.3938C22.8167 83.3272 23.125 92.5772 22.1229 95.7376" fill="#DC8B00"/>
<path d="M22.9708 67.9105C22.3542 70.1459 21.9687 72.4584 21.8146 74.7709C21.7375 75.9272 21.8146 77.0834 21.9687 78.1626C22.2 79.3188 22.3542 80.5522 22.5083 81.7084C22.7396 84.098 22.8167 86.4105 22.8167 88.8001C22.7396 91.1897 22.6625 93.5793 22.0458 95.8147H21.9687C22.5083 93.5022 22.4312 91.1126 22.3542 88.8001C22.2771 86.4876 22.0458 84.098 21.7375 81.7855C21.5833 80.6293 21.3521 79.473 21.0437 78.3938C20.7354 77.1605 20.6583 76.0043 20.6583 74.7709C20.6583 72.3813 20.9667 69.9918 21.5062 67.6022L22.9708 67.9105Z" fill="#212121"/>
<path d="M22.5084 86.1052C22.5084 86.1052 21.8917 89.0344 20.273 89.6511C18.7313 90.2677 18.1146 90.0365 18.1146 90.0365" fill="#DC8B00"/>
<path d="M22.8197 86.1793C22.6655 86.7189 22.4343 87.2585 22.203 87.7981C21.9718 88.3376 21.6635 88.8001 21.278 89.1856C20.8926 89.6481 20.276 89.8793 19.8135 89.9564C19.2739 90.1106 18.7343 90.1876 18.1947 90.0335V89.9564C18.7343 90.0335 19.2739 89.8793 19.7364 89.7251C20.276 89.571 20.7385 89.3397 21.0468 88.8772C21.6635 88.1064 22.0489 87.0272 22.203 86.0251L22.8197 86.1793Z" fill="#212121"/>
<path d="M21.5834 78.3939C21.6605 78.7793 23.5105 81.8627 24.5896 82.4022C25.9771 83.0189 27.75 83.4043 27.75 83.4043" fill="#DC8B00"/>
<path d="M21.9688 78.3168C21.9688 78.3168 22.0459 78.548 22.123 78.7022L22.3542 79.1647C22.5084 79.473 22.6626 79.7814 22.8167 80.0897C23.2022 80.7064 23.5876 81.2459 23.973 81.7855C24.2042 82.0168 24.4355 82.248 24.7438 82.4022C25.0522 82.5564 25.3605 82.7105 25.6688 82.7876C26.2855 83.0189 26.9792 83.2501 27.673 83.4043C26.9792 83.3272 26.2855 83.173 25.5917 82.9418C25.2834 82.8647 24.898 82.7105 24.5897 82.6334C24.2813 82.5564 23.8959 82.248 23.6647 82.0168C23.1251 81.5543 22.6626 80.9376 22.2772 80.398C22.0459 80.0897 21.8917 79.8584 21.6605 79.5501L21.3522 79.0876C21.2751 78.9334 21.198 78.8564 21.0438 78.4709L21.9688 78.3168Z" fill="#212121"/>
<path d="M21.3521 72.9209C20.35 75.3876 19.1167 76.8521 17.7292 77.7771C16.2646 78.7021 15.1854 78.3938 15.1854 78.3938" fill="#DC8B00"/>
<path d="M21.8917 73.1522C21.2751 74.5397 20.4271 75.8501 19.2709 76.9293C18.7313 77.4689 18.1146 77.8543 17.3438 78.1626C16.6501 78.4709 15.8792 78.6251 15.1084 78.3939C15.8792 78.4709 16.573 78.2397 17.1896 77.8543C17.8063 77.4689 18.3459 77.0064 18.8084 76.4668C19.7334 75.3876 20.3501 74.0772 20.8126 72.6897L21.8917 73.1522Z" fill="#212121"/>
<path d="M23.973 82.0167C23.973 82.0167 24.6668 82.6334 24.6668 83.3271C24.7439 84.098 24.2814 84.7917 24.2814 84.7917" fill="#DC8B00"/>
<path d="M24.0501 81.8625C24.2043 82.0938 24.3584 82.248 24.5126 82.4792C24.6668 82.7105 24.7438 82.9417 24.7438 83.25C24.7438 83.7896 24.5897 84.2521 24.3584 84.7146C24.5897 84.2521 24.6668 83.7125 24.5897 83.25C24.5126 82.7875 24.2043 82.3251 23.8188 82.0167L24.0501 81.8625Z" fill="#212121"/>
<path d="M23.4333 81.2459C23.8959 81.7084 24.975 81.8625 25.9 81.6313C26.9792 81.323 27.3646 80.3979 27.3646 80.3979" fill="#DC8B00"/>
<path d="M23.5875 81.0917C23.8188 81.323 24.1271 81.4771 24.4354 81.5542C24.8208 81.6313 25.1292 81.6313 25.5146 81.6313C26.2083 81.5542 26.9021 81.0917 27.2875 80.3979C26.9792 81.0917 26.3625 81.6313 25.5917 81.7855C25.2063 81.8625 24.8208 81.8625 24.4354 81.8625C24.05 81.7855 23.6646 81.7084 23.2792 81.4L23.5875 81.0917Z" fill="#212121"/>
<path d="M19.4251 76.3126C19.4251 76.3126 18.423 77.7001 18.423 78.3939C18.423 79.1647 18.8084 79.7814 18.8084 79.7814" fill="#DC8B00"/>
<path d="M19.6563 76.4668C19.2709 76.9293 18.8855 77.4689 18.6542 78.0084C18.5001 78.2397 18.5001 78.548 18.5771 78.8564C18.6542 79.1647 18.7313 79.473 18.8855 79.7814C18.7313 79.5501 18.5771 79.2418 18.423 78.9334C18.3459 78.6251 18.2688 78.2397 18.3459 77.9314C18.5001 77.2376 18.8084 76.698 19.1167 76.1584L19.6563 76.4668Z" fill="#212121"/>
<path d="M18.0375 77.5489C17.2667 77.9343 15.6479 77.4718 15.3396 76.7781L18.0375 77.5489Z" fill="#DC8B00"/>
<path d="M18.1146 77.7772C17.575 78.0084 17.0354 77.9313 16.4958 77.7001C16.2646 77.623 16.0333 77.4688 15.8021 77.3147C15.5708 77.1605 15.4167 77.0063 15.3396 76.698C15.5708 77.1605 16.1104 77.3147 16.5729 77.4688C17.0354 77.5459 17.575 77.5459 17.9604 77.3147L18.1146 77.7772Z" fill="#212121"/>
<path d="M20.3529 91.5751C19.9675 90.6501 20.1987 89.9564 20.8925 89.3397L20.3529 91.5751Z" fill="#DC8B00"/>
<path d="M20.2729 91.6522C20.1187 91.2668 20.0417 90.8043 20.1187 90.4189C20.1958 89.9564 20.4271 89.6481 20.7354 89.3397L20.8896 89.571C20.5812 89.8022 20.35 90.1106 20.1958 90.496C20.1958 90.8043 20.1958 91.1897 20.2729 91.6522Z" fill="#212121"/>
<path d="M24.1271 93.4251C23.2021 93.1938 22.6625 92.6542 22.5854 91.7292L24.1271 93.4251Z" fill="#DC8B00"/>
<path d="M24.1271 93.5052C23.7417 93.4281 23.2792 93.2739 22.9709 92.9656C22.6625 92.6572 22.5084 92.1947 22.4313 91.8093H22.6625C22.7396 92.1947 22.8167 92.5802 23.125 92.8885C23.3563 93.1197 23.7417 93.2739 24.1271 93.5052Z" fill="#212121"/>
<path d="M83.7125 74.0771C84.0979 85.7938 94.35 103.677 94.35 103.677C94.35 103.677 106.298 86.6417 107.146 78.9333C107.685 73.5375 105.604 67.9104 103.292 65.3667C100.285 62.1292 95.5062 58.1208 95.5062 58.1208C95.5062 58.1208 83.4041 64.6729 83.7125 74.0771Z" fill="#DC8B00" stroke="#212121" stroke-miterlimit="10"/>
<path d="M95.6604 58.4292C95.6604 58.4292 93.7334 65.675 94.8896 70.7625C96.2 76.4667 96.5854 87.1813 95.4292 90.8813" fill="#DC8B00"/>
<path d="M96.4313 58.6604C95.7375 61.2042 95.275 63.9021 95.1208 66.6C95.0438 67.9104 95.1208 69.2979 95.3521 70.5313C95.5833 71.8417 95.8146 73.2292 95.9688 74.6167C96.2771 77.3146 96.3542 80.0896 96.3542 82.8646C96.3542 84.2521 96.2771 85.6396 96.2 86.95C96.0458 88.3375 95.8917 89.6479 95.5063 91.0354H95.4292C95.7375 89.725 95.8917 88.3375 95.8917 87.0271C95.9688 85.6396 95.8917 84.3292 95.8917 82.9417C95.8146 80.2438 95.5833 77.4688 95.1979 74.8479C94.9667 73.5375 94.7354 72.2271 94.4271 70.8396C94.1188 69.4521 93.9646 68.0646 93.9646 66.6771C93.9646 63.9021 94.35 61.1271 94.9667 58.4292L96.4313 58.6604Z" fill="#212121"/>
<path d="M96.0458 79.7812C96.0458 79.7812 95.352 83.1729 93.4249 83.9437C91.652 84.6375 90.9583 84.3292 90.9583 84.3292" fill="#DC8B00"/>
<path d="M96.3541 79.7812C96.1999 80.3979 95.9687 81.0146 95.6603 81.6312C95.352 82.2479 95.0437 82.7875 94.5812 83.25C94.3499 83.4812 94.1187 83.7125 93.8103 83.8667C93.502 84.0208 93.1937 84.0979 92.8853 84.175C92.2687 84.3292 91.652 84.4833 90.9583 84.3292V84.2521C91.5749 84.3292 92.1916 84.175 92.8083 84.0208C93.4249 83.7896 93.9645 83.5583 94.3499 83.0958C95.1208 82.1708 95.5062 80.9375 95.7374 79.7812H96.3541Z" fill="#212121"/>
<path d="M94.8896 70.8397C94.9667 71.3022 97.1251 74.9251 98.3584 75.4647C99.9771 76.2355 102.058 76.6209 102.058 76.6209" fill="#DC8B00"/>
<path d="M95.3521 70.7626C95.3521 70.8397 95.4292 71.0709 95.5062 71.2251L95.7375 71.7647C95.8917 72.1501 96.1229 72.4584 96.3542 72.7667C96.7396 73.4605 97.2021 74.0771 97.7417 74.6938C98.05 75.0021 98.2812 75.2334 98.6667 75.3876C99.0521 75.5417 99.3604 75.6959 99.7458 75.8501C100.517 76.1584 101.287 76.3896 102.058 76.5438C101.287 76.3896 100.44 76.2355 99.6687 76.0042C99.2833 75.9271 98.8979 75.773 98.5125 75.6188C98.1271 75.4646 97.7417 75.2334 97.4333 74.9251C96.8167 74.3855 96.2771 73.6917 95.8146 73.0751C95.5833 72.7667 95.3521 72.3813 95.1208 72.073C95.0437 71.9188 94.8896 71.6876 94.8125 71.5334C94.7354 71.3022 94.5812 71.2251 94.5042 70.8397L95.3521 70.7626Z" fill="#212121"/>
<path d="M94.6583 64.4417C93.5021 67.2937 92.1146 68.9896 90.4187 70.0687C88.7229 71.1479 87.4125 70.8396 87.4125 70.8396" fill="#DC8B00"/>
<path d="M95.2009 64.6729C94.43 66.2917 93.505 67.8334 92.1946 68.9896C91.5009 69.6063 90.8071 70.0688 90.0363 70.4542C89.2655 70.8396 88.3405 70.9938 87.4926 70.7625C88.3405 70.8396 89.1884 70.6084 89.8821 70.2229C90.5759 69.7604 91.2696 69.2209 91.8092 68.6042C92.8884 67.3709 93.6592 65.8292 94.1988 64.2104L95.2009 64.6729Z" fill="#212121"/>
<path d="M97.6675 74.928C97.6675 74.928 98.4383 75.6217 98.5154 76.4696C98.5925 77.3176 98.13 78.0884 98.13 78.0884" fill="#DC8B00"/>
<path d="M97.8187 74.8479C98.0499 75.0792 98.2041 75.3104 98.3583 75.6187C98.5124 75.9271 98.5895 76.1583 98.5895 76.4667C98.5895 77.0833 98.4353 77.7 98.127 78.1625C98.3583 77.6229 98.5124 77.0062 98.4353 76.4667C98.3582 75.9271 97.9728 75.3875 97.5874 75.0792L97.8187 74.8479Z" fill="#212121"/>
<path d="M97.0509 74.1572C97.5905 74.6968 98.9009 74.928 99.903 74.6197C101.136 74.2343 101.599 73.2322 101.599 73.2322" fill="#DC8B00"/>
<path d="M97.2021 74C97.4333 74.2313 97.8187 74.4625 98.2812 74.5396C98.6667 74.6167 99.1292 74.6167 99.5146 74.5396C100.362 74.4625 101.133 73.9229 101.596 73.1521C101.21 73.9229 100.44 74.5396 99.5917 74.7708C99.1292 74.8479 98.6667 74.925 98.2812 74.8479C97.8187 74.7708 97.3562 74.6938 96.9708 74.3083L97.2021 74Z" fill="#212121"/>
<path d="M92.3457 68.3729C92.3457 68.3729 91.1895 69.9917 91.1895 70.7625C91.1895 71.6104 91.652 72.3813 91.652 72.3813" fill="#DC8B00"/>
<path d="M92.6541 68.5271C92.1916 69.0667 91.8062 69.6833 91.4978 70.3771C91.3437 70.6854 91.3437 71.0708 91.4208 71.3792C91.4978 71.7646 91.5749 72.0729 91.7291 72.4584C91.4979 72.15 91.3437 71.8417 91.2666 71.4563C91.1895 71.0708 91.1124 70.6854 91.1895 70.3C91.4208 69.5292 91.7291 68.9125 92.1145 68.2188L92.6541 68.5271Z" fill="#212121"/>
<path d="M90.8042 69.8375C89.8792 70.3 88.0292 69.7604 87.7208 68.9125L90.8042 69.8375Z" fill="#DC8B00"/>
<path d="M90.8812 69.9916C90.2646 70.2229 89.6479 70.1458 89.0312 69.9916C88.7229 69.9146 88.4917 69.7604 88.2604 69.6062C88.0292 69.4521 87.7979 69.2208 87.7208 68.9125C87.875 69.1437 88.1062 69.375 88.3375 69.5291C88.5687 69.6833 88.8771 69.7604 89.1083 69.8375C89.6479 69.9916 90.2646 69.9146 90.7271 69.6833L90.8812 69.9916Z" fill="#212121"/>
<path d="M93.4267 86.1051C92.9642 85.0259 93.2725 84.2551 94.0433 83.4843L93.4267 86.1051Z" fill="#DC8B00"/>
<path d="M93.4249 86.1021C93.1937 85.6396 93.1166 85.1771 93.1937 84.6375C93.2708 84.175 93.5791 83.7125 93.9645 83.4042L94.1187 83.6354C93.7333 83.9438 93.502 84.3292 93.3479 84.7146C93.2708 85.1771 93.3479 85.6396 93.4249 86.1021Z" fill="#212121"/>
<path d="M97.8988 88.2605C96.8197 88.0292 96.203 87.3355 96.0488 86.3334L97.8988 88.2605Z" fill="#DC8B00"/>
<path d="M97.8958 88.2605C97.4333 88.1834 96.9708 87.9521 96.5854 87.6438C96.2 87.2584 96.0458 86.7959 95.9688 86.3334H96.2C96.2771 86.7959 96.4313 87.2584 96.7396 87.5667C96.9708 87.875 97.4333 88.1063 97.8958 88.2605Z" fill="#212121"/>
<path d="M98.8209 43.3979C98.3584 30.2166 86.7959 9.94373 86.7959 9.94373C86.7959 9.94373 73.3063 29.2916 72.3813 37.925C71.7646 44.0146 74.0771 50.4125 76.698 53.2646C80.0896 56.9646 85.4855 61.4354 85.4855 61.4354C85.4855 61.4354 99.2063 53.9583 98.8209 43.3979Z" fill="#DC8B00" stroke="#212121" stroke-miterlimit="10"/>
<path d="M85.3313 61.05C85.3313 61.05 87.4896 52.8792 86.1792 47.0979C84.7147 40.6229 84.3292 28.5208 85.5626 24.3583" fill="#DC8B00"/>
<path d="M84.5604 60.8188C85.3313 57.8896 85.8708 54.8833 86.025 51.8771C86.1021 50.3354 86.025 48.8708 85.7167 47.4063C85.4083 45.8646 85.1771 44.3229 85.0229 42.7813C84.7146 39.6979 84.5604 36.6146 84.5604 33.5313C84.5604 31.9896 84.6375 30.4479 84.7146 28.9063C84.8688 27.3646 85.0229 25.8229 85.4854 24.3583H85.5625C85.1771 25.8229 85.1 27.3646 85.0229 28.9063C84.9458 30.4479 84.9458 31.9896 85.0229 33.5313C85.1 36.6146 85.4083 39.6979 85.7938 42.7042C86.025 44.2458 86.3333 45.7104 86.6417 47.175C87.0271 48.7167 87.1042 50.3354 87.1042 51.8771C87.1042 55.0375 86.6417 58.1208 85.9479 61.2042L84.5604 60.8188Z" fill="#212121"/>
<path d="M84.8688 36.9225C84.8688 36.9225 85.6396 33.0683 87.7979 32.2204C89.8021 31.4495 90.5729 31.7579 90.5729 31.7579" fill="#DC8B00"/>
<path d="M84.6376 36.9229C84.7917 36.2292 85.1001 35.5354 85.4084 34.8416C85.7167 34.1479 86.1022 33.5312 86.6417 32.9916C86.873 32.7604 87.1813 32.4521 87.5667 32.2979C87.8751 32.1437 88.2605 32.0666 88.5688 31.9125C89.2626 31.7583 90.0334 31.6041 90.7272 31.7583V31.8354C90.0334 31.6812 89.3397 31.9125 88.6459 32.1437C87.9522 32.375 87.3355 32.6833 86.9501 33.2229C86.1022 34.3021 85.6397 35.6896 85.3313 37L84.6376 36.9229Z" fill="#212121"/>
<path d="M86.1792 47.0979C86.1021 46.5583 83.6354 42.55 82.2479 41.8563C80.3979 41.0083 78.0854 40.5458 78.0854 40.5458" fill="#DC8B00"/>
<path d="M85.7167 47.178C85.7167 47.1009 85.5625 46.8697 85.4854 46.6384C85.4083 46.4072 85.2542 46.253 85.1771 46.0217C84.9458 45.6363 84.7146 45.2509 84.4833 44.8655C84.0209 44.0947 83.4813 43.3238 82.9417 42.7072C82.6334 42.3988 82.325 42.0905 81.9396 41.9363C81.5542 41.7051 81.0917 41.5509 80.7063 41.3967C79.8584 41.0884 79.0104 40.7801 78.0854 40.6259C79.0104 40.7801 79.8584 40.9342 80.7834 41.2426C81.2459 41.3967 81.6313 41.5509 82.0938 41.7051C82.5563 41.8592 82.9417 42.1676 83.25 42.4759C83.9438 43.0926 84.4834 43.8634 85.0229 44.6342C85.3313 45.0197 85.5625 45.4051 85.7938 45.7905C85.9479 46.0217 86.025 46.1759 86.1792 46.4072C86.3333 46.6384 86.4104 46.7926 86.4875 47.1009L85.7167 47.178Z" fill="#212121"/>
<path d="M86.4875 54.2667C87.798 51.0292 89.3396 49.1792 91.2667 47.9458C93.1167 46.7125 94.6584 47.0979 94.6584 47.0979" fill="#DC8B00"/>
<path d="M85.948 54.0354C86.7959 52.2625 87.798 50.4896 89.2626 49.1021C90.0334 48.4084 90.8043 47.8688 91.7293 47.4063C92.6543 47.0209 93.6563 46.7896 94.5813 47.0209C93.6563 46.8667 92.6543 47.175 91.8063 47.6375C90.9584 48.1 90.2647 48.7167 89.648 49.4875C88.4147 50.875 87.5668 52.6479 86.9501 54.4208L85.948 54.0354Z" fill="#212121"/>
<path d="M83.0221 42.3988C83.0221 42.3988 82.1742 41.628 82.0971 40.6259C82.0201 39.6238 82.5596 38.7759 82.5596 38.7759" fill="#DC8B00"/>
<path d="M82.9417 42.4729C82.7105 42.2416 82.4792 41.9333 82.3251 41.625C82.1709 41.3166 82.0167 41.0083 82.0167 40.6229C81.9396 39.9291 82.1709 39.2354 82.5563 38.6958C82.248 39.3125 82.0938 39.9291 82.1709 40.6229C82.248 41.2395 82.7105 41.7791 83.173 42.2416L82.9417 42.4729Z" fill="#212121"/>
<path d="M83.7896 43.3237C83.173 42.707 81.7084 42.4757 80.6292 42.8612C79.2417 43.3236 78.7021 44.4799 78.7021 44.4799" fill="#DC8B00"/>
<path d="M83.6355 43.4749C83.3271 43.1666 82.8646 43.0124 82.4021 42.8583C81.9396 42.7812 81.4771 42.7812 81.0146 42.8583C80.0896 43.0124 79.1646 43.552 78.7021 44.477C79.0876 43.552 80.0126 42.8583 80.9376 42.7041C81.4001 42.627 81.9396 42.5499 82.4792 42.627C83.0188 42.7041 83.4813 42.8583 83.9438 43.2437L83.6355 43.4749Z" fill="#212121"/>
<path d="M89.0312 49.7958C89.0312 49.7958 90.3417 47.9458 90.3417 47.0208C90.3417 46.0187 89.8021 45.1708 89.8021 45.1708" fill="#DC8B00"/>
<path d="M88.8 49.6446C89.2625 49.0279 89.8021 48.3342 90.1105 47.5634C90.2646 47.1779 90.2646 46.7925 90.1875 46.4071C90.1105 46.0217 89.9563 45.6363 89.8021 45.2509C90.0334 45.6363 90.1875 46.0217 90.3417 46.4071C90.4959 46.7925 90.4959 47.255 90.4188 47.7175C90.1875 48.5654 89.8021 49.3363 89.3396 50.03L88.8 49.6446Z" fill="#212121"/>
<path d="M90.8042 48.1771C91.8834 47.6375 93.9646 48.2541 94.35 49.2562L90.8042 48.1771Z" fill="#DC8B00"/>
<path d="M90.7272 48.0229C91.4209 47.7145 92.1147 47.8687 92.8084 48.0229C93.1168 48.0999 93.4251 48.2541 93.7334 48.4854C94.0418 48.6395 94.273 48.9479 94.3501 49.2562C94.1959 48.9479 93.9647 48.7166 93.6563 48.5625C93.348 48.4083 93.0397 48.3312 92.7313 48.2541C92.1147 48.0999 91.4209 48.0999 90.8813 48.4083L90.7272 48.0229Z" fill="#212121"/>
<path d="M87.8009 29.7542C88.2634 30.9104 88.0322 31.9125 87.1072 32.6833L87.8009 29.7542Z" fill="#DC8B00"/>
<path d="M87.7979 29.7542C88.0292 30.2167 88.1063 30.8333 88.0292 31.3729C87.9521 31.9125 87.5667 32.4521 87.1813 32.7604L87.0271 32.5292C87.4125 32.2208 87.7208 31.7583 87.875 31.2958C88.0292 30.8333 87.9521 30.2937 87.7979 29.7542Z" fill="#212121"/>
<path d="M82.7876 27.3646C84.0209 27.5958 84.6376 28.3666 84.8688 29.6L82.7876 27.3646Z" fill="#DC8B00"/>
<path d="M82.7876 27.3646C83.3272 27.4416 83.8668 27.6729 84.2522 28.0583C84.6376 28.4437 84.8688 28.9833 84.9459 29.5229H84.7147C84.6376 28.9833 84.4834 28.5208 84.098 28.1354C83.7897 27.75 83.3272 27.5187 82.7876 27.3646Z" fill="#212121"/>
<path d="M54.4208 64.9812C54.0354 54.7292 45.0167 38.9271 45.0167 38.9271C45.0167 38.9271 34.4562 53.9583 33.7625 60.7417C33.3 65.5208 35.15 70.4542 37.1542 72.6896C39.775 75.5417 44.0146 79.0875 44.0146 79.0875C44.0146 79.0875 54.6521 73.2292 54.4208 64.9812Z" fill="#DC8B00" stroke="#212121" stroke-miterlimit="10"/>
<path d="M43.8604 78.7792C43.8604 78.7792 45.5562 72.3813 44.5542 67.8333C43.3979 62.7458 43.0896 53.3417 44.0917 50.0271" fill="#DC8B00"/>
<path d="M43.0896 78.5509C43.7063 76.3155 44.1688 73.9259 44.2459 71.6134C44.3229 70.4572 44.2459 69.3009 44.0917 68.1447C43.8604 66.9884 43.7063 65.7551 43.5521 64.5218C43.3208 62.1322 43.2438 59.6655 43.2438 57.2759C43.3208 54.8863 43.3979 52.4197 44.0146 50.1072H44.0917C43.5521 52.4197 43.6292 54.8863 43.7063 57.2759C43.7834 59.6655 44.0146 62.0551 44.4 64.4447C44.5542 65.6009 44.7854 66.7572 45.0938 67.9905C45.4021 69.2239 45.4792 70.4572 45.4792 71.6905C45.4792 74.1572 45.1709 76.6239 44.6313 79.0134L43.0896 78.5509Z" fill="#212121"/>
<path d="M43.5521 59.9709C43.5521 59.9709 44.1688 56.9646 45.8646 56.3479C47.4063 55.7313 48.0229 55.9625 48.0229 55.9625" fill="#DC8B00"/>
<path d="M43.2438 59.8937C43.3979 59.3542 43.6292 58.8146 43.8604 58.275C44.0917 57.7354 44.4 57.2729 44.8625 56.8104C45.2479 56.3479 45.8646 56.1167 46.4042 55.9625C46.9438 55.8083 47.5604 55.7313 48.1 55.8854V55.9625C47.5604 55.8854 47.0209 56.0396 46.4813 56.1938C45.9417 56.3479 45.4792 56.5792 45.1709 57.0417C44.4771 57.8896 44.1688 58.9687 43.9375 59.9708L43.2438 59.8937Z" fill="#212121"/>
<path d="M44.5572 67.9104C44.4801 67.4479 42.6301 64.3645 41.4738 63.825C40.0092 63.1312 38.2363 62.8229 38.2363 62.8229" fill="#DC8B00"/>
<path d="M44.0917 67.9875C44.0917 67.9875 44.0146 67.7562 43.9375 67.602L43.7062 67.1395C43.5521 66.8312 43.3979 66.5229 43.1667 66.2145C42.7812 65.5979 42.3958 65.0583 41.9333 64.5187C41.7021 64.2875 41.4708 64.0562 41.1625 63.902C40.8542 63.7479 40.5458 63.5937 40.1604 63.4395C39.4667 63.2083 38.85 62.977 38.1562 62.8229C38.85 62.9 39.5437 63.0541 40.2375 63.2854C40.5458 63.3625 40.9312 63.5166 41.2396 63.5937C41.625 63.7479 41.9333 63.9791 42.1646 64.2104C42.7042 64.75 43.1667 65.2895 43.6292 65.8291C43.8604 66.1375 44.0917 66.4458 44.2458 66.7541L44.5542 67.2166C44.6312 67.3708 44.7083 67.525 44.8625 67.8333L44.0917 67.9875Z" fill="#212121"/>
<path d="M44.7854 73.4604C45.7875 70.9167 47.0208 69.4521 48.4854 68.5271C49.95 67.6021 51.1062 67.9104 51.1062 67.9104" fill="#DC8B00"/>
<path d="M44.2458 73.3062C44.9396 71.9187 45.7875 70.5312 46.9438 69.4521C47.5604 68.9125 48.1771 68.45 48.8708 68.1416C49.5646 67.8333 50.4125 67.6791 51.1063 67.8333C50.3354 67.7562 49.6417 67.9875 48.9479 68.3729C48.3313 68.7583 47.7917 69.2208 47.2521 69.8375C46.3271 70.9166 45.6333 72.3041 45.1708 73.6916L44.2458 73.3062Z" fill="#212121"/>
<path d="M42.0902 64.2104C42.0902 64.2104 41.3964 63.5937 41.3193 62.8229C41.2423 62.052 41.7047 61.3583 41.7047 61.3583" fill="#DC8B00"/>
<path d="M41.9334 64.3675C41.7021 64.1363 41.548 63.9821 41.4709 63.6738C41.3167 63.4425 41.2396 63.1342 41.2396 62.9029C41.2396 62.3634 41.3938 61.8238 41.7021 61.4384C41.4709 61.9009 41.3167 62.4404 41.3938 62.9029C41.4709 63.3654 41.7792 63.8279 42.1646 64.1363L41.9334 64.3675Z" fill="#212121"/>
<path d="M42.7042 64.9813C42.2417 64.5188 41.0854 64.2875 40.2375 64.5958C39.1584 64.9042 38.7729 65.8292 38.7729 65.8292" fill="#DC8B00"/>
<path d="M42.55 65.0584C42.3188 64.8271 42.0104 64.673 41.625 64.5959C41.2396 64.5188 40.8542 64.5188 40.5459 64.5188C39.775 64.5959 39.0813 65.0584 38.7729 65.7521C39.0813 65.0584 39.775 64.5188 40.5459 64.2875C40.9313 64.2104 41.3167 64.2104 41.7021 64.2104C42.0875 64.2875 42.55 64.3646 42.8584 64.6729L42.55 65.0584Z" fill="#212121"/>
<path d="M46.7896 69.9917C46.7896 69.9917 47.7916 68.5271 47.7916 67.8334C47.7916 67.0625 47.3291 66.3688 47.3291 66.3688" fill="#DC8B00"/>
<path d="M46.4812 69.8375C46.8666 69.375 47.252 68.8354 47.4833 68.2188C47.6375 67.9104 47.6375 67.6792 47.5604 67.2938C47.4833 66.9854 47.4062 66.6771 47.252 66.3688C47.4062 66.6771 47.5604 66.9084 47.7145 67.2938C47.7916 67.6021 47.8687 67.9875 47.7916 68.2959C47.6375 68.9896 47.3291 69.5292 46.9437 70.1459L46.4812 69.8375Z" fill="#212121"/>
<path d="M48.177 68.7583C49.0249 68.3729 50.6437 68.8354 50.952 69.6062L48.177 68.7583Z" fill="#DC8B00"/>
<path d="M48.1 68.5271C48.6396 68.2958 49.2562 68.3729 49.7187 68.6042C49.95 68.6812 50.1812 68.8354 50.4125 68.9896C50.6437 69.1437 50.7979 69.375 50.875 69.6062C50.6437 69.1437 50.1041 68.9125 49.6416 68.8354C49.1791 68.7583 48.6396 68.7583 48.2541 68.9896L48.1 68.5271Z" fill="#212121"/>
<path d="M45.7904 54.3438C46.1758 55.2688 45.9446 56.0396 45.2509 56.6563L45.7904 54.3438Z" fill="#DC8B00"/>
<path d="M45.8645 54.3438C46.0187 54.7292 46.1729 55.1917 46.0187 55.5771C45.9416 56.0396 45.6333 56.425 45.3249 56.7333L45.1708 56.5021C45.4791 56.2708 45.7104 55.8854 45.8645 55.5C45.9416 55.1917 45.9416 54.8062 45.8645 54.3438Z" fill="#212121"/>
<path d="M41.9333 52.4938C42.9354 52.725 43.3979 53.2646 43.5521 54.1896L41.9333 52.4938Z" fill="#DC8B00"/>
<path d="M41.9333 52.4938C42.3188 52.5709 42.7813 52.725 43.0896 53.0334C43.3979 53.3417 43.5521 53.8042 43.6292 54.1896H43.3979C43.3208 53.8042 43.2438 53.4188 42.9354 53.1104C42.7042 52.8021 42.3188 52.6479 41.9333 52.4938Z" fill="#212121"/>
<path d="M48.1 98.2041C47.8687 92.4229 42.8583 83.6354 42.8583 83.6354C42.8583 83.6354 36.9229 92.0375 36.5375 95.8145C36.2291 98.5125 37.3083 101.21 38.4646 102.521C39.9291 104.14 42.3187 106.067 42.3187 106.067C42.3187 106.067 48.2541 102.829 48.1 98.2041Z" fill="#DC8B00" stroke="#212121" stroke-miterlimit="10"/>
<path d="M42.2417 105.912C42.2417 105.912 43.1667 102.367 42.6271 99.8229C42.0104 96.9708 41.7792 91.7292 42.3959 89.8792" fill="#DC8B00"/>
<path d="M41.4708 105.681C41.8562 104.448 42.0875 103.138 42.1646 101.904C42.2417 101.287 42.1646 100.594 42.0875 99.9771C42.0104 99.2833 41.8562 98.5896 41.8562 97.9729C41.7792 96.5854 41.7021 95.275 41.7792 93.8875C41.8562 92.5771 41.9333 91.1896 42.3187 89.8792H42.3958C42.1646 91.1896 42.1646 92.5771 42.2417 93.8875C42.3187 95.1979 42.4729 96.5854 42.7042 97.8958C42.7812 98.5896 42.9354 99.2062 43.1667 99.8229C43.3208 100.517 43.3979 101.21 43.3979 101.904C43.3979 103.292 43.2437 104.679 43.0125 106.067L41.4708 105.681Z" fill="#212121"/>
<path d="M42.0875 95.429C42.0875 95.429 42.4729 93.7332 43.3209 93.4249C44.1688 93.1165 44.5542 93.1936 44.5542 93.1936" fill="#DC8B00"/>
<path d="M41.7792 95.352C41.8563 95.0437 42.0104 94.7354 42.1646 94.427C42.3188 94.1187 42.4729 93.8874 42.7813 93.5791C43.0125 93.3478 43.3979 93.1937 43.7063 93.1166C44.0146 93.0395 44.3229 92.9624 44.6313 93.1166V93.1937C44.3229 93.1166 44.0146 93.2708 43.7833 93.3478C43.475 93.4249 43.2438 93.5791 43.0896 93.8103C42.7813 94.2728 42.55 94.8895 42.4729 95.4291L41.7792 95.352Z" fill="#212121"/>
<path d="M42.63 99.8229C42.5529 99.5917 41.5508 97.8187 40.9342 97.5104C40.1633 97.125 39.1613 96.9708 39.1613 96.9708" fill="#DC8B00"/>
<path d="M42.1645 99.9C42.1645 99.9771 42.1645 99.8229 42.0874 99.7458L42.0103 99.5146C41.9333 99.3604 41.8562 99.2062 41.7791 98.975C41.6249 98.6667 41.3937 98.2812 41.1624 97.9729C41.0083 97.8187 40.9312 97.7417 40.777 97.5875C40.6228 97.5104 40.4687 97.4333 40.2374 97.3562C39.852 97.2021 39.4666 97.0479 39.0812 96.9708C39.4666 97.0479 39.852 97.0479 40.2374 97.2021C40.4687 97.2792 40.6228 97.2792 40.8541 97.3562C41.0853 97.4333 41.2395 97.5875 41.3937 97.6646C41.702 97.9729 42.0103 98.2812 42.2416 98.5896C42.3958 98.7437 42.4728 98.8979 42.627 99.0521L42.7812 99.2833C42.8583 99.4375 42.8583 99.4375 42.9353 99.6687L42.1645 99.9Z" fill="#212121"/>
<path d="M42.7042 102.906C43.2438 101.519 43.9376 100.671 44.7855 100.131C45.6334 99.5916 46.2501 99.7457 46.2501 99.7457" fill="#DC8B00"/>
<path d="M42.2417 102.754C42.6271 101.983 43.1667 101.212 43.8604 100.595C44.2459 100.287 44.5542 100.056 45.0167 99.9017C45.4021 99.7476 45.8646 99.6705 46.3271 99.8246C45.9417 99.8246 45.4792 99.9788 45.1709 100.133C44.8625 100.364 44.5542 100.673 44.3229 100.981C43.8604 101.598 43.5521 102.368 43.3209 103.139L42.2417 102.754Z" fill="#212121"/>
<path d="M41.2426 97.7417C41.2426 97.7417 40.8572 97.4333 40.8572 96.9708C40.8572 96.5083 41.0884 96.1229 41.0884 96.1229" fill="#DC8B00"/>
<path d="M41.1625 97.8988C40.9313 97.6676 40.7771 97.3592 40.7771 97.0509C40.7771 96.7426 40.8542 96.4343 41.0854 96.203C40.9313 96.4343 40.9313 96.7426 40.9313 97.0509C41.0083 97.2822 41.1625 97.5134 41.3938 97.6676L41.1625 97.8988Z" fill="#212121"/>
<path d="M41.5479 98.2041C41.3167 97.8958 40.6229 97.8187 40.1604 97.9728C39.5437 98.127 39.3125 98.6666 39.3125 98.6666" fill="#DC8B00"/>
<path d="M41.3938 98.3582C41.3167 98.2812 41.1625 98.127 40.9313 98.127C40.7771 98.0499 40.5458 98.0499 40.3146 98.0499C39.9292 98.0499 39.5438 98.2812 39.3125 98.6666C39.4667 98.2812 39.8521 97.9728 40.3146 97.8187C40.5458 97.7416 40.7771 97.7416 41.0083 97.7416C41.2396 97.7416 41.4708 97.8187 41.7021 98.0499L41.3938 98.3582Z" fill="#212121"/>
<path d="M43.8604 100.979C43.8604 100.979 44.3999 100.208 44.3999 99.7458C44.3999 99.3604 44.1687 98.975 44.1687 98.975" fill="#DC8B00"/>
<path d="M43.6292 100.825C43.8604 100.594 44.0917 100.285 44.2458 99.9771C44.3229 99.8229 44.3229 99.6687 44.3229 99.5146C44.3229 99.3604 44.2458 99.1291 44.1687 98.975C44.2458 99.1291 44.4 99.2833 44.4771 99.4375C44.5542 99.5916 44.5541 99.8229 44.5541 100.054C44.4771 100.44 44.3229 100.825 44.1687 101.133L43.6292 100.825Z" fill="#212121"/>
<path d="M44.6313 100.285C45.0938 100.054 46.0188 100.285 46.173 100.748L44.6313 100.285Z" fill="#DC8B00"/>
<path d="M44.5542 100.131C44.9396 99.977 45.248 100.054 45.4792 100.208C45.7875 100.285 46.0188 100.517 46.173 100.748C46.0188 100.517 45.7105 100.439 45.4792 100.362C45.248 100.285 44.9396 100.362 44.7084 100.439L44.5542 100.131Z" fill="#212121"/>
<path d="M43.3238 92.2687C43.5551 92.8083 43.4009 93.1937 43.0155 93.5791L43.3238 92.2687Z" fill="#DC8B00"/>
<path d="M43.3208 92.2687C43.3979 92.4999 43.475 92.7312 43.475 92.9624C43.3979 93.1937 43.3208 93.4249 43.0896 93.6562L42.9354 93.4249C43.0896 93.2708 43.2438 93.1166 43.3208 92.8853C43.3979 92.7312 43.3208 92.4999 43.3208 92.2687Z" fill="#212121"/>
<path d="M41.1625 91.2697C41.7021 91.3467 42.0104 91.7321 42.0875 92.1946L41.1625 91.2697Z" fill="#DC8B00"/>
<path d="M41.1625 91.1896C41.3937 91.1896 41.625 91.3437 41.8562 91.4979C42.0104 91.6521 42.1645 91.9604 42.1645 92.1917H41.9333C41.9333 91.9604 41.8562 91.7292 41.7021 91.575C41.5479 91.4208 41.3937 91.3437 41.1625 91.1896Z" fill="#212121"/>
<path d="M31.527 20.353C31.7583 26.9051 37.4624 37.003 37.4624 37.003C37.4624 37.003 44.1687 27.3676 44.6312 23.128C44.9395 20.0447 43.7833 16.9613 42.4729 15.4967C40.777 13.6467 38.0791 11.4113 38.0791 11.4113C38.0791 11.4113 31.3729 15.0342 31.527 20.353Z" fill="#DC8B00" stroke="#212121" stroke-miterlimit="10"/>
<path d="M38.3103 11.5625C38.3103 11.5625 37.2311 15.6479 37.8478 18.5C38.6186 21.7375 38.7728 27.75 38.1561 29.8313" fill="#DC8B00"/>
<path d="M39.0041 11.7167C38.6186 13.1042 38.3103 14.6458 38.2332 16.1104C38.1561 16.8812 38.2332 17.575 38.3103 18.2687C38.4645 19.0396 38.5416 19.8104 38.6186 20.5812C38.7728 22.1229 38.7728 23.6646 38.7728 25.2062C38.6957 26.7479 38.6186 28.2896 38.2332 29.8312H38.1561C38.4645 28.3667 38.3874 26.825 38.3874 25.2833C38.3103 23.7417 38.1561 22.2 37.9249 20.7354C37.7707 19.9646 37.6166 19.2708 37.4624 18.5C37.2311 17.7292 37.1541 16.8812 37.1541 16.1104C37.1541 14.4917 37.3082 12.95 37.6166 11.3312L39.0041 11.7167Z" fill="#212121"/>
<path d="M38.4645 23.5104C38.4645 23.5104 38.0791 25.4375 36.9999 25.8229C35.9978 26.2084 35.6124 26.0542 35.6124 26.0542" fill="#DC8B00"/>
<path d="M38.7758 23.5905C38.6988 23.9759 38.5446 24.2843 38.3904 24.6697C38.2363 24.978 38.005 25.2864 37.7738 25.5947C37.5425 25.903 37.08 26.0572 36.7717 26.1343C36.3863 26.2114 36.0779 26.2884 35.6925 26.2114V26.1343C36.0008 26.2114 36.3863 26.0572 36.6946 25.9801C37.0029 25.8259 37.3113 25.7489 37.5425 25.4405C37.9279 24.9009 38.1592 24.2072 38.2363 23.5905H38.7758Z" fill="#212121"/>
<path d="M37.8479 18.5C37.925 18.8083 39.0812 20.8125 39.775 21.1208C40.7 21.5833 41.8562 21.7375 41.8562 21.7375" fill="#DC8B00"/>
<path d="M38.2333 18.4229C38.2333 18.4229 38.3104 18.5771 38.3104 18.6542L38.4645 18.9625C38.5416 19.1937 38.6958 19.3479 38.7729 19.5792C39.0041 19.9646 39.2354 20.35 39.4666 20.6583C39.6208 20.8125 39.6979 20.9667 39.9291 21.0437C40.1604 21.1208 40.3145 21.275 40.5458 21.3521C40.9312 21.5062 41.3937 21.6604 41.8562 21.8146C41.3937 21.7375 40.9312 21.6604 40.4687 21.5833C40.2375 21.5062 40.0062 21.4292 39.775 21.3521C39.5437 21.275 39.3125 21.1208 39.1583 20.9667C38.7729 20.6583 38.4645 20.2729 38.2333 19.8875C38.0791 19.7333 37.925 19.5021 37.8479 19.3479L37.6166 19.0396C37.5395 18.8854 37.4625 18.8854 37.3854 18.6542L38.2333 18.4229Z" fill="#212121"/>
<path d="M37.6937 14.9542C37.077 16.5729 36.2291 17.4979 35.3041 18.1146C34.3791 18.7312 33.6083 18.5 33.6083 18.5" fill="#DC8B00"/>
<path d="M38.2333 15.1083C37.7708 16.0333 37.2312 16.8812 36.3833 17.575C35.9979 17.8833 35.5354 18.1916 35.0729 18.3458C34.6104 18.5 34.0708 18.5771 33.6083 18.5C34.0708 18.5771 34.5333 18.3458 34.9187 18.1146C35.3041 17.8833 35.6124 17.4979 35.9208 17.1896C36.4604 16.4958 36.8458 15.6479 37.1541 14.7229L38.2333 15.1083Z" fill="#212121"/>
<path d="M39.3895 20.8155C39.3895 20.8155 39.852 21.2009 39.852 21.6634C39.852 22.1259 39.6208 22.5884 39.6208 22.5884" fill="#DC8B00"/>
<path d="M39.5437 20.7354C39.7749 21.0437 39.9291 21.3521 40.0062 21.6604C40.0062 22.0458 39.852 22.3542 39.6979 22.5854C39.852 22.2771 39.9291 21.9687 39.852 21.6604C39.7749 21.3521 39.5437 21.1208 39.3895 20.8896L39.5437 20.7354Z" fill="#212121"/>
<path d="M39.0042 20.35C39.3125 20.6583 40.0062 20.7354 40.6229 20.5813C41.3167 20.35 41.5479 19.8104 41.5479 19.8104" fill="#DC8B00"/>
<path d="M39.1583 20.1958C39.2354 20.35 39.4666 20.4271 39.6979 20.5042C39.9291 20.5813 40.1604 20.5813 40.3916 20.5813C40.8541 20.5042 41.3166 20.2729 41.5479 19.8104C41.3937 20.2729 40.9312 20.6583 40.3916 20.7354C40.1604 20.8125 39.8521 20.8125 39.6208 20.8125C39.3896 20.8125 39.0812 20.7354 38.85 20.5042L39.1583 20.1958Z" fill="#212121"/>
<path d="M36.4603 17.1125C36.4603 17.1125 35.8436 18.0375 35.8436 18.5C35.8436 18.9625 36.152 19.425 36.152 19.425" fill="#DC8B00"/>
<path d="M36.6916 17.2666C36.4604 17.575 36.152 17.8833 35.9979 18.2687C35.9208 18.4229 35.9208 18.5771 35.9208 18.8083C35.9208 19.0396 35.9979 19.1937 36.0749 19.425C35.9208 19.2708 35.8437 19.0396 35.7666 18.8854C35.6895 18.6541 35.6124 18.4229 35.6895 18.1916C35.7666 17.7291 35.9979 17.3437 36.152 16.9583L36.6916 17.2666Z" fill="#212121"/>
<path d="M35.5354 17.9604C34.9958 18.1916 33.9937 17.9604 33.7625 17.4208L35.5354 17.9604Z" fill="#DC8B00"/>
<path d="M35.6125 18.1145C35.227 18.2687 34.8416 18.1916 34.5333 18.0374C34.225 17.8833 33.9166 17.7291 33.7625 17.4208C33.9166 17.7291 34.302 17.8062 34.5333 17.8833C34.8416 17.9604 35.15 17.8833 35.3812 17.8062L35.6125 18.1145Z" fill="#212121"/>
<path d="M37 27.1333C36.7688 26.5167 36.9229 26.0542 37.3083 25.6688L37 27.1333Z" fill="#DC8B00"/>
<path d="M37 27.1333C36.8458 26.9021 36.8458 26.5938 36.8458 26.2854C36.9229 25.9771 37.0771 25.7458 37.2312 25.5146L37.3854 25.7458C37.1542 25.9 37 26.1313 36.9229 26.3625C36.9229 26.5938 37 26.825 37 27.1333Z" fill="#212121"/>
<path d="M39.5437 28.2896C38.927 28.1354 38.6187 27.75 38.5416 27.2104L39.5437 28.2896Z" fill="#DC8B00"/>
<path d="M39.5437 28.3666C39.3124 28.2895 39.0041 28.2125 38.7729 27.9812C38.5416 27.75 38.4645 27.5187 38.3875 27.2104H38.6187C38.6187 27.4416 38.6958 27.6729 38.85 27.9041C39.0041 28.0583 39.3124 28.2125 39.5437 28.3666Z" fill="#212121"/>
</svg>
