<svg width="48" height="40" viewBox="0 0 48 40" fill="none" xmlns="http://www.w3.org/2000/svg">
<path fill-rule="evenodd" clip-rule="evenodd" d="M36.7681 39.5581C37.4121 40.0141 38.2421 40.1281 38.9821 39.8481C39.7221 39.5661 40.2661 38.9341 40.4301 38.1681C42.1681 30.0001 46.3841 9.32605 47.9661 1.89605C48.0861 1.33605 47.8861 0.754052 47.4461 0.380052C47.0061 0.00605243 46.3961 -0.101948 45.8521 0.100052C37.4661 3.20405 11.6401 12.8941 1.08406 16.8001C0.414063 17.048 -0.0219367 17.6921 6.32856e-05 18.3981C0.0240633 19.1061 0.500063 19.7201 1.18606 19.9261C5.92006 21.3421 12.1341 23.3121 12.1341 23.3121C12.1341 23.3121 15.0381 32.0821 16.5521 36.5421C16.7421 37.1021 17.1801 37.5421 17.7581 37.6941C18.3341 37.8441 18.9501 37.6861 19.3801 37.2801C21.8121 34.9841 25.5721 31.434 25.5721 31.434C25.5721 31.434 32.7161 36.6721 36.7681 39.5581ZM14.7481 22.2041L18.1061 33.2801L18.8521 26.2661C18.8521 26.2661 31.8261 14.5641 39.2221 7.89405C39.4381 7.69805 39.4681 7.37005 39.2881 7.14005C39.1101 6.91005 38.7821 6.85605 38.5361 7.01205C29.9641 12.4861 14.7481 22.2041 14.7481 22.2041Z" fill="#DC8B00"/>
</svg>
