<?xml version="1.0" encoding="UTF-8"?>
<svg fill="none" viewBox="0 0 90 98" xmlns="http://www.w3.org/2000/svg">
<path d="m50.96 3.0825h-12.488v9.9438h12.488v-9.9438z" fill="#DC8B00"/>
<path d="m77.856 18.864-5.8711-4.7531-4.7531 5.8711 5.8711 4.7531 4.7531-5.8711z" fill="#DC8B00"/>
<path d="m43.482 14.337h-1.3104v7.5541h1.3104v-7.5541z" fill="#212121"/>
<path d="m54.043 0.77002h-18.654v4.4708h18.654v-4.4708z" fill="#DC8B00"/>
<path d="m44.716 95.428c23.415 0 42.396-18.981 42.396-42.396 0-23.415-18.981-42.396-42.396-42.396s-42.396 18.981-42.396 42.396c0 23.414 18.981 42.396 42.396 42.396z" fill="#212121" stroke="#DC8B00" stroke-miterlimit="10" stroke-width="4"/>
<path d="m47.676 36.028c-3.5491-9.3906-15.306-20.473-15.306-20.473s-3.0315 18.02-1.4048 24.534c1.183 4.6531 4.1406 8.4601 6.3589 9.7291 2.8836 1.6074 7.0983 3.2148 7.0983 3.2148s6.0631-9.4752 3.2533-17.005z" fill="#DC8B00"/>
<path d="m46.493 41.527c-0.1478-0.1692-0.2957-0.2538-0.4436-0.2538-0.0739 0-0.2218-0.0846-0.2958-0.0846h-0.3697c-0.2218 0-0.3697 0.0846-0.5915 0.1692 0.3697-0.5922 0.8134-1.0998 1.4049-1.3536-0.5915 0.0846-1.1831 0.5922-1.6267 1.0998-0.2218 0.3384-0.4437 0.6768-0.6655 1.0152 0-0.1692 0-0.2538-0.0739-0.423 0-0.3384-0.2218-0.6768-0.3697-0.9306s-0.3697-0.5076-0.5915-0.6768c0.2218 0.2538 0.3697 0.5076 0.5175 0.7614 0.1479 0.2538 0.2219 0.5922 0.2219 0.846 0 0.423-0.074 0.846-0.1479 1.269 0 0.1692-0.074 0.3384-0.074 0.5076-0.1478 0.5076-0.2957 1.0152-0.3697 1.6074-0.3697-0.9306-0.7394-1.8612-1.2569-2.7072-0.5916-0.9306-1.1092-1.9458-1.6267-2.961-0.4437-0.9306-0.8873-1.8612-1.331-2.7918-0.1478-0.3384-0.2957-0.6768-0.4436-1.0152 0-0.1692-0.074-0.2538-0.074-0.423-0.1478-0.9307-0.1478-1.8613 0-2.7073 0.074-0.5076 0.3698-0.9306 0.7395-1.269 0.2957-0.3384 0.6654-0.6768 1.1091-0.846v-0.0846c-0.4437 0.0846-0.8873 0.423-1.257 0.7614-0.074 0.0846-0.2218 0.2538-0.2958 0.3384v-0.5922c-0.0739-0.423-0.2957-0.846-0.5176-1.0998l0.074 0.0846c0.2218 0.2538 0.3697 0.6768 0.4436 1.0152 0 0.3384 0 0.6768-0.1479 0.9306 0 0.0846 0 0.0846-0.0739 0.0846v0.0846c-0.074 0.0846-0.1479 0.2538-0.1479 0.423-0.1479 0.423-0.2218 0.846-0.2218 1.3536v0.423 0.1692l-0.4437-1.0152c-0.8133-2.115-1.5527-4.3146-1.9224-6.5988 0-0.0846 0-0.1692-0.0739-0.2538h-0.074c0.1479 1.1844 0.3697 2.2842 0.6655 3.384-0.1479-0.1692-0.2218-0.2538-0.4437-0.3384-0.2957-0.1692-0.6654-0.1692-1.0351-0.0846h0.0739c0.2958-0.0846 0.6655 0 0.8873 0.1692s0.4436 0.423 0.5915 0.6768c0.2958 1.0152 0.5915 2.0304 0.8873 3.0456 0.2958 0.7614 0.5176 1.6075 0.8133 2.3689v0.0846c0.5176 1.4382 1.0352 2.7918 1.7007 4.1454 0.1479 0.3384 0.2957 0.6768 0.4436 1.0152-0.4436-0.3384-0.9612-0.5922-1.4788-0.846-0.0739-0.0846-0.1479-0.0846-0.2958-0.0846-0.2957-0.1692-0.5915-0.423-0.7394-0.7614-0.2218-0.423-0.2957-0.9306-0.2957-1.4382v0.1692c-0.074 0.5076 0 0.9306 0.1479 1.4382 0.0739 0.2538 0.2218 0.423 0.3697 0.5922h-0.074c-0.2957 0-0.5915 0.0846-0.8873 0.0846-0.5175 0.0846-0.9612 0.1692-1.4788 0.3384h-0.1479-0.1478c0.5915-0.0846 1.1091-0.1692 1.7006-0.1692h0.8873c0.2218 0 0.4436 0.0846 0.5915 0.1692-0.0739 0-0.0739 0-0.1479 0.0846-0.2957 0.0846-0.5915 0.2538-0.8873 0.5076-0.0739 0-0.0739 0-0.1478 0.0846-0.3697 0.423-0.6655 0.9306-0.6655 1.5228v0.1692 0.1692c0.0739-0.7614 0.4436-1.4382 0.9612-1.8612 0.2958-0.1692 0.5176-0.3384 0.8134-0.423 0.2218-0.0846 0.4436-0.0846 0.6654 0 0.3697 0.2538 0.6655 0.5076 0.9613 0.7614 0.2218 0.1692 0.4436 0.423 0.6654 0.6768l0.074 0.0846 0.2218 0.2538c0.0739 0.1692 0.1479 0.3384 0.2218 0.423 0.5176 0.9306 0.8873 2.0304 1.257 3.1302 0.2958 0.9306 0.5176 1.9458 0.7394 2.961 0.2958 1.269 0.4436 2.6226 0.5915 3.8916l1.331-0.1692c-0.2958-1.9458-0.6655-3.7224-1.257-5.499v-0.7614c0-1.0998 0.0739-2.1996 0.2957-3.2148 0.1479-0.423 0.2219-0.846 0.4437-1.269l0.0739-0.0846c0.2218-0.2538 0.5176-0.423 0.8873-0.5076 0.0739 0 0.1479 0 0.2218-0.0846 0.2958 0 0.6655 0 0.8873 0.2538 0.0739 0.1692 0.0739 0.0846 0.0739 0.0846z" fill="#212121"/>
<path d="m51.499 61.358c7.0146 1.4646 19.348-1.1562 19.348-1.1562s-8.1708-8.325-12.565-9.7896c-3.1604-1.0021-6.7833-0.7709-8.7104 0-2.4666 1.0021-5.6271 2.852-5.6271 2.852s1.9271 6.9376 7.5542 8.0938z" fill="#DC8B00" stroke="#212121" stroke-miterlimit="10"/>
<path d="m63.216 57.735c0.077 0 0.1541 0.077 0.2312 0.077-0.6167-0.3083-1.3104-0.6166-2.0042-0.8479 0.0771 0 0.1542-0.0771 0.2313-0.0771 0.3083-0.1541 0.4625-0.3854 0.6167-0.6166h-0.0771s0 0.077-0.0771 0.077c-0.1542 0.1542-0.3083 0.3084-0.5396 0.3855-0.1542 0.0771-0.3854 0.077-0.6167 0.077-0.6937-0.2312-1.4645-0.4624-2.1583-0.6166-0.5396-0.1542-1.0792-0.3083-1.6958-0.3854h-0.0771c-1.0792-0.2313-2.1583-0.4625-3.2375-0.6167h-0.2313c0.2313-0.0771 0.4625-0.2313 0.6938-0.3854 0 0 0.0771 0 0.0771-0.0771 0.0771 0 0.1542-0.0771 0.2312-0.0771 0.2313-0.0771 0.4625-0.1542 0.6938-0.1542 0.3083 0 0.6937 0.1542 0.925 0.3855l-0.0771-0.0771c-0.2313-0.2313-0.5396-0.3854-0.8479-0.4625h-0.4625c0.1541-0.1542 0.3083-0.3854 0.3854-0.5396 0.2312-0.3083 0.4625-0.6938 0.6167-1.0792 0 0 0-0.0771 0.077-0.0771-0.2312 0.3084-0.5395 0.6938-0.8479 1.0021-0.1541 0.1542-0.3083 0.3084-0.4625 0.4625-0.077 0.0771-0.1541 0.1542-0.2312 0.1542 0.0771-0.2313 0.1541-0.3854 0.1541-0.6167v-0.1541c0-0.3855-0.2312-0.7709-0.5395-1.0021l-0.0771-0.0771c0.3854 0.3083 0.5396 0.7708 0.4625 1.2333-0.0771 0.2313-0.1542 0.3854-0.2313 0.5396s-0.1541 0.2313-0.3083 0.3083c-0.3083 0.0771-0.6938 0.1542-1.0021 0.2313-0.1542 0-0.3083 0.0771-0.4625 0.0771-0.0771 0-0.2312 0-0.3083 0.0771h-0.1542c-0.1541 0-0.3854 0-0.5396-0.0771-0.7708-0.0771-1.5416-0.2313-2.3125-0.4625-1.5416-0.4625-3.0062-1.0792-4.3166-1.7729l-0.4625 0.6937-0.4625 0.6938c1.3104 0.5395 2.5437 1.002 3.8541 1.3104 0.2313 0.1541 0.3854 0.2312 0.6167 0.3854 0.4625 0.3083 0.8479 0.6167 1.2333 1.0792 0.1542 0.2312 0.3855 0.4625 0.4625 0.6937v0.1542c0 0.1542-0.0771 0.3854-0.1541 0.5396 0 0.0771-0.0771 0.0771-0.0771 0.1541-0.1542 0.2313-0.3084 0.3855-0.6167 0.4625 0.3083 0 0.5396-0.1541 0.6938-0.3083 0.077-0.0771 0.1541-0.1542 0.2312-0.2312 0.0771-0.0771 0.1542-0.1542 0.1542-0.2313 0.1541 0.3854 0.1541 0.7708 0 1.1563 0.3083-0.3855 0.3854-0.848 0.3083-1.3105 0-0.2312-0.0771-0.3854-0.1541-0.5395h0.077c0.2313 0.077 0.5396 0.1541 0.7709 0.077 0.2312 0 0.4625-0.077 0.6937-0.1541h-0.6167c-0.2312 0-0.3854-0.0771-0.5395-0.2313-0.1542-0.1541-0.3084-0.2312-0.4625-0.3854-0.0771-0.1542-0.2313-0.2312-0.3084-0.3854-0.077-0.1542-0.1541-0.3083-0.3083-0.4625 0.5396 0.0771 1.0792 0.1541 1.6958 0.1541 0.8479 0 1.6188 0.0771 2.4667 0.0771 1.0021 0.0771 2.0042 0.2313 3.0062 0.3854 0.1542 0.0771 0.3084 0.1542 0.4625 0.1542 0.4625 0.2313 1.0021 0.5396 1.3105 0.925 0.2312 0.2313 0.3083 0.5396 0.3083 0.8479 0 0.3084 0.0771 0.6167-0.0771 0.925 0.2313-0.3083 0.2313-0.6166 0.3083-1.002v-0.2313c0.0771 0.0771 0.1542 0.0771 0.2313 0.1542 0.3083 0.1541 0.6167 0.1541 0.925 0.0771v-0.0771h-0.0771c-0.2312 0-0.5396 0-0.6937-0.1542-0.1542-0.0771-0.3084-0.2312-0.3855-0.3083l-0.077-0.0771c0-0.1542-0.0771-0.2313-0.1542-0.3083-0.1542-0.2313-0.3083-0.3855-0.4625-0.5396l-0.0771-0.0771c0.1542 0 0.2313 0.0771 0.3854 0.0771 1.4646 0.1541 3.0063 0.4625 4.4709 1.0021z" fill="#212121"/>
<path d="m44.33 16.264v-4.7021" stroke="#DC8B00" stroke-miterlimit="10"/>
<path d="m44.253 94.735v-4.7792" stroke="#DC8B00" stroke-miterlimit="10"/>
<path d="m81.253 53.418h4.7791" stroke="#DC8B00" stroke-miterlimit="10"/>
<path d="m3.4762 53.418h4.7792" stroke="#DC8B00" stroke-miterlimit="10"/>
</svg>