<?xml version="1.0" encoding="UTF-8"?>
<svg viewBox="0 0 111 111" xmlns="http://www.w3.org/2000/svg">
<path d="m4.702 45.633h20.581v6.6292h-12.642v5.7041h10.792v6.6292h-10.792v11.023h-7.9396v-29.985z" fill="#DC8B00"/>
<path d="m30.833 45.633h11.177c6.475 0 12.025 2.2354 12.025 9.7125 0 7.2458-5.55 10.252-12.025 10.252h-3.2375v10.098h-7.9395v-30.062zm10.637 13.644c3.1605 0 4.7792-1.3875 4.7792-4.0084 0-2.6208-1.6958-3.3916-4.7792-3.3916h-2.6979v7.4h2.6979zm4.4709-1.0792 9.7896 17.421h-8.9417l-6.2438-12.179 5.3959-5.2417z" fill="#DC8B00"/>
<path d="m59.74 45.633h20.427v6.6292h-12.488v4.7021h10.638v6.6291h-10.638v5.3959h12.95v6.6291h-20.89v-29.985z" fill="#DC8B00"/>
<path d="m87.49 45.633h20.428v6.6292h-12.488v4.7021h10.638v6.6291h-10.638v5.3959h12.95v6.6291h-20.89v-29.985z" fill="#DC8B00"/>
<path d="m53.496 60.433c7.0146-8.6333 9.4812-26.208 9.4812-26.208s-21.044 7.0916-26.517 12.256c-3.9313 3.7-5.6271 8.7104-5.2417 11.562 0.5396 3.7 2.1583 8.7104 2.1583 8.7104s14.569 0.6167 20.119-6.3208z" fill="#212121" stroke="#DC8B00" stroke-miterlimit="10"/>
<path d="m46.944 62.283c0-0.2313 0-0.3854-0.0771-0.6167-0.0771-0.0771-0.0771-0.2312-0.1542-0.3083-0.0771-0.1542-0.1542-0.2313-0.2312-0.3083-0.1542-0.1542-0.3855-0.3855-0.6167-0.4625 0.8479 0 1.7729 0.1541 2.4667 0.6166-0.6167-0.5396-1.4646-0.8479-2.3896-0.925-0.5396-0.0771-1.0792-0.0771-1.5417-0.0771 0.1542-0.077 0.3083-0.1541 0.3854-0.3083 0.3084-0.2312 0.5396-0.5396 0.6938-0.925 0.1541-0.3083 0.1541-0.6167 0.2312-0.925-0.0771 0.3083-0.2312 0.6167-0.3854 0.925s-0.3854 0.5396-0.6937 0.6938c-0.3855 0.2312-0.925 0.3854-1.3875 0.5395-0.2313 0.0771-0.3855 0.1542-0.6167 0.1542-0.6938 0.1542-1.3104 0.3083-1.9271 0.5396 0.6938-0.8479 1.3104-1.7729 1.85-2.775 0.5396-1.0792 1.1563-2.1583 1.85-3.2375 0.6167-0.925 1.2333-1.9271 1.9271-2.8521 0.2312-0.3083 0.4625-0.6938 0.6937-1.0021 0.1542-0.0771 0.2313-0.2312 0.3855-0.3083 0.8479-0.6167 1.7729-1.1563 2.775-1.4646 0.6166-0.1542 1.2333-0.1542 1.927 0 0.6167 0.1542 1.2334 0.2312 1.6959 0.6167h0.1541c-0.4625-0.4625-1.0791-0.6167-1.6958-0.7709-0.1542-0.0771-0.3854-0.0771-0.6167-0.1541 0.2313-0.0771 0.4625-0.2313 0.6167-0.3855 0.3854-0.3083 0.6167-0.7708 0.6938-1.1562h-0.1542v0.0771c-0.1542 0.3854-0.3854 0.6937-0.7708 1.0021-0.3084 0.2312-0.6938 0.3083-1.0792 0.3854h-0.1542-0.0771c-0.2312 0-0.3854 0-0.6166 0.0771-0.5396 0.077-1.0792 0.3083-1.5417 0.4625-0.1542 0.077-0.3083 0.1541-0.3854 0.1541s-0.0771 0.0771-0.1542 0.0771c0.2313-0.3083 0.5396-0.6167 0.7709-1.0021 1.6187-1.9271 3.2375-3.9312 5.3187-5.55 0.0771-0.0771 0.1542-0.0771 0.2313-0.1541l-0.0771-0.0771c-1.0792 0.7708-2.0813 1.6187-3.0063 2.5437 0.0771-0.1541 0.0771-0.3854 0-0.5396-0.0771-0.3854-0.3854-0.7708-0.6937-1.002h-0.0771l0.0771 0.077c0.3083 0.3084 0.5396 0.6167 0.5396 1.0021 0 0.3084-0.0771 0.6938-0.2313 0.925v0.0771c-0.8479 0.8479-1.6187 1.6958-2.3896 2.5438-0.6166 0.6937-1.2333 1.3875-1.85 2.1583h-0.3854c-1.0792 1.3104-2.0812 2.6208-3.0062 3.9313-0.2313 0.3083-0.4625 0.6166-0.6938 1.002 0-0.6166-0.0771-1.2333-0.2312-1.85 0-0.0771-0.0771-0.2312-0.1542-0.3083-0.0771-0.3854 0-0.7708 0.1542-1.1562 0.3083-0.4625 0.7708-0.848 1.3104-1.0792-0.0771 0-0.1542 0.0771-0.1542 0.0771-0.5396 0.2312-1.0021 0.5395-1.3104 0.925-0.1542 0.2312-0.2313 0.4625-0.3083 0.6937 0 0 0-0.0771-0.0771-0.0771-0.2313-0.3083-0.5396-0.5395-0.7709-0.7708-0.4625-0.4625-0.925-0.8479-1.4645-1.2333 0 0-0.0771-0.0771-0.1542-0.0771l-0.1542-0.1542c0.5396 0.4625 1.0792 1.0021 1.4646 1.5417 0.2313 0.3083 0.4625 0.5396 0.6167 0.8479 0.1541 0.2312 0.2312 0.4625 0.3083 0.6937-0.0771-0.077-0.0771-0.077-0.1542-0.1541-0.3854-0.2313-0.7708-0.4625-1.2333-0.5396-0.0771 0-0.1542 0-0.2312-0.0771-0.6938-0.1542-1.4646-0.0771-2.1584 0.1542-0.0771 0-0.1541 0.0771-0.2312 0.0771 0.0771 0.0771 0 0.0771 0 0.0771 0.8479-0.3855 1.85-0.3855 2.6208-0.0771 0.3854 0.1541 0.7708 0.3854 1.0792 0.6166 0.2312 0.1542 0.4625 0.4625 0.5396 0.6938 0 0.4625 0 0.925-0.0771 1.3875-0.0771 0.3083-0.0771 0.6937-0.1542 1.0021v0.1541l-0.0771 0.3855c-0.0771 0.1541-0.2312 0.3083-0.3083 0.4625-0.6167 1.002-1.3875 2.0041-2.3125 2.9291-0.7708 0.8479-1.6188 1.6188-2.5438 2.3896-1.1562 1.0021-2.3125 1.9271-3.5458 2.775l1.2333 1.2333c1.773-1.3104 3.3146-2.775 4.7792-4.2395 0.2313-0.1542 0.5396-0.3084 0.7708-0.4625 1.0792-0.6167 2.3125-1.1563 3.5459-1.4646 0.5396-0.1542 1.1562-0.2313 1.6958-0.3084h0.1542c0.3854 0.0771 0.8479 0.3084 1.1562 0.5396l0.2313 0.2313c0.3083 0.3083 0.5396 0.6166 0.4625 1.0021 0-0.0771 0.0771-0.0771 0.0771-0.1542z" fill="#DC8B00"/>
</svg>