<?xml version="1.0" encoding="UTF-8"?>
<svg fill="none" viewBox="0 0 48 48" xmlns="http://www.w3.org/2000/svg">
<path d="m24 4.326c6.408 0 7.168 0.024 9.7 0.14 6.504 0.296 9.542 3.382 9.838 9.838 0.116 2.53 0.138 3.29 0.138 9.698 0 6.41-0.024 7.168-0.138 9.698-0.298 6.45-3.328 9.542-9.838 9.838-2.532 0.116-3.288 0.14-9.7 0.14-6.408 0-7.168-0.024-9.698-0.14-6.52-0.298-9.542-3.398-9.838-9.84-0.116-2.53-0.14-3.288-0.14-9.698 0-6.408 0.026-7.166 0.14-9.698 0.298-6.454 3.328-9.542 9.838-9.838 2.532-0.114 3.29-0.138 9.698-0.138zm0-4.326c-6.518 0-7.334 0.028-9.894 0.144-8.716 0.4-13.56 5.236-13.96 13.96-0.118 2.562-0.146 3.378-0.146 9.896s0.028 7.336 0.144 9.896c0.4 8.716 5.236 13.56 13.96 13.96 2.562 0.116 3.378 0.144 9.896 0.144s7.336-0.028 9.896-0.144c8.708-0.4 13.564-5.236 13.958-13.96 0.118-2.56 0.146-3.378 0.146-9.896s-0.028-7.334-0.144-9.894c-0.392-8.708-5.234-13.56-13.958-13.96-2.562-0.118-3.38-0.146-9.898-0.146zm0 11.676c-6.806 0-12.324 5.518-12.324 12.324s5.518 12.326 12.324 12.326 12.324-5.518 12.324-12.326c0-6.806-5.518-12.324-12.324-12.324zm0 20.324c-4.418 0-8-3.58-8-8 0-4.418 3.582-8 8-8s8 3.582 8 8c0 4.42-3.582 8-8 8zm12.812-23.69c-1.592 0-2.882 1.29-2.882 2.88s1.29 2.88 2.882 2.88c1.59 0 2.878-1.29 2.878-2.88s-1.288-2.88-2.878-2.88z" fill="#DC8B00"/>
</svg>
