<?xml version="1.0" encoding="UTF-8"?>
<svg fill="none" viewBox="0 0 78 112" xmlns="http://www.w3.org/2000/svg">
<path d="m37.279 1.4479-27.75 11.345-4.3167 19.919 25.36 78.289 46.712-19.139-25.36-78.289-14.646-12.124zm-10.792 16.541c-1.0021 0.433-2.0812-0.1732-2.4666-1.2991-0.3855-1.1258 0.1541-2.3382 1.1562-2.7713 1.0021-0.433 2.0813 0.1732 2.4667 1.2991 0.3854 1.1258-0.1542 2.4248-1.1563 2.7713z" fill="#DC8B00" stroke="#212121" stroke-miterlimit="10"/>
<path d="m39.129 3.4397-29.06 5.7158-7.323 18.706 12.873 82.099 48.948-9.7-12.873-82.012-12.565-14.809zm-13.181 14.289c-1.0791 0.1732-2.0812-0.6062-2.2354-1.732-0.1542-1.2125 0.5396-2.3383 1.5417-2.5115 1.0791-0.1732 2.0812 0.6062 2.2354 1.732 0.2312 1.1259-0.4625 2.2517-1.5417 2.5115z" fill="#DC8B00" stroke="#212121" stroke-miterlimit="10"/>
<path d="m40.902 6.5575h-29.523l-10.098 17.061v83.312h49.719v-83.312l-10.098-17.061zm-15.185 11.432c-1.0792 0-1.9271-0.9526-1.9271-2.165 0-1.2125 0.8479-2.1651 1.9271-2.1651 1.0791 0 1.9271 0.9526 1.9271 2.1651 0 1.2124-0.848 2.165-1.9271 2.165z" fill="#DC8B00" stroke="#212121" stroke-miterlimit="10"/>
<path d="m33.502 77.139c-3.3146-9.9593-15.802-22.257-15.802-22.257s-4.7021 18.186-3.3146 24.942c1.0021 4.8498 4.0083 9.0067 6.475 10.479 3.0833 1.9053 7.8625 3.8972 7.8625 3.8972s7.4771-9.1799 4.7792-17.061z" fill="#212121" stroke="#DC8B00" stroke-miterlimit="10"/>
<path d="m31.729 82.594c-0.1542-0.1732-0.3083-0.2598-0.5396-0.3464-0.0771 0-0.2312-0.0866-0.3083-0.0866h-0.3854c-0.2313 0-0.4625 0-0.6938 0.0866 0.4625-0.6062 1.0021-1.0393 1.6959-1.2125-0.6938 0.0866-1.3875 0.4331-1.85 1.0393-0.3084 0.3464-0.5396 0.6062-0.7709 1.0392v-0.433c0-0.3464-0.1541-0.6928-0.3854-0.9526-0.1542-0.2598-0.3854-0.5197-0.6167-0.6929 0.2313 0.2598 0.3855 0.5197 0.5396 0.7795 0.1542 0.2598 0.2313 0.6062 0.1542 0.866 0 0.433-0.1542 0.866-0.2313 1.299-0.077 0.1732-0.077 0.3464-0.1541 0.5196-0.2313 0.5197-0.3854 1.0393-0.5396 1.5589-0.3083-0.9526-0.7708-1.9919-1.2333-2.8579-0.6167-1.0392-1.1563-2.0785-1.6188-3.2043-0.4625-0.9526-0.925-1.9918-1.3104-3.0311-0.1542-0.3464-0.3083-0.6928-0.4625-1.1258 0-0.1732-0.0771-0.2598-0.0771-0.433-0.0771-0.9526-0.0771-1.9053 0.2313-2.7713 0.1541-0.5196 0.4625-0.866 0.925-1.299 0.3854-0.3464 0.8479-0.6929 1.3104-0.7795v-0.0866c-0.5396 0-1.0021 0.3464-1.4646 0.6929-0.1542 0.0866-0.3083 0.1732-0.3854 0.3464 0-0.1732 0.0771-0.433 0-0.6062-0.0771-0.4331-0.3083-0.8661-0.5396-1.2125 0 0 0 0.0866 0.0771 0.0866 0.2312 0.3464 0.3854 0.6928 0.3854 1.1259 0 0.3464-0.0771 0.6928-0.2312 0.9526 0 0.0866-0.0771 0.0866-0.0771 0.0866v0.0866c-0.0771 0.0866-0.1542 0.2598-0.2313 0.433-0.1541 0.433-0.3083 0.866-0.3854 1.299 0 0.1732 0 0.2598-0.0771 0.433v0.1733c-0.1541-0.3465-0.2312-0.6929-0.3854-1.1259-0.7708-2.2516-1.4646-4.5033-1.7729-6.8416v-0.2598h-0.0771c0.0771 1.2124 0.2313 2.3383 0.4625 3.5507-0.1542-0.1732-0.2312-0.2598-0.4625-0.3464-0.3854-0.1732-0.7708-0.2598-1.1562-0.1732v0.0866h0.077c0.3855 0 0.6938 0 1.0021 0.2598 0.2313 0.1732 0.4625 0.433 0.6167 0.7794 0.2312 1.0393 0.5396 2.0785 0.8479 3.1177 0.2313 0.8661 0.4625 1.6455 0.7708 2.5115v0.0866c0.4625 1.4722 1.0021 2.9445 1.6188 4.4167 0.1542 0.3464 0.3083 0.6928 0.4625 1.0393-0.4625-0.3465-1.0021-0.6929-1.5417-1.0393-0.0771-0.0866-0.2312-0.0866-0.3083-0.0866-0.3083-0.1732-0.6167-0.433-0.7708-0.7794-0.2313-0.433-0.2313-1.0392-0.2313-1.5588v0.1732c-0.0771 0.433-0.0771 0.9526 0.0771 1.4722 0.0771 0.2598 0.2312 0.433 0.3854 0.6062h-0.0771-1.0021c-0.5395 0.0866-1.0791 0.0866-1.6958 0.2598h-0.1542-0.1541c0.6166-0.0866 1.3104-0.0866 1.9271 0 0.3083 0 0.6166 0 1.002 0.0866 0.2313 0 0.4625 0.1732 0.6938 0.2598h-0.1542c-0.3854 0.0866-0.6937 0.2598-1.0021 0.4331-0.077 0-0.077 0.0866-0.1541 0.0866-0.4625 0.3464-0.7709 0.9526-0.925 1.5588v0.1732 0.1732c0.1541-0.7794 0.6166-1.4722 1.2333-1.8186 0.3083-0.1733 0.6167-0.2599 1.0021-0.3465 0.2312 0 0.5396 0 0.7708 0.0867 0.3854 0.2598 0.6938 0.6062 1.0021 0.866 0.2313 0.2598 0.4625 0.5196 0.6938 0.6928l0.077 0.0866 0.2313 0.2598c0.0771 0.1732 0.1542 0.3464 0.2312 0.5196 0.5396 1.0392 0.925 2.1651 1.1563 3.2909 0.2312 1.0392 0.4625 2.0785 0.6166 3.1177 0.2313 1.299 0.3084 2.6847 0.3855 3.9837l1.5416-0.1732c-0.2312-1.9918-0.5396-3.8971-1.0021-5.7157v-0.7795c0.0771-1.1258 0.2313-2.165 0.6167-3.2043 0.1542-0.433 0.3854-0.866 0.6167-1.299l0.0771-0.0866c0.2312-0.2598 0.6166-0.3464 1.002-0.433h0.3084c0.3854 0 0.7708 0.0866 1.0021 0.3464-0.1542 0-0.1542-0.0866-0.2313-0.0866z" fill="#DC8B00"/>
<path d="m40.979 93.68c4.2396-4.59 7.4771-15.675 7.4771-15.675s-10.406 1.3857-13.567 3.9837c-2.2354 1.8187-3.6229 4.8498-3.7771 6.755-0.2312 2.5115-0.0771 6.0622-0.0771 6.0622s6.5521 2.5115 9.9438-1.1258z" fill="#212121" stroke="#DC8B00" stroke-miterlimit="10"/>
<path d="m43.138 82.508c0.0771-0.0866 0.1542-0.0866 0.2313-0.1732-0.5396 0.2598-1.0792 0.6928-1.6188 1.0392v-0.2598c0-0.2598-0.0771-0.6062-0.2312-0.7794v0.0866c0.077 0.2598 0.1541 0.433 0.077 0.6928 0 0.1732-0.077 0.3464-0.2312 0.5196-0.4625 0.433-1.0021 0.8661-1.4646 1.2991-0.3854 0.3464-0.6937 0.6928-1.0792 1.0392h-0.077c-0.6938 0.6928-1.3105 1.3856-1.9271 2.0785 0 0.0866-0.0771 0.0866-0.1542 0.1732 0-0.2598 0.0771-0.5196 0-0.7795v-0.0866-0.1732c0-0.2598 0.0771-0.433 0.1542-0.6928 0.1541-0.2598 0.3854-0.433 0.6937-0.5196h-0.0771c-0.3083 0.0866-0.5395 0.1732-0.7708 0.433-0.0771 0.0866-0.1542 0.1732-0.2312 0.3464-0.0771-0.1732-0.1542-0.433-0.2313-0.6062-0.1542-0.3464-0.3854-0.7794-0.6167-1.1258v-0.0866c0.1542 0.433 0.3084 0.866 0.4625 1.2124 0.0771 0.2598 0.1542 0.433 0.1542 0.6928v0.2598c-0.1542-0.1732-0.3083-0.3464-0.4625-0.433-0.0771 0-0.0771-0.0866-0.1542-0.0866-0.3083-0.1732-0.6937-0.2598-1.0791-0.1732h-0.1542c0.4625-0.0866 0.8479 0.0866 1.1563 0.3464 0.1541 0.1732 0.2312 0.3464 0.3083 0.5196 0.0771 0.1733 0.0771 0.2599 0.1542 0.4331-0.0771 0.3464-0.1542 0.6062-0.2313 0.9526 0 0.1732-0.0771 0.2598-0.1542 0.3464 0 0.0866-0.077 0.1732-0.077 0.2598l-0.0771 0.1732c-0.0771 0.0866-0.1542 0.2598-0.3084 0.3464-0.3854 0.5196-0.8479 1.0393-1.3875 1.4723-1.002 0.866-2.2354 1.732-3.3916 2.3382l0.3854 0.7795 0.3854 0.7794c1.0021-0.6928 1.9271-1.3857 2.775-2.2517 0.2313-0.0866 0.3854-0.1732 0.6167-0.2598 0.4625-0.1732 0.925-0.2598 1.3875-0.3464h0.7708c0.0771 0 0.0771 0.0866 0.1542 0.0866 0.1541 0.0866 0.3083 0.2598 0.3854 0.433 0 0.0866 0.0771 0.0866 0.0771 0.1732 0.0771 0.2598 0.1541 0.5196 0.0771 0.7794 0.077-0.2598 0.077-0.433 0.077-0.6928 0-0.0866-0.077-0.1732-0.077-0.2598s-0.0771-0.1732-0.1542-0.2598c0.3083 0.0866 0.6937 0.3464 0.925 0.6928-0.2313-0.433-0.5396-0.7794-1.0021-1.0392-0.1542-0.0866-0.3083-0.1732-0.5396-0.2598h0.0771c0.2313-0.0866 0.3083-0.3464 0.3854-0.5196s0.1542-0.433 0.1542-0.6062c-0.0771 0.1732-0.1542 0.3464-0.3083 0.5196-0.1542 0.1732-0.2313 0.2598-0.3855 0.2598-0.1541 0.0866-0.3083 0.0866-0.5395 0.0866h-0.4625-0.4625c0.3083-0.3464 0.6166-0.7794 0.8479-1.2125 0.3854-0.6928 0.7708-1.2124 1.1562-1.8186 0.5396-0.6928 1.0792-1.4723 1.6188-2.1651 0.0771-0.0866 0.2312-0.1732 0.3083-0.2598 0.3854-0.2598 0.8479-0.433 1.3104-0.5196 0.3084 0 0.5396 0.0866 0.8479 0.2598 0.2313 0.1732 0.5396 0.3464 0.6938 0.6062-0.1542-0.3464-0.3854-0.6062-0.6938-0.7794-0.077 0-0.077-0.0866-0.1541-0.1732 0.0771 0 0.1541-0.0866 0.2312-0.0866 0.2313-0.1732 0.3854-0.433 0.4625-0.6928v0.0866c-0.0771 0.1732-0.2312 0.3464-0.4625 0.433-0.1541 0.0866-0.3083 0.0866-0.4625 0.0866h-0.0771c-0.1541-0.0866-0.2312-0.0866-0.3854-0.0866-0.2312 0-0.4625 0-0.6937 0.0866h-0.1542c0.0771-0.0866 0.1542-0.1732 0.2313-0.2598 1.4645-0.9526 2.3895-1.9053 3.4687-2.6847z" fill="#DC8B00"/>
<path d="m22.633 86.492c-6.3979-3.5507-18.885-3.1177-18.885-3.1177s5.7042 12.731 9.5584 15.588c2.6979 2.0786 6.3208 2.5976 8.325 2.0786 2.6208-0.78 6.0895-2.3384 6.0895-2.3384s0-9.4397-5.0875-12.211z" fill="#212121" stroke="#DC8B00" stroke-miterlimit="10"/>
<path d="m24.792 95.412c-0.1542-0.1732-0.3083-0.3464-0.4625-0.5196-0.3854-0.6062-0.7708-1.2124-1.0021-1.8187-0.1541-0.3464-0.2312-0.6928-0.3083-1.0392v-0.1732c0.0771-0.2598 0.1542-0.5196 0.3083-0.6928 0.0771-0.0866 0.0771-0.0866 0.1542-0.1732 0.1542-0.2598 0.3854-0.433 0.6937-0.433h-0.1541c-0.2313 0-0.3854 0.0866-0.5396 0.2598-0.0771 0.0866-0.1542 0.0866-0.2313 0.1732-0.077 0.0866-0.2312 0.2598-0.3083 0.3464 0-0.5196 0.0771-1.0392 0.3083-1.5589-0.3854 0.4331-0.5395 1.0393-0.6166 1.6455v0.866l-0.0771-0.0866c-0.1542-0.1732-0.4625-0.2598-0.6938-0.3464h-0.6937c0.2312 0 0.4625 0.0866 0.6167 0.1732 0.2312 0.0866 0.3854 0.1732 0.4625 0.433 0.1541 0.1732 0.2312 0.433 0.3854 0.6928 0.0771 0.1732 0.1541 0.3464 0.1541 0.4331 0.0771 0.2598 0.1542 0.6062 0.3084 0.866-0.5396-0.2598-1.1563-0.5196-1.7729-0.6928-0.7709-0.2598-1.5417-0.4331-2.3125-0.7795-0.925-0.3464-1.85-0.7794-2.775-1.2124-0.0771-0.0866-0.2313-0.1732-0.3084-0.3464-0.4625-0.433-0.8479-0.9526-1.0791-1.5588-0.1542-0.3465-0.1542-0.7795-0.0771-1.2125s0.1541-0.866 0.3083-1.1258c-0.3083 0.3464-0.3854 0.7794-0.5396 1.2124 0 0.0866-0.0771 0.2598-0.0771 0.3464-0.077-0.0866-0.1541-0.1732-0.2312-0.2598-0.2313-0.2598-0.5396-0.3464-0.8479-0.3464v0.0866h0.0771c0.2312 0.0866 0.5395 0.1732 0.6937 0.3464s0.2313 0.3464 0.3083 0.6062v0.0866c0 0.1732 0 0.3465 0.0771 0.4331 0.0771 0.3464 0.2313 0.6062 0.3854 0.866 0 0.0866 0.0771 0.1732 0.1542 0.2598-0.1542-0.0866-0.3854-0.1732-0.5396-0.2598-1.3875-0.7794-2.8521-1.5589-4.0854-2.6847-0.0771 0-0.1542-0.0866-0.1542-0.1732 0.5396 0.6062 1.1563 1.1258 1.773 1.6454-0.0771 0-0.2313 0-0.3084 0.0866-0.3083 0.0866-0.5396 0.3465-0.6937 0.6063l0.0771-0.0866c0.1541-0.1732 0.3854-0.3464 0.6166-0.433 0.2313-0.0867 0.3854 0 0.6167 0.0866h0.0771c0.6166 0.433 1.2333 0.866 1.9271 1.299 0.5395 0.3464 1.002 0.6062 1.5416 0.9526 0.925 0.5196 1.9271 1.0392 2.9292 1.5589 0.1542 0.0866 0.3083 0.1732 0.4625 0.1732-0.3854 0.0866-0.6938 0.1732-1.0021 0.3464-0.0771 0-0.2312 0.0866-0.3083 0.1732l-1.6188-0.6928s0.0771 0.0866 0.1542 0.1732c0.1542 0.2598 0.3854 0.5196 0.6167 0.6928 0.1541 0.0866 0.3083 0.0866 0.3854 0.0866-0.1542 0.1732-0.3854 0.3464-0.5396 0.6062-0.3083 0.3464-0.6167 0.7794-0.8479 1.2124l-0.0771 0.0866c0.3083-0.433 0.6937-0.7794 1.0792-1.1258 0.1541-0.1732 0.3854-0.3464 0.6166-0.5196 0.1542-0.0866 0.2313-0.1732 0.3854-0.1732-0.1541 0.2598-0.3083 0.5196-0.3854 0.866v0.1732c-0.0771 0.5196 0 1.0392 0.2313 1.3857 0 0.0866 0.0771 0.0866 0.0771 0.1732-0.3084-0.5197-0.3084-1.1259-0.1542-1.6455 0.0771-0.2598 0.2312-0.5196 0.3854-0.6928s0.2313-0.3464 0.3854-0.3464c0.3084-0.0866 0.6938-0.0866 1.0021-0.0866h0.6167 0.3083c0.1542 0.0866 0.3083 0.0866 0.4625 0.1732 0.1542 0 0.2313 0.0866 0.3854 0.1732l2.4667 1.4722c1.0792 0.8661 2.1583 1.8187 3.0833 2.8579l1.0792-1.2124c-1.0792-1.0392-2.1583-1.9053-3.3146-2.6847z" fill="#DC8B00"/>
<path d="m18.933 38.427 1.8501-0.1732h11.177v1.0392h-13.027v-0.866zm0 3.4641 1.8501-0.1732h11.177v1.0392h-13.027v-0.866zm1.6959 4.0703c0-6.0621 8.0937-6.6684 8.0937-11.345 0-1.8186-1.3104-3.2909-3.3916-3.2909-1.7729 0-2.6209 0.6928-3.7771 2.1651l-0.7708-0.866c1.1562-1.4723 2.3895-2.5115 4.5479-2.5115 2.6979 0 4.7021 1.9052 4.7021 4.5899 0 5.3694-8.0938 5.9756-8.0938 11.345 0 2.0785 1.4646 3.5507 4.0854 3.5507 1.9271 0 3.2375-1.1258 4.3938-2.5114l0.6937 0.9526c-1.2333 1.4722-3.0062 2.6847-5.0875 2.6847-3.0062 0.0866-5.3958-1.6455-5.3958-4.7632z" fill="#000"/>
<path d="m28.569 4.9986c0.0771-1.4722 0.0771-2.9445 0.0771-4.5033" stroke="#9D917C" stroke-miterlimit="10" stroke-width="2"/>
<path d="m22.71 0.49524c0 8.1406 1.4646 14.722 3.1605 14.722 0.3083 0 0.6166-0.3464 0.925-0.6929" stroke="#9D917C" stroke-miterlimit="10" stroke-width="2"/>
</svg>