<?xml version="1.0" encoding="UTF-8"?>
<svg viewBox="0 0 111 111" xmlns="http://www.w3.org/2000/svg">
<path d="m33.377 42.242c-0.4625-12.873-11.717-32.529-11.717-32.529s-13.104 18.731-13.952 27.133c-0.61666 5.9355 1.6958 12.102 4.2396 14.954 3.2375 3.5458 8.5562 7.9396 8.5562 7.9396s13.258-7.2458 12.873-17.498z" fill="#DC8B00" stroke="#212121" stroke-miterlimit="10"/>
<path d="m20.273 59.431s2.1583-8.0167 0.8479-13.644c-1.4646-6.2437-1.85-18.038-0.6167-22.123" fill="#DC8B00"/>
<path d="m19.502 59.2c0.7708-2.8521 1.3104-5.7812 1.3875-8.7104 0.0771-1.4646 0-2.9292-0.2313-4.3937-0.3083-1.4646-0.5396-3.0063-0.6937-4.4709-0.3084-3.0062-0.4625-6.0125-0.4625-9.0187 0-1.5417 0.0771-3.0063 0.1541-4.5479 0.1542-1.4646 0.3084-3.0063 0.7709-4.4709h0.0771c-0.3855 1.4646-0.4625 2.9292-0.5396 4.4709-0.0771 1.4645-0.0771 3.0062 0 4.4708 0.0771 3.0062 0.3854 6.0125 0.7708 8.9417 0.2313 1.4645 0.4625 2.9291 0.8479 4.3937 0.3854 1.5417 0.4625 3.0833 0.4625 4.625 0 3.0833-0.3854 6.0896-1.0791 9.0958l-1.4646-0.3854z" fill="#212121"/>
<path d="m19.888 35.998s0.7708-3.7771 2.852-4.5479c1.9271-0.7709 2.698-0.4625 2.698-0.4625" fill="#DC8B00"/>
<path d="m19.579 35.921c0.1542-0.6937 0.4625-1.3875 0.6938-2.0041 0.3083-0.6167 0.6937-1.2334 1.1562-1.7729 0.2313-0.2313 0.5396-0.4626 0.8479-0.6938 0.3084-0.1542 0.6938-0.2313 1.0021-0.3854 0.6938-0.1542 1.3875-0.3084 2.0813-0.1542v0.0771c-0.6938-0.1542-1.3875 0.0771-2.0042 0.3083-0.6938 0.2313-1.2333 0.5396-1.6958 1.0792-0.848 1.0021-1.3105 2.3896-1.5417 3.7l-0.5396-0.1542z" fill="#212121"/>
<path d="m21.121 45.788c-0.0771-0.5396-2.4667-4.4708-3.8542-5.0875-1.7729-0.8479-4.0083-1.2333-4.0083-1.2333" fill="#DC8B00"/>
<path d="m20.658 45.865c0-0.0771-0.1542-0.3083-0.2313-0.5396-0.0771-0.2312-0.1542-0.3854-0.3083-0.6167-0.2313-0.3854-0.3854-0.7708-0.6167-1.1562-0.4625-0.7708-0.925-1.4646-1.5417-2.1583-0.3083-0.3084-0.6166-0.6167-1.002-0.7709-0.3855-0.2312-0.7709-0.3854-1.2334-0.5396-0.8479-0.3083-1.6958-0.5395-2.5437-0.7708 0.8479 0.1542 1.7729 0.3083 2.6208 0.6167 0.4625 0.1541 0.8479 0.2312 1.3104 0.4625 0.4625 0.1541 0.8479 0.4625 1.1563 0.7708 0.6937 0.6167 1.2333 1.3104 1.7729 2.0813 0.2312 0.3854 0.5396 0.7708 0.7708 1.1562 0.1542 0.1542 0.2313 0.3854 0.3854 0.6167 0.1542 0.2312 0.2313 0.3854 0.3084 0.6937l-0.8479 0.1542z" fill="#212121"/>
<path d="m21.352 52.802c1.2333-3.1604 2.775-5.0104 4.625-6.1666 1.85-1.1563 3.3145-0.848 3.3145-0.848" fill="#DC8B00"/>
<path d="m20.89 52.571c0.7709-1.7729 1.85-3.4687 3.2375-4.7792 0.6938-0.6937 1.4646-1.2333 2.3896-1.6187 0.8479-0.3854 1.85-0.6167 2.775-0.3854-0.925-0.1542-1.85 0.1541-2.6979 0.6166-0.7708 0.4625-1.4646 1.0792-2.0813 1.773-1.2333 1.3875-2.0041 3.0833-2.6208 4.7791l-1.0021-0.3854z" fill="#212121"/>
<path d="m18.04 41.24s-0.8479-0.7708-0.925-1.6958 0.4625-1.85 0.4625-1.85" fill="#DC8B00"/>
<path d="m17.96 41.317c-0.2313-0.2313-0.4625-0.5396-0.6167-0.8479-0.1541-0.3083-0.2312-0.6167-0.3083-0.925 0-0.6938 0.1542-1.3104 0.5396-1.85-0.3084 0.5396-0.4625 1.2333-0.3854 1.85 0.077 0.6167 0.4625 1.1562 0.925 1.5417l-0.1542 0.2312z" fill="#212121"/>
<path d="m18.808 42.168c-0.5396-0.6166-2.0041-0.8479-3.0833-0.4625-1.3875 0.4625-1.85 1.5417-1.85 1.5417" fill="#DC8B00"/>
<path d="m18.654 42.319c-0.2313-0.3083-0.6938-0.4625-1.1563-0.5396s-0.925-0.0771-1.3875 0c-0.925 0.1542-1.7729 0.6938-2.2354 1.5417 0.3854-0.8479 1.2333-1.5417 2.2354-1.7729 0.4625-0.0771 1.0021-0.1542 1.4646-0.0771s1.0021 0.2312 1.3875 0.6167l-0.3083 0.2312z" fill="#212121"/>
<path d="m23.896 48.486s1.2333-1.7729 1.2333-2.6979-0.5396-1.773-0.5396-1.773" fill="#DC8B00"/>
<path d="m23.588 48.331c0.4625-0.6167 0.925-1.3104 1.2334-2.0042 0.1541-0.3854 0.1541-0.7708 0.077-1.1562s-0.2312-0.7708-0.3854-1.1563c0.2313 0.3084 0.3854 0.6938 0.5396 1.0792s0.1542 0.8479 0.0771 1.2333c-0.2313 0.848-0.6167 1.5417-1.0021 2.3125l-0.5396-0.3083z" fill="#212121"/>
<path d="m25.669 46.867c1.0021-0.4625 3.0833 0.0771 3.3917 1.0021l-3.3917-1.0021z" fill="#DC8B00"/>
<path d="m25.514 46.712c0.6938-0.2313 1.3875-0.1542 2.0042 0 0.3083 0.0771 0.6167 0.2312 0.8479 0.4625 0.2313 0.1542 0.5396 0.4625 0.6167 0.7708-0.1542-0.3083-0.3854-0.4625-0.6938-0.6166-0.3083-0.1542-0.5396-0.2313-0.8479-0.3084-0.6167-0.1542-1.3104-0.1542-1.7729 0.1542l-0.1542-0.4625z" fill="#212121"/>
<path d="m22.662 28.983c0.4625 1.1563 0.2312 2.0813-0.6937 2.8521l0.6937-2.8521z" fill="#DC8B00"/>
<path d="m22.74 28.983c0.2312 0.4625 0.3083 1.0021 0.2312 1.5417s-0.4625 1.0021-0.8479 1.3875l-0.1541-0.2312c0.3854-0.3084 0.6937-0.7709 0.8479-1.2334 0.077-0.4625 0-1.0021-0.0771-1.4646z" fill="#212121"/>
<path d="m17.806 26.594c1.2333 0.2312 1.85 1.002 2.0041 2.1583l-2.0041-2.1583z" fill="#DC8B00"/>
<path d="m17.806 26.594c0.5396 0.077 1.0021 0.3083 1.3875 0.6937s0.6166 0.925 0.6937 1.4646h-0.2312c-0.0771-0.5396-0.2313-1.0021-0.5396-1.3875s-0.7708-0.6167-1.3104-0.7708z" fill="#212121"/>
<path d="m80.475 86.41c-0.4625-14.415-13.104-36.383-13.104-36.383s-14.723 21.044-15.725 30.448c-0.6938 6.7063 1.85 13.567 4.7792 16.727 3.6229 4.0079 9.6354 8.8649 9.6354 8.8649s14.8-8.1712 14.415-19.657z" fill="#DC8B00" stroke="#212121" stroke-miterlimit="10"/>
<path d="m65.752 105.6s2.3896-8.9414 0.925-15.185c-1.6188-7.0146-2.0042-20.196-0.6938-24.821" fill="#DC8B00"/>
<path d="m65.058 105.45c0.848-3.16 1.3875-6.475 1.5417-9.7895 0.0771-1.6188 0-3.3146-0.3083-4.9334-0.3084-1.6187-0.6167-3.3146-0.7709-5.0104-0.3854-3.3917-0.5395-6.7062-0.4625-10.098 0-1.6958 0.0771-3.3917 0.2313-5.0875 0.1541-1.6958 0.3083-3.3917 0.8479-5.0104h0.0771c-0.3854 1.6187-0.5396 3.3146-0.6167 5.0104s-0.0771 3.3917 0 5.0104c0.0771 3.3146 0.3854 6.7063 0.8479 10.021 0.2313 1.6959 0.5396 3.3146 0.925 4.9334 0.3855 1.6958 0.5396 3.3916 0.5396 5.1646 0 3.4687-0.4625 6.7835-1.2333 10.174l-1.6188-0.385z" fill="#212121"/>
<path d="m65.367 79.396s0.8479-4.1625 3.1604-5.0875c2.1584-0.8479 3.0834-0.5395 3.0834-0.5395" fill="#DC8B00"/>
<path d="m65.058 79.319c0.2313-0.7708 0.4625-1.5416 0.848-2.2354 0.3083-0.6937 0.7708-1.3875 1.3104-2.0042 0.3083-0.3083 0.6166-0.5395 1.0021-0.7708 0.3854-0.1542 0.7708-0.3083 1.1562-0.3854 0.7708-0.1542 1.5417-0.3854 2.3125-0.1542v0.0771c-0.7708-0.1541-1.5417 0.0771-2.2354 0.3083-0.7708 0.2313-1.3875 0.5396-1.9271 1.1563-0.925 1.1562-1.4646 2.6979-1.7729 4.1625l-0.6938-0.1542z" fill="#212121"/>
<path d="m66.677 90.419c-0.0771-0.6166-2.775-5.0104-4.2396-5.7041-2.0041-0.925-4.5479-1.3876-4.5479-1.3876" fill="#DC8B00"/>
<path d="m66.295 90.496c0-0.0771-0.1542-0.3854-0.2313-0.5396-0.077-0.2312-0.2312-0.4625-0.3083-0.6166-0.2312-0.4625-0.4625-0.848-0.7708-1.3105-0.5396-0.8479-1.0792-1.6187-1.6958-2.3895-0.3084-0.3855-0.6938-0.6938-1.0792-0.848-0.4625-0.2312-0.925-0.3854-1.3875-0.6166-0.925-0.3855-1.85-0.6167-2.8521-0.848 1.0021 0.1542 1.9271 0.3855 2.9292 0.6938 0.4625 0.1542 0.925 0.3083 1.3875 0.4625s0.925 0.5396 1.3104 0.8479c0.6937 0.6938 1.3875 1.5417 1.9271 2.3125 0.3083 0.3854 0.5396 0.848 0.8479 1.2334 0.1542 0.2312 0.2312 0.4625 0.3854 0.6166 0.1542 0.2313 0.2313 0.3855 0.3854 0.7709l-0.8479 0.2312z" fill="#212121"/>
<path d="m67.062 98.204c1.3875-3.4687 3.1604-5.55 5.1646-6.9375 2.0041-1.3875 3.7-0.925 3.7-0.925" fill="#DC8B00"/>
<path d="m66.523 97.973c0.925-1.9271 2.0042-3.8542 3.623-5.3188 0.7708-0.7708 1.6958-1.3875 2.6208-1.85 1.0021-0.4625 2.0812-0.6938 3.1604-0.4625-1.0792-0.1542-2.0812 0.1542-3.0062 0.6937-0.925 0.5396-1.6959 1.2334-2.3896 2.0042-1.3875 1.5417-2.3125 3.3917-3.0063 5.3959l-1.0021-0.4625z" fill="#212121"/>
<path d="m63.288 85.254s-0.9249-0.8479-1.002-1.9271c-0.0771-1.0791 0.4625-2.0041 0.4625-2.0041" fill="#DC8B00"/>
<path d="m63.208 85.408c-0.3083-0.3083-0.4625-0.5396-0.6938-0.925-0.1541-0.3083-0.3083-0.6937-0.3083-1.0792-0.0771-0.7708 0.2312-1.4646 0.5396-2.0812-0.3084 0.6166-0.5396 1.3875-0.3854 2.0812 0.077 0.6938 0.5396 1.3105 1.0791 1.773l-0.2312 0.2312z" fill="#212121"/>
<path d="m64.133 86.336c-0.6167-0.6938-2.2355-0.925-3.4688-0.5396-1.5417 0.4625-2.0812 1.7729-2.0812 1.7729" fill="#DC8B00"/>
<path d="m63.979 86.488c-0.3084-0.3083-0.8479-0.5395-1.3104-0.6166-0.5396-0.0771-1.0021-0.0771-1.5417 0-1.0021 0.1541-2.0042 0.7708-2.5437 1.7729 0.4625-1.0021 1.3874-1.6958 2.4666-1.9271 0.5396-0.1542 1.0792-0.1542 1.6188-0.0771 0.5395 0.0771 1.0791 0.2313 1.5416 0.6938l-0.2312 0.1541z" fill="#212121"/>
<path d="m69.837 93.425s1.3875-2.0042 1.3875-3.0063c0-1.0791-0.6167-2.0041-0.6167-2.0041" fill="#DC8B00"/>
<path d="m69.606 93.194c0.5396-0.6938 1.0791-1.4646 1.3875-2.2354 0.1541-0.3855 0.1541-0.848 0.0771-1.3105-0.0771-0.4625-0.2313-0.8479-0.4625-1.3104 0.2312 0.3854 0.4625 0.7709 0.5395 1.2334 0.1542 0.4625 0.2313 0.925 0.0771 1.3875-0.1541 0.4625-0.3083 0.925-0.5396 1.3104-0.2312 0.3854-0.3854 0.8479-0.6937 1.2333l-0.3854-0.3083z" fill="#212121"/>
<path d="m71.767 91.578c1.1563-0.5395 3.3917 0.0771 3.8542 1.1563l-3.8542-1.1563z" fill="#DC8B00"/>
<path d="m71.688 91.421c0.3854-0.1542 0.7708-0.1542 1.1563-0.1542 0.3854 0 0.7708 0.0771 1.0791 0.2313 0.3854 0.0771 0.6938 0.2312 1.0021 0.4625 0.3083 0.2312 0.5396 0.4625 0.6938 0.8479-0.1542-0.3083-0.4625-0.5396-0.7709-0.7708-0.3083-0.1542-0.6166-0.3084-1.0021-0.3855-0.6937-0.1541-1.4646-0.1541-2.0041 0.1542l-0.1542-0.3854z" fill="#212121"/>
<path d="m68.53 71.533c0.5396 1.3104 0.2313 2.3125-0.7708 3.1604l0.7708-3.1604z" fill="#DC8B00"/>
<path d="m68.527 71.533c0.2312 0.5396 0.3854 1.1563 0.2312 1.773-0.1541 0.6166-0.4624 1.1562-0.9249 1.5416l-0.1542-0.2312c0.4625-0.3854 0.7708-0.8479 0.925-1.3875 0.1541-0.5396 0.0771-1.1563-0.0771-1.6959z" fill="#212121"/>
<path d="m63.054 68.913c1.3875 0.3083 2.0812 1.0792 2.2354 2.3896l-2.2354-2.3896z" fill="#DC8B00"/>
<path d="m63.054 68.913c0.6166 0.0771 1.1562 0.3083 1.6187 0.7708s0.6167 1.0021 0.7709 1.6188h-0.2313c-0.0771-0.5396-0.2312-1.1563-0.6167-1.5417-0.4625-0.3854-1.002-0.6167-1.5416-0.8479z" fill="#212121"/>
<path d="m52.571 22.046c0.3084 9.0958 8.325 23.125 8.325 23.125s9.3271-13.336 9.9438-19.271c0.4625-4.2396-1.2333-8.6333-3.0063-10.56-2.3125-2.5437-6.0895-5.6271-6.0895-5.6271s-9.4042 5.0104-9.173 12.333z" fill="#DC8B00" stroke="#212121" stroke-miterlimit="10"/>
<path d="m61.975 9.8667s-1.5417 5.7042-0.6167 9.6354c1.0021 4.4708 1.3104 12.796 0.3854 15.725" fill="#DC8B00"/>
<path d="m62.669 10.098c-0.5396 2.0042-0.925 4.0855-1.0792 6.1667-0.077 1.0021 0 2.0813 0.1542 3.0834 0.2313 1.0791 0.3854 2.1583 0.4625 3.2375 0.2312 2.1583 0.3083 4.3166 0.2313 6.3979-0.0771 2.1583-0.1542 4.3166-0.6938 6.3979h-0.0771c0.4625-2.0813 0.3854-4.2396 0.3084-6.3208-0.0771-2.1584-0.3084-4.2396-0.6167-6.3209-0.1542-1.0791-0.3854-2.0812-0.6167-3.0833-0.2312-1.0792-0.3854-2.2354-0.3854-3.3146 0-2.2354 0.2312-4.3167 0.6937-6.475l1.6188 0.2312z" fill="#212121"/>
<path d="m62.206 26.52s-0.5396 2.6979-2.0042 3.2375c-1.3875 0.5396-1.9271 0.3083-1.9271 0.3083" fill="#DC8B00"/>
<path d="m62.515 26.594c-0.1542 0.5396-0.3083 1.0021-0.5396 1.4646-0.2312 0.4625-0.5396 0.925-0.8479 1.3104-0.3854 0.3854-0.925 0.6167-1.3875 0.6938-0.4625 0.077-1.0021 0.2312-1.4646 0.077v-0.077c0.4625 0.077 0.925-0.0771 1.3875-0.2313s0.8479-0.3854 1.1563-0.7708c0.6166-0.6938 0.925-1.6959 1.0791-2.6209l0.6167 0.1542z" fill="#212121"/>
<path d="m61.358 19.502c0.0771 0.3855 1.7729 3.1605 2.6979 3.623 1.2333 0.6166 2.8521 0.925 2.8521 0.925" fill="#DC8B00"/>
<path d="m61.744 19.425s0.0771 0.2313 0.1542 0.3084l0.2312 0.3854c0.1542 0.3083 0.3083 0.5396 0.4625 0.8479 0.3083 0.5396 0.6938 1.0792 1.0792 1.5417 0.2312 0.2312 0.3854 0.3854 0.6937 0.5396 0.3084 0.1541 0.5396 0.2312 0.8479 0.3854 0.6167 0.2312 1.1563 0.4625 1.773 0.6166-0.6167-0.077-1.2334-0.2312-1.85-0.3854-0.3084-0.0771-0.6167-0.1541-0.925-0.3083-0.3084-0.0771-0.6167-0.3083-0.848-0.5396-0.4625-0.4625-0.925-0.925-1.3104-1.4646-0.2312-0.2312-0.3854-0.5396-0.5395-0.7708l-0.2313-0.3854c-0.0771-0.1542-0.1542-0.2313-0.2313-0.5396l0.6938-0.2313z" fill="#212121"/>
<path d="m61.127 14.569c-0.925 2.2354-2.0042 3.5458-3.3146 4.3937-1.3104 0.848-2.3125 0.5396-2.3125 0.5396" fill="#DC8B00"/>
<path d="m61.67 14.8c-0.6167 1.2334-1.3875 2.4667-2.3896 3.3917-0.5396 0.4625-1.0792 0.8479-1.6959 1.1562-0.6166 0.3084-1.3875 0.3855-2.0041 0.2313 0.6937 0.0771 1.3104-0.1542 1.85-0.4625s1.0021-0.7708 1.4646-1.3104c0.8479-1.0021 1.3875-2.1584 1.7729-3.3917l1.0021 0.3854z" fill="#212121"/>
<path d="m63.517 22.74s0.6167 0.5396 0.6167 1.2334c0.0771 0.6937-0.3083 1.3104-0.3083 1.3104" fill="#DC8B00"/>
<path d="m63.594 22.662c0.3083 0.3855 0.6167 0.7709 0.6167 1.3105 0 0.4625-0.1542 0.925-0.3854 1.3104 0.2312-0.3854 0.3083-0.8479 0.2312-1.3104s-0.3854-0.7709-0.6938-1.0792l0.2313-0.2313z" fill="#212121"/>
<path d="m62.977 22.123c0.3854 0.4625 1.3875 0.6167 2.2354 0.3084 1.0021-0.3084 1.3104-1.0792 1.3104-1.0792" fill="#DC8B00"/>
<path d="m63.131 21.969c0.1542 0.2312 0.4625 0.3083 0.7708 0.3854 0.3084 0.0771 0.6167 0.0771 1.0021 0.0771 0.6167-0.0771 1.2334-0.4625 1.6188-1.0792-0.2313 0.6167-0.8479 1.1563-1.5417 1.3104-0.3083 0.0771-0.6937 0.0771-1.0792 0.0771-0.3854-0.0771-0.6937-0.1542-1.0791-0.4625l0.3083-0.3083z" fill="#212121"/>
<path d="m59.354 17.652s-0.848 1.2333-0.848 1.927c0 0.6938 0.3855 1.3105 0.3855 1.3105" fill="#DC8B00"/>
<path d="m59.586 17.806c-0.3084 0.4625-0.6938 0.925-0.925 1.3875-0.0771 0.2313-0.1542 0.5396-0.0771 0.7709 0.0771 0.3083 0.1541 0.5395 0.2312 0.8479-0.1541-0.2313-0.3083-0.5396-0.3854-0.7709-0.0771-0.3083-0.1542-0.6166-0.0771-0.925 0.1542-0.6166 0.3854-1.1562 0.6938-1.6187l0.5396 0.3083z" fill="#212121"/>
<path d="m58.121 18.731c-0.6937 0.3854-2.1583-0.0771-2.4666-0.6938l2.4666 0.6938z" fill="#DC8B00"/>
<path d="m58.198 18.962c-0.5396 0.1542-1.0021 0.0771-1.4646-0.077-0.4625-0.1542-0.925-0.3855-1.0791-0.848 0.2312 0.3855 0.6937 0.5396 1.0791 0.6938 0.4625 0.0771 0.925 0.0771 1.2334-0.1542l0.2312 0.3854z" fill="#212121"/>
<path d="m60.202 31.45c-0.3083-0.8479-0.1541-1.4646 0.4625-2.0041l-0.4625 2.0041z" fill="#DC8B00"/>
<path d="m60.202 31.45c-0.1542-0.3083-0.2312-0.7708-0.1542-1.1562 0.0771-0.3854 0.3084-0.7709 0.6167-1.0021l0.1542 0.2312c-0.3084 0.2313-0.5396 0.5396-0.6167 0.848-0.1542 0.3854-0.0771 0.7708 0 1.0791z" fill="#212121"/>
<path d="m63.674 33.146c-0.848-0.1542-1.3104-0.6938-1.3875-1.5417l1.3875 1.5417z" fill="#DC8B00"/>
<path d="m63.671 33.146c-0.3854-0.0771-0.7709-0.2313-1.0021-0.4625-0.3083-0.3084-0.4625-0.6938-0.4625-1.0792h0.2312c0.0771 0.3854 0.1542 0.6937 0.3855 1.0021 0.1541 0.2312 0.4625 0.3854 0.8479 0.5396z" fill="#212121"/>
<path d="m11.948 81.169c0.3083 10.098 9.1729 25.514 9.1729 25.514s10.329-14.722 11.023-21.275c0.4625-4.7021-1.3104-9.4812-3.3146-11.717-2.5437-2.775-6.7062-6.2437-6.7062-6.2437s-10.483 5.7042-10.175 13.721z" fill="#DC8B00" stroke="#212121" stroke-miterlimit="10"/>
<path d="m22.277 67.756s-1.6958 6.2438-0.6167 10.638c1.1563 4.9334 1.4646 14.183 0.4625 17.344" fill="#DC8B00"/>
<path d="m22.971 67.91c-0.6166 2.2354-1.0021 4.5479-1.1562 6.8604-0.0771 1.1563 0 2.3125 0.1541 3.3917 0.2313 1.1562 0.3855 2.3896 0.5396 3.5458 0.2313 2.3896 0.3084 4.7021 0.3084 7.0917-0.0771 2.3896-0.1542 4.7792-0.7709 7.0146h-0.0771c0.5396-2.3125 0.4625-4.7021 0.3855-7.0146-0.0771-2.3125-0.3084-4.7021-0.6167-7.0146-0.1542-1.1562-0.3854-2.3125-0.6938-3.3917-0.3083-1.2333-0.3854-2.3895-0.3854-3.6229 0-2.3896 0.3084-4.7791 0.8479-7.1687l1.4646 0.3083z" fill="#212121"/>
<path d="m22.508 86.105s-0.6167 2.9292-2.2354 3.5459c-1.5417 0.6166-2.1584 0.3854-2.1584 0.3854" fill="#DC8B00"/>
<path d="m22.82 86.179c-0.1542 0.5396-0.3854 1.0792-0.6167 1.6188-0.2312 0.5395-0.5395 1.002-0.925 1.3875-0.3854 0.4625-1.002 0.6937-1.4645 0.7708-0.5396 0.1542-1.0792 0.2312-1.6188 0.0771v-0.0771c0.5396 0.0771 1.0792-0.0771 1.5417-0.2313 0.5396-0.1541 1.0021-0.3854 1.3104-0.8479 0.6167-0.7708 1.0021-1.85 1.1562-2.8521l0.6167 0.1542z" fill="#212121"/>
<path d="m21.583 78.394c0.0771 0.3854 1.9271 3.4688 3.0062 4.0083 1.3875 0.6167 3.1604 1.0021 3.1604 1.0021" fill="#DC8B00"/>
<path d="m21.969 78.317s0.0771 0.2312 0.1542 0.3854l0.2312 0.4625c0.1542 0.3083 0.3084 0.6167 0.4625 0.925 0.3855 0.6167 0.7709 1.1562 1.1563 1.6958 0.2312 0.2313 0.4625 0.4625 0.7708 0.6167 0.3084 0.1542 0.6167 0.3083 0.925 0.3854 0.6167 0.2313 1.3104 0.4625 2.0042 0.6167-0.6938-0.0771-1.3875-0.2313-2.0813-0.4625-0.3083-0.0771-0.6937-0.2313-1.002-0.3084-0.3084-0.077-0.6938-0.3854-0.925-0.6166-0.5396-0.4625-1.0021-1.0792-1.3875-1.6188-0.2313-0.3083-0.3855-0.5396-0.6167-0.8479l-0.3083-0.4625c-0.0771-0.1542-0.1542-0.2312-0.3084-0.6167l0.925-0.1541z" fill="#212121"/>
<path d="m21.352 72.921c-1.0021 2.4667-2.2354 3.9312-3.6229 4.8562-1.4646 0.925-2.5438 0.6167-2.5438 0.6167" fill="#DC8B00"/>
<path d="m21.892 73.152c-0.6166 1.3875-1.4646 2.6979-2.6208 3.7771-0.5396 0.5396-1.1563 0.925-1.9271 1.2333-0.6937 0.3083-1.4646 0.4625-2.2354 0.2313 0.7708 0.077 1.4646-0.1542 2.0812-0.5396 0.6167-0.3854 1.1563-0.8479 1.6188-1.3875 0.925-1.0792 1.5417-2.3896 2.0042-3.7771l1.0791 0.4625z" fill="#212121"/>
<path d="m23.973 82.017s0.6938 0.6167 0.6938 1.3104c0.0771 0.7709-0.3854 1.4646-0.3854 1.4646" fill="#DC8B00"/>
<path d="m24.05 81.862c0.1542 0.2313 0.3083 0.3855 0.4625 0.6167 0.1542 0.2313 0.2312 0.4625 0.2312 0.7708 0 0.5396-0.1541 1.0021-0.3854 1.4646 0.2313-0.4625 0.3084-1.0021 0.2313-1.4646s-0.3854-0.9249-0.7709-1.2333l0.2313-0.1542z" fill="#212121"/>
<path d="m23.433 81.246c0.4626 0.4625 1.5417 0.6166 2.4667 0.3854 1.0792-0.3083 1.4646-1.2334 1.4646-1.2334" fill="#DC8B00"/>
<path d="m23.588 81.092c0.2313 0.2313 0.5396 0.3854 0.8479 0.4625 0.3854 0.0771 0.6938 0.0771 1.0792 0.0771 0.6937-0.0771 1.3875-0.5396 1.7729-1.2334-0.3083 0.6938-0.925 1.2334-1.6958 1.3876-0.3854 0.077-0.7709 0.077-1.1563 0.077-0.3854-0.077-0.7708-0.1541-1.1562-0.4625l0.3083-0.3083z" fill="#212121"/>
<path d="m19.425 76.313s-1.0021 1.3875-1.0021 2.0813c0 0.7708 0.3854 1.3875 0.3854 1.3875" fill="#DC8B00"/>
<path d="m19.656 76.467c-0.3854 0.4625-0.7708 1.0021-1.0021 1.5416-0.1541 0.2313-0.1541 0.5396-0.0771 0.848 0.0771 0.3083 0.1542 0.6166 0.3084 0.925-0.1542-0.2313-0.3084-0.5396-0.4625-0.848-0.0771-0.3083-0.1542-0.6937-0.0771-1.002 0.1542-0.6938 0.4625-1.2334 0.7708-1.773l0.5396 0.3084z" fill="#212121"/>
<path d="m18.038 77.549c-0.7708 0.3854-2.3896-0.0771-2.6979-0.7708l2.6979 0.7708z" fill="#DC8B00"/>
<path d="m18.115 77.777c-0.5396 0.2312-1.0792 0.1541-1.6188-0.0771-0.2312-0.0771-0.4625-0.2313-0.6937-0.3854-0.2313-0.1542-0.3854-0.3084-0.4625-0.6167 0.2312 0.4625 0.7708 0.6167 1.2333 0.7708 0.4625 0.0771 1.0021 0.0771 1.3875-0.1541l0.1542 0.4625z" fill="#212121"/>
<path d="m20.353 91.575c-0.3854-0.925-0.1542-1.6187 0.5396-2.2354l-0.5396 2.2354z" fill="#DC8B00"/>
<path d="m20.273 91.652c-0.1542-0.3854-0.2312-0.8479-0.1542-1.2333 0.0771-0.4625 0.3084-0.7708 0.6167-1.0792l0.1542 0.2313c-0.3084 0.2312-0.5396 0.5396-0.6938 0.925 0 0.3083 0 0.6937 0.0771 1.1562z" fill="#212121"/>
<path d="m24.127 93.425c-0.925-0.2313-1.4646-0.7709-1.5417-1.6959l1.5417 1.6959z" fill="#DC8B00"/>
<path d="m24.127 93.505c-0.3854-0.0771-0.8479-0.2313-1.1562-0.5396-0.3084-0.3084-0.4625-0.7709-0.5396-1.1563h0.2312c0.0771 0.3854 0.1542 0.7709 0.4625 1.0792 0.2313 0.2312 0.6167 0.3854 1.0021 0.6167z" fill="#212121"/>
<path d="m83.712 74.077c0.3854 11.717 10.638 29.6 10.638 29.6s11.948-17.035 12.796-24.744c0.539-5.3958-1.542-11.023-3.854-13.567-3.007-3.2375-7.7858-7.2459-7.7858-7.2459s-12.102 6.5521-11.794 15.956z" fill="#DC8B00" stroke="#212121" stroke-miterlimit="10"/>
<path d="m95.66 58.429s-1.927 7.2458-0.7708 12.333c1.3104 5.7042 1.6958 16.419 0.5396 20.119" fill="#DC8B00"/>
<path d="m96.431 58.66c-0.6938 2.5438-1.1563 5.2417-1.3105 7.9396-0.077 1.3104 0 2.6979 0.2313 3.9313 0.2312 1.3104 0.4625 2.6979 0.6167 4.0854 0.3083 2.6979 0.3854 5.4729 0.3854 8.2479 0 1.3875-0.0771 2.775-0.1542 4.0854-0.1542 1.3875-0.3083 2.6979-0.6937 4.0854h-0.0771c0.3083-1.3104 0.4625-2.6979 0.4625-4.0083 0.0771-1.3875 0-2.6979 0-4.0854-0.0771-2.6979-0.3084-5.4729-0.6938-8.0938-0.2312-1.3104-0.4625-2.6208-0.7708-4.0083s-0.4625-2.775-0.4625-4.1625c0-2.775 0.3854-5.55 1.0021-8.2479l1.4646 0.2312z" fill="#212121"/>
<path d="m96.046 79.781s-0.6938 3.3917-2.6209 4.1625c-1.7729 0.6938-2.4666 0.3855-2.4666 0.3855" fill="#DC8B00"/>
<path d="m96.354 79.781c-0.1542 0.6167-0.3854 1.2334-0.6938 1.85-0.3083 0.6167-0.6166 1.1563-1.0791 1.6188-0.2313 0.2312-0.4625 0.4625-0.7709 0.6167-0.3083 0.1541-0.6166 0.2312-0.925 0.3083-0.6166 0.1542-1.2333 0.3083-1.927 0.1542v-0.0771c0.6166 0.0771 1.2333-0.0771 1.85-0.2313 0.6166-0.2312 1.1562-0.4625 1.5416-0.925 0.7709-0.925 1.1563-2.1583 1.3875-3.3146h0.6167z" fill="#212121"/>
<path d="m94.89 70.84c0.0771 0.4625 2.2355 4.0854 3.4688 4.625 1.6187 0.7708 3.6996 1.1562 3.6996 1.1562" fill="#DC8B00"/>
<path d="m95.352 70.763c0 0.0771 0.0771 0.3083 0.1541 0.4625l0.2313 0.5396c0.1542 0.3854 0.3854 0.6937 0.6167 1.002 0.3854 0.6938 0.8479 1.3104 1.3875 1.9271 0.3083 0.3083 0.5395 0.5396 0.925 0.6938 0.3854 0.1541 0.6937 0.3083 1.0791 0.4625 0.7712 0.3083 1.5412 0.5395 2.3122 0.6937-0.771-0.1542-1.618-0.3083-2.3893-0.5396-0.3854-0.0771-0.7708-0.2312-1.1562-0.3854s-0.7708-0.3854-1.0792-0.6937c-0.6166-0.5396-1.1562-1.2334-1.6187-1.85-0.2313-0.3084-0.4625-0.6938-0.6938-1.0021-0.0771-0.1542-0.2312-0.3854-0.3083-0.5396-0.0771-0.2312-0.2313-0.3083-0.3083-0.6937l0.8479-0.0771z" fill="#212121"/>
<path d="m94.658 64.442c-1.1562 2.852-2.5437 4.5479-4.2396 5.627-1.6958 1.0792-3.0062 0.7709-3.0062 0.7709" fill="#DC8B00"/>
<path d="m95.201 64.673c-0.7709 1.6188-1.6959 3.1605-3.0063 4.3167-0.6937 0.6167-1.3875 1.0792-2.1583 1.4646s-1.6958 0.5396-2.5437 0.3083c0.8479 0.0771 1.6958-0.1541 2.3895-0.5396 0.6938-0.4625 1.3875-1.002 1.9271-1.6187 1.0792-1.2333 1.85-2.775 2.3896-4.3938l1.0021 0.4625z" fill="#212121"/>
<path d="m97.668 74.928s0.7708 0.6937 0.8479 1.5416c0.0771 0.848-0.3854 1.6188-0.3854 1.6188" fill="#DC8B00"/>
<path d="m97.819 74.848c0.2312 0.2313 0.3854 0.4625 0.5396 0.7708 0.1541 0.3084 0.2312 0.5396 0.2312 0.848 0 0.6166-0.1542 1.2333-0.4625 1.6958 0.2313-0.5396 0.3854-1.1563 0.3083-1.6958-0.0771-0.5396-0.4625-1.0792-0.8479-1.3875l0.2313-0.2313z" fill="#212121"/>
<path d="m97.051 74.157c0.5396 0.5396 1.85 0.7708 2.8521 0.4625 1.233-0.3854 1.696-1.3875 1.696-1.3875" fill="#DC8B00"/>
<path d="m97.202 74c0.2312 0.2313 0.6166 0.4625 1.0791 0.5396 0.3855 0.0771 0.848 0.0771 1.2334 0 0.8474-0.0771 1.6184-0.6167 2.0814-1.3875-0.386 0.7708-1.156 1.3875-2.0043 1.6187-0.4625 0.0771-0.925 0.1542-1.3105 0.0771-0.4625-0.0771-0.925-0.1541-1.3104-0.5396l0.2313-0.3083z" fill="#212121"/>
<path d="m92.346 68.373s-1.1562 1.6188-1.1562 2.3896c0 0.8479 0.4625 1.6188 0.4625 1.6188" fill="#DC8B00"/>
<path d="m92.654 68.527c-0.4625 0.5396-0.8479 1.1562-1.1563 1.85-0.1541 0.3083-0.1541 0.6937-0.077 1.0021 0.077 0.3854 0.1541 0.6937 0.3083 1.0792-0.2312-0.3084-0.3854-0.6167-0.4625-1.0021-0.0771-0.3855-0.1542-0.7709-0.0771-1.1563 0.2313-0.7708 0.5396-1.3875 0.925-2.0812l0.5396 0.3083z" fill="#212121"/>
<path d="m90.804 69.838c-0.925 0.4625-2.775-0.0771-3.0834-0.925l3.0834 0.925z" fill="#DC8B00"/>
<path d="m90.881 69.992c-0.6166 0.2313-1.2333 0.1542-1.85 0-0.3083-0.077-0.5395-0.2312-0.7708-0.3854-0.2312-0.1541-0.4625-0.3854-0.5396-0.6937 0.1542 0.2312 0.3854 0.4625 0.6167 0.6166 0.2312 0.1542 0.5396 0.2313 0.7708 0.3084 0.5396 0.1541 1.1563 0.0771 1.6188-0.1542l0.1541 0.3083z" fill="#212121"/>
<path d="m93.427 86.105c-0.4625-1.0792-0.1542-1.85 0.6166-2.6208l-0.6166 2.6208z" fill="#DC8B00"/>
<path d="m93.425 86.102c-0.2312-0.4625-0.3083-0.925-0.2312-1.4646 0.0771-0.4625 0.3854-0.925 0.7708-1.2333l0.1542 0.2312c-0.3854 0.3084-0.6167 0.6938-0.7708 1.0792-0.0771 0.4625 0 0.925 0.077 1.3875z" fill="#212121"/>
<path d="m97.899 88.26c-1.0791-0.2313-1.6958-0.925-1.85-1.9271l1.85 1.9271z" fill="#DC8B00"/>
<path d="m97.896 88.26c-0.4625-0.0771-0.925-0.3084-1.3104-0.6167-0.3854-0.3854-0.5396-0.8479-0.6166-1.3104h0.2312c0.0771 0.4625 0.2313 0.925 0.5396 1.2333 0.2312 0.3083 0.6937 0.5396 1.1562 0.6938z" fill="#212121"/>
<path d="m98.821 43.398c-0.4625-13.181-12.025-33.454-12.025-33.454s-13.49 19.348-14.415 27.981c-0.6167 6.0896 1.6958 12.488 4.3167 15.34 3.3916 3.7 8.7875 8.1708 8.7875 8.1708s13.721-7.4771 13.335-18.038z" fill="#DC8B00" stroke="#212121" stroke-miterlimit="10"/>
<path d="m85.331 61.05s2.1583-8.1708 0.8479-13.952c-1.4645-6.475-1.85-18.577-0.6166-22.74" fill="#DC8B00"/>
<path d="m84.56 60.819c0.7709-2.9292 1.3104-5.9355 1.4646-8.9417 0.0771-1.5417 0-3.0063-0.3083-4.4708-0.3084-1.5417-0.5396-3.0834-0.6938-4.625-0.3083-3.0834-0.4625-6.1667-0.4625-9.25 0-1.5417 0.0771-3.0834 0.1542-4.625 0.1542-1.5417 0.3083-3.0834 0.7708-4.548h0.0771c-0.3854 1.4646-0.4625 3.0063-0.5396 4.548-0.0771 1.5416-0.0771 3.0833 0 4.625 0.0771 3.0833 0.3854 6.1666 0.7709 9.1729 0.2312 1.5416 0.5395 3.0062 0.8479 4.4708 0.3854 1.5417 0.4625 3.1604 0.4625 4.7021 0 3.1604-0.4625 6.2437-1.1563 9.3271l-1.3875-0.3854z" fill="#212121"/>
<path d="m84.869 36.922s0.7708-3.8542 2.9291-4.7021c2.0042-0.7709 2.775-0.4625 2.775-0.4625" fill="#DC8B00"/>
<path d="m84.638 36.923c0.1541-0.6937 0.4625-1.3875 0.7708-2.0813 0.3083-0.6937 0.6938-1.3104 1.2333-1.85 0.2313-0.2312 0.5396-0.5395 0.925-0.6937 0.3084-0.1542 0.6938-0.2313 1.0021-0.3854 0.6938-0.1542 1.4646-0.3084 2.1584-0.1542v0.0771c-0.6938-0.1542-1.3875 0.0771-2.0813 0.3083-0.6937 0.2313-1.3104 0.5396-1.6958 1.0792-0.8479 1.0792-1.3104 2.4667-1.6188 3.7771l-0.6937-0.0771z" fill="#212121"/>
<path d="m86.179 47.098c-0.0771-0.5396-2.5438-4.5479-3.9313-5.2416-1.85-0.848-4.1625-1.3105-4.1625-1.3105" fill="#DC8B00"/>
<path d="m85.717 47.178c0-0.0771-0.1542-0.3083-0.2313-0.5396-0.0771-0.2312-0.2312-0.3854-0.3083-0.6167-0.2313-0.3854-0.4625-0.7708-0.6938-1.1562-0.4624-0.7708-1.002-1.5417-1.5416-2.1583-0.3083-0.3084-0.6167-0.6167-1.0021-0.7709-0.3854-0.2312-0.8479-0.3854-1.2333-0.5396-0.8479-0.3083-1.6959-0.6166-2.6209-0.7708 0.925 0.1542 1.773 0.3083 2.698 0.6167 0.4625 0.1541 0.8479 0.3083 1.3104 0.4625 0.4625 0.1541 0.8479 0.4625 1.1562 0.7708 0.6938 0.6167 1.2334 1.3875 1.7729 2.1583 0.3084 0.3855 0.5396 0.7709 0.7709 1.1563 0.1541 0.2312 0.2312 0.3854 0.3854 0.6167 0.1541 0.2312 0.2312 0.3854 0.3083 0.6937l-0.7708 0.0771z" fill="#212121"/>
<path d="m86.488 54.267c1.3105-3.2375 2.8521-5.0875 4.7792-6.3209 1.85-1.2333 3.3917-0.8479 3.3917-0.8479" fill="#DC8B00"/>
<path d="m85.948 54.035c0.8479-1.7729 1.85-3.5458 3.3146-4.9333 0.7708-0.6937 1.5417-1.2333 2.4667-1.6958 0.925-0.3854 1.927-0.6167 2.852-0.3854-0.925-0.1542-1.927 0.1541-2.775 0.6166-0.8479 0.4625-1.5416 1.0792-2.1583 1.85-1.2333 1.3875-2.0812 3.1604-2.6979 4.9333l-1.0021-0.3854z" fill="#212121"/>
<path d="m83.022 42.399s-0.8479-0.7708-0.925-1.7729c-0.077-1.0021 0.4625-1.85 0.4625-1.85" fill="#DC8B00"/>
<path d="m82.942 42.473c-0.2312-0.2313-0.4625-0.5396-0.6166-0.8479-0.1542-0.3084-0.3084-0.6167-0.3084-1.0021-0.0771-0.6938 0.1542-1.3875 0.5396-1.9271-0.3083 0.6167-0.4625 1.2333-0.3854 1.9271 0.0771 0.6166 0.5396 1.1562 1.0021 1.6187l-0.2313 0.2313z" fill="#212121"/>
<path d="m83.79 43.324c-0.6166-0.6167-2.0812-0.848-3.1604-0.4625-1.3875 0.4624-1.9271 1.6187-1.9271 1.6187" fill="#DC8B00"/>
<path d="m83.636 43.475c-0.3084-0.3083-0.7709-0.4625-1.2334-0.6166-0.4625-0.0771-0.925-0.0771-1.3875 0-0.925 0.1541-1.85 0.6937-2.3125 1.6187 0.3855-0.925 1.3105-1.6187 2.2355-1.7729 0.4625-0.0771 1.002-0.1542 1.5416-0.0771s1.0021 0.2313 1.4646 0.6167l-0.3083 0.2312z" fill="#212121"/>
<path d="m89.031 49.796s1.3105-1.85 1.3105-2.775c0-1.0021-0.5396-1.85-0.5396-1.85" fill="#DC8B00"/>
<path d="m88.8 49.645c0.4625-0.6167 1.0021-1.3104 1.3105-2.0812 0.1541-0.3855 0.1541-0.7709 0.077-1.1563-0.077-0.3854-0.2312-0.7708-0.3854-1.1562 0.2313 0.3854 0.3854 0.7708 0.5396 1.1562s0.1542 0.8479 0.0771 1.3104c-0.2313 0.8479-0.6167 1.6188-1.0792 2.3125l-0.5396-0.3854z" fill="#212121"/>
<path d="m90.804 48.177c1.0792-0.5396 3.1604 0.077 3.5458 1.0791l-3.5458-1.0791z" fill="#DC8B00"/>
<path d="m90.727 48.023c0.6937-0.3084 1.3875-0.1542 2.0812 0 0.3084 0.077 0.6167 0.2312 0.925 0.4625 0.3084 0.1541 0.5396 0.4625 0.6167 0.7708-0.1542-0.3083-0.3854-0.5396-0.6938-0.6937-0.3083-0.1542-0.6166-0.2313-0.925-0.3084-0.6166-0.1542-1.3104-0.1542-1.85 0.1542l-0.1541-0.3854z" fill="#212121"/>
<path d="m87.801 29.754c0.4625 1.1562 0.2313 2.1583-0.6937 2.9291l0.6937-2.9291z" fill="#DC8B00"/>
<path d="m87.798 29.754c0.2313 0.4625 0.3084 1.0791 0.2313 1.6187s-0.4625 1.0792-0.8479 1.3875l-0.1542-0.2312c0.3854-0.3084 0.6937-0.7709 0.8479-1.2334s0.0771-1.0021-0.0771-1.5416z" fill="#212121"/>
<path d="m82.788 27.365c1.2333 0.2312 1.85 1.002 2.0812 2.2354l-2.0812-2.2354z" fill="#DC8B00"/>
<path d="m82.788 27.365c0.5396 0.077 1.0792 0.3083 1.4646 0.6937s0.6166 0.925 0.6937 1.4646h-0.2312c-0.0771-0.5396-0.2313-1.0021-0.6167-1.3875-0.3083-0.3854-0.7708-0.6167-1.3104-0.7708z" fill="#212121"/>
<path d="m54.421 64.981c-0.3854-10.252-9.4041-26.054-9.4041-26.054s-10.56 15.031-11.254 21.815c-0.4625 4.7791 1.3875 9.7125 3.3917 11.948 2.6208 2.8521 6.8604 6.3979 6.8604 6.3979s10.638-5.8583 10.406-14.106z" fill="#DC8B00" stroke="#212121" stroke-miterlimit="10"/>
<path d="m43.86 78.779s1.6958-6.3979 0.6938-10.946c-1.1563-5.0875-1.4646-14.492-0.4625-17.806" fill="#DC8B00"/>
<path d="m43.09 78.551c0.6167-2.2354 1.0792-4.625 1.1563-6.9375 0.077-1.1562 0-2.3125-0.1542-3.4687-0.2313-1.1563-0.3854-2.3896-0.5396-3.6229-0.2313-2.3896-0.3083-4.8563-0.3083-7.2459 0.077-2.3896 0.1541-4.8562 0.7708-7.1687h0.0771c-0.5396 2.3125-0.4625 4.7791-0.3854 7.1687s0.3083 4.7792 0.6937 7.1688c0.1542 1.1562 0.3854 2.3125 0.6938 3.5458 0.3083 1.2334 0.3854 2.4667 0.3854 3.7 0 2.4667-0.3083 4.9334-0.8479 7.3229l-1.5417-0.4625z" fill="#212121"/>
<path d="m43.552 59.971s0.6167-3.0063 2.3125-3.623c1.5417-0.6166 2.1583-0.3854 2.1583-0.3854" fill="#DC8B00"/>
<path d="m43.244 59.894c0.1541-0.5395 0.3854-1.0791 0.6166-1.6187 0.2313-0.5396 0.5396-1.0021 1.0021-1.4646 0.3854-0.4625 1.0021-0.6937 1.5417-0.8479s1.1562-0.2312 1.6958-0.0771v0.0771c-0.5396-0.0771-1.0791 0.0771-1.6187 0.2313-0.5396 0.1541-1.0021 0.3854-1.3104 0.8479-0.6938 0.8479-1.0021 1.927-1.2334 2.9291l-0.6937-0.0771z" fill="#212121"/>
<path d="m44.557 67.91c-0.0771-0.4625-1.9271-3.5459-3.0834-4.0854-1.4646-0.6938-3.2375-1.0021-3.2375-1.0021" fill="#DC8B00"/>
<path d="m44.092 67.988s-0.0771-0.2313-0.1542-0.3855l-0.2313-0.4625c-0.1541-0.3083-0.3083-0.6166-0.5395-0.925-0.3855-0.6166-0.7709-1.1562-1.2334-1.6958-0.2312-0.2312-0.4625-0.4625-0.7708-0.6167-0.3083-0.1541-0.6167-0.3083-1.0021-0.4625-0.6937-0.2312-1.3104-0.4625-2.0042-0.6166 0.6938 0.0771 1.3875 0.2312 2.0813 0.4625 0.3083 0.0771 0.6937 0.2312 1.0021 0.3083 0.3854 0.1542 0.6937 0.3854 0.925 0.6167 0.5396 0.5396 1.0021 1.0791 1.4646 1.6187 0.2312 0.3084 0.4625 0.6167 0.6166 0.925l0.3084 0.4625c0.077 0.1542 0.1541 0.3084 0.3083 0.6167l-0.7708 0.1542z" fill="#212121"/>
<path d="m44.785 73.46c1.0021-2.5437 2.2354-4.0083 3.7-4.9333s2.6208-0.6167 2.6208-0.6167" fill="#DC8B00"/>
<path d="m44.246 73.306c0.6938-1.3875 1.5417-2.775 2.698-3.8541 0.6166-0.5396 1.2333-1.0021 1.927-1.3105 0.6938-0.3083 1.5417-0.4625 2.2355-0.3083-0.7709-0.0771-1.4646 0.1542-2.1584 0.5396-0.6166 0.3854-1.1562 0.8479-1.6958 1.4646-0.925 1.0791-1.6188 2.4666-2.0813 3.8541l-0.925-0.3854z" fill="#212121"/>
<path d="m42.09 64.21s-0.6938-0.6167-0.7709-1.3875c-0.077-0.7709 0.3854-1.4646 0.3854-1.4646" fill="#DC8B00"/>
<path d="m41.933 64.368c-0.2313-0.2312-0.3854-0.3854-0.4625-0.6937-0.1542-0.2313-0.2313-0.5396-0.2313-0.7709 0-0.5395 0.1542-1.0791 0.4625-1.4645-0.2312 0.4625-0.3854 1.002-0.3083 1.4645s0.3854 0.925 0.7708 1.2334l-0.2312 0.2312z" fill="#212121"/>
<path d="m42.704 64.981c-0.4625-0.4625-1.6188-0.6938-2.4667-0.3855-1.0791 0.3084-1.4646 1.2334-1.4646 1.2334" fill="#DC8B00"/>
<path d="m42.55 65.058c-0.2312-0.2313-0.5396-0.3854-0.925-0.4625s-0.7708-0.0771-1.0791-0.0771c-0.7709 0.0771-1.4646 0.5396-1.773 1.2333 0.3084-0.6937 1.0021-1.2333 1.773-1.4646 0.3854-0.0771 0.7708-0.0771 1.1562-0.0771 0.3854 0.0771 0.8479 0.1542 1.1563 0.4625l-0.3084 0.3855z" fill="#212121"/>
<path d="m46.79 69.992s1.002-1.4646 1.002-2.1583c0-0.7709-0.4625-1.4646-0.4625-1.4646" fill="#DC8B00"/>
<path d="m46.481 69.838c0.3854-0.4625 0.7708-1.0021 1.0021-1.6187 0.1542-0.3084 0.1542-0.5396 0.0771-0.925-0.0771-0.3084-0.1542-0.6167-0.3084-0.925 0.1542 0.3083 0.3084 0.5396 0.4625 0.925 0.0771 0.3083 0.1542 0.6937 0.0771 1.0021-0.1541 0.6937-0.4625 1.2333-0.8479 1.85l-0.4625-0.3084z" fill="#212121"/>
<path d="m48.177 68.758c0.8479-0.3854 2.4667 0.0771 2.775 0.8479l-2.775-0.8479z" fill="#DC8B00"/>
<path d="m48.1 68.527c0.5396-0.2313 1.1562-0.1542 1.6187 0.0771 0.2313 0.077 0.4625 0.2312 0.6938 0.3854 0.2312 0.1541 0.3854 0.3854 0.4625 0.6166-0.2313-0.4625-0.7709-0.6937-1.2334-0.7708s-1.002-0.0771-1.3875 0.1542l-0.1541-0.4625z" fill="#212121"/>
<path d="m45.79 54.344c0.3854 0.925 0.1542 1.6958-0.5395 2.3125l0.5395-2.3125z" fill="#DC8B00"/>
<path d="m45.864 54.344c0.1542 0.3854 0.3084 0.8479 0.1542 1.2333-0.0771 0.4625-0.3854 0.8479-0.6938 1.1562l-0.1541-0.2312c0.3083-0.2313 0.5396-0.6167 0.6937-1.0021 0.0771-0.3083 0.0771-0.6938 0-1.1562z" fill="#212121"/>
<path d="m41.933 52.494c1.0021 0.2312 1.4646 0.7708 1.6188 1.6958l-1.6188-1.6958z" fill="#DC8B00"/>
<path d="m41.933 52.494c0.3855 0.0771 0.848 0.2312 1.1563 0.5396 0.3083 0.3083 0.4625 0.7708 0.5396 1.1562h-0.2313c-0.0771-0.3854-0.1541-0.7708-0.4625-1.0792-0.2312-0.3083-0.6166-0.4625-1.0021-0.6166z" fill="#212121"/>
<path d="m48.1 98.204c-0.2313-5.7812-5.2417-14.569-5.2417-14.569s-5.9354 8.4021-6.3208 12.179c-0.3084 2.698 0.7708 5.3955 1.9271 6.7065 1.4645 1.619 3.8541 3.546 3.8541 3.546s5.9354-3.238 5.7813-7.8629z" fill="#DC8B00" stroke="#212121" stroke-miterlimit="10"/>
<path d="m42.242 105.91s0.925-3.545 0.3854-6.0891c-0.6167-2.8521-0.8479-8.0937-0.2312-9.9437" fill="#DC8B00"/>
<path d="m41.471 105.68c0.3854-1.233 0.6167-2.543 0.6938-3.777 0.0771-0.617 0-1.31-0.0771-1.9269-0.0771-0.6938-0.2313-1.3875-0.2313-2.0042-0.077-1.3875-0.1541-2.6979-0.077-4.0854 0.077-1.3104 0.1541-2.6979 0.5395-4.0083h0.0771c-0.2312 1.3104-0.2312 2.6979-0.1541 4.0083 0.077 1.3104 0.2312 2.6979 0.4625 4.0083 0.077 0.6938 0.2312 1.3104 0.4625 1.9271 0.1541 0.6941 0.2312 1.3871 0.2312 2.0811 0 1.388-0.1542 2.775-0.3854 4.163l-1.5417-0.386z" fill="#212121"/>
<path d="m42.088 95.429s0.3854-1.6958 1.2334-2.0041c0.8479-0.3084 1.2333-0.2313 1.2333-0.2313" fill="#DC8B00"/>
<path d="m41.779 95.352c0.0771-0.3083 0.2312-0.6166 0.3854-0.925 0.1542-0.3083 0.3083-0.5396 0.6167-0.8479 0.2312-0.2313 0.6166-0.3854 0.925-0.4625 0.3083-0.0771 0.6166-0.1542 0.925 0v0.0771c-0.3084-0.0771-0.6167 0.0771-0.848 0.1541-0.3083 0.0771-0.5395 0.2313-0.6937 0.4625-0.3083 0.4625-0.5396 1.0792-0.6167 1.6188l-0.6937-0.0771z" fill="#212121"/>
<path d="m42.63 99.823c-0.0771-0.2312-1.0792-2.0042-1.6958-2.3125-0.7709-0.3854-1.7729-0.5396-1.7729-0.5396" fill="#DC8B00"/>
<path d="m42.164 99.9c0 0.0771 0-0.0771-0.0771-0.1542l-0.0771-0.2312c-0.077-0.1542-0.1541-0.3084-0.2312-0.5396-0.1542-0.3083-0.3854-0.6938-0.6167-1.0021-0.1541-0.1542-0.2312-0.2312-0.3854-0.3854-0.1542-0.0771-0.3083-0.1542-0.5396-0.2313-0.3854-0.1541-0.7708-0.3083-1.1562-0.3854 0.3854 0.0771 0.7708 0.0771 1.1562 0.2313 0.2313 0.0771 0.3854 0.0771 0.6167 0.1541 0.2312 0.0771 0.3854 0.2313 0.5396 0.3084 0.3083 0.3083 0.6166 0.6166 0.8479 0.925 0.1542 0.1541 0.2312 0.3083 0.3854 0.4625l0.1542 0.2312c0.0771 0.1542 0.0771 0.1542 0.1541 0.3854l-0.7708 0.2313z" fill="#212121"/>
<path d="m42.704 102.91c0.5396-1.387 1.2334-2.235 2.0813-2.775 0.8479-0.5394 1.4646-0.3853 1.4646-0.3853" fill="#DC8B00"/>
<path d="m42.242 102.75c0.3854-0.771 0.925-1.542 1.6187-2.159 0.3855-0.308 0.6938-0.539 1.1563-0.6933 0.3854-0.1541 0.8479-0.2312 1.3104-0.0771-0.3854 0-0.8479 0.1542-1.1562 0.3084-0.3084 0.231-0.6167 0.54-0.848 0.848-0.4625 0.617-0.7708 1.387-1.002 2.158l-1.0792-0.385z" fill="#212121"/>
<path d="m41.243 97.742s-0.3854-0.3084-0.3854-0.7709 0.2312-0.8479 0.2312-0.8479" fill="#DC8B00"/>
<path d="m41.162 97.899c-0.2312-0.2312-0.3854-0.5396-0.3854-0.8479s0.0771-0.6166 0.3083-0.8479c-0.1541 0.2313-0.1541 0.5396-0.1541 0.8479 0.077 0.2313 0.2312 0.4625 0.4625 0.6167l-0.2313 0.2312z" fill="#212121"/>
<path d="m41.548 98.204c-0.2312-0.3083-0.925-0.3854-1.3875-0.2313-0.6167 0.1542-0.8479 0.6938-0.8479 0.6938" fill="#DC8B00"/>
<path d="m41.394 98.358c-0.0771-0.077-0.2313-0.2312-0.4625-0.2312-0.1542-0.0771-0.3855-0.0771-0.6167-0.0771-0.3854 0-0.7708 0.2313-1.0021 0.6167 0.1542-0.3854 0.5396-0.6938 1.0021-0.8479 0.2312-0.0771 0.4625-0.0771 0.6937-0.0771 0.2313 0 0.4625 0.0771 0.6938 0.3083l-0.3083 0.3083z" fill="#212121"/>
<path d="m43.86 100.98s0.5395-0.771 0.5395-1.2332c0-0.3854-0.2312-0.7708-0.2312-0.7708" fill="#DC8B00"/>
<path d="m43.629 100.82c0.2312-0.231 0.4625-0.54 0.6166-0.8479 0.0771-0.1542 0.0771-0.3084 0.0771-0.4625 0-0.1542-0.0771-0.3855-0.1542-0.5396 0.0771 0.1541 0.2313 0.3083 0.3084 0.4625 0.0771 0.1541 0.077 0.3854 0.077 0.6165-0.077 0.386-0.2312 0.771-0.3854 1.079l-0.5395-0.308z" fill="#212121"/>
<path d="m44.631 100.28c0.4625-0.231 1.3875 0 1.5417 0.463l-1.5417-0.463z" fill="#DC8B00"/>
<path d="m44.554 100.13c0.3854-0.154 0.6938-0.077 0.925 0.077 0.3083 0.077 0.5396 0.309 0.6938 0.54-0.1542-0.231-0.4625-0.309-0.6938-0.386-0.2312-0.077-0.5396 0-0.7708 0.077l-0.1542-0.308z" fill="#212121"/>
<path d="m43.324 92.269c0.2313 0.5396 0.0771 0.925-0.3083 1.3104l0.3083-1.3104z" fill="#DC8B00"/>
<path d="m43.321 92.269c0.0771 0.2312 0.1542 0.4625 0.1542 0.6937-0.0771 0.2313-0.1542 0.4625-0.3854 0.6938l-0.1542-0.2313c0.1542-0.1541 0.3084-0.3083 0.3854-0.5396 0.0771-0.1541 0-0.3854 0-0.6166z" fill="#212121"/>
<path d="m41.162 91.27c0.5396 0.077 0.8479 0.4624 0.925 0.9249l-0.925-0.9249z" fill="#DC8B00"/>
<path d="m41.162 91.19c0.2312 0 0.4625 0.1541 0.6937 0.3083 0.1542 0.1542 0.3083 0.4625 0.3083 0.6938h-0.2312c0-0.2313-0.0771-0.4625-0.2312-0.6167-0.1542-0.1542-0.3084-0.2313-0.5396-0.3854z" fill="#212121"/>
<path d="m31.527 20.353c0.2313 6.5521 5.9354 16.65 5.9354 16.65s6.7063-9.6354 7.1688-13.875c0.3083-3.0833-0.8479-6.1667-2.1583-7.6313-1.6959-1.85-4.3938-4.0854-4.3938-4.0854s-6.7062 3.6229-6.5521 8.9417z" fill="#DC8B00" stroke="#212121" stroke-miterlimit="10"/>
<path d="m38.31 11.562s-1.0792 4.0854-0.4625 6.9375c0.7708 3.2375 0.925 9.25 0.3083 11.331" fill="#DC8B00"/>
<path d="m39.004 11.717c-0.3855 1.3875-0.6938 2.9291-0.7709 4.3937-0.0771 0.7708 0 1.4646 0.0771 2.1583 0.1542 0.7709 0.2313 1.5417 0.3083 2.3125 0.1542 1.5417 0.1542 3.0834 0.1542 4.625-0.0771 1.5417-0.1542 3.0834-0.5396 4.625h-0.0771c0.3084-1.4645 0.2313-3.0062 0.2313-4.5479-0.0771-1.5416-0.2313-3.0833-0.4625-4.5479-0.1542-0.7708-0.3083-1.4646-0.4625-2.2354-0.2313-0.7708-0.3083-1.6188-0.3083-2.3896 0-1.6187 0.1541-3.1604 0.4625-4.7792l1.3875 0.3855z" fill="#212121"/>
<path d="m38.464 23.51s-0.3854 1.9271-1.4646 2.3125c-1.0021 0.3855-1.3875 0.2313-1.3875 0.2313" fill="#DC8B00"/>
<path d="m38.776 23.59c-0.077 0.3854-0.2312 0.6938-0.3854 1.0792-0.1541 0.3083-0.3854 0.6167-0.6166 0.925-0.2313 0.3083-0.6938 0.4625-1.0021 0.5396-0.3854 0.0771-0.6938 0.1541-1.0792 0.0771v-0.0771c0.3083 0.0771 0.6938-0.0771 1.0021-0.1542 0.3083-0.1542 0.6167-0.2312 0.8479-0.5396 0.3854-0.5396 0.6167-1.2333 0.6938-1.85h0.5395z" fill="#212121"/>
<path d="m37.848 18.5c0.0771 0.3083 1.2333 2.3125 1.9271 2.6208 0.925 0.4625 2.0812 0.6167 2.0812 0.6167" fill="#DC8B00"/>
<path d="m38.233 18.423s0.0771 0.1542 0.0771 0.2313l0.1541 0.3083c0.0771 0.2312 0.2313 0.3854 0.3084 0.6167 0.2312 0.3854 0.4625 0.7708 0.6937 1.0791 0.1542 0.1542 0.2313 0.3084 0.4625 0.3854 0.2313 0.0771 0.3854 0.2313 0.6167 0.3084 0.3854 0.1541 0.8479 0.3083 1.3104 0.4625l-1.3875-0.2313c-0.2312-0.0771-0.4625-0.1541-0.6937-0.2312-0.2313-0.0771-0.4625-0.2313-0.6167-0.3854-0.3854-0.3084-0.6938-0.6938-0.925-1.0792-0.1542-0.1542-0.3083-0.3854-0.3854-0.5396l-0.2313-0.3083c-0.0771-0.1542-0.1541-0.1542-0.2312-0.3854l0.8479-0.2313z" fill="#212121"/>
<path d="m37.694 14.954c-0.6167 1.6187-1.4646 2.5437-2.3896 3.1604-0.925 0.6166-1.6958 0.3854-1.6958 0.3854" fill="#DC8B00"/>
<path d="m38.233 15.108c-0.4625 0.925-1.0021 1.7729-1.85 2.4667-0.3854 0.3083-0.8479 0.6166-1.3104 0.7708s-1.0021 0.2313-1.4646 0.1542c0.4625 0.0771 0.925-0.1542 1.3104-0.3854 0.3854-0.2313 0.6937-0.6167 1.0021-0.925 0.5396-0.6938 0.925-1.5417 1.2333-2.4667l1.0792 0.3854z" fill="#212121"/>
<path d="m39.39 20.816s0.4625 0.3854 0.4625 0.8479-0.2312 0.925-0.2312 0.925" fill="#DC8B00"/>
<path d="m39.544 20.735c0.2312 0.3083 0.3854 0.6167 0.4625 0.925 0 0.3854-0.1542 0.6938-0.3083 0.925 0.1541-0.3083 0.2312-0.6167 0.1541-0.925s-0.3083-0.5396-0.4625-0.7708l0.1542-0.1542z" fill="#212121"/>
<path d="m39.004 20.35c0.3083 0.3083 1.002 0.3854 1.6187 0.2313 0.6938-0.2313 0.925-0.7709 0.925-0.7709" fill="#DC8B00"/>
<path d="m39.158 20.196c0.0771 0.1542 0.3083 0.2313 0.5396 0.3084 0.2312 0.0771 0.4625 0.0771 0.6937 0.0771 0.4625-0.0771 0.925-0.3084 1.1563-0.7709-0.1542 0.4625-0.6167 0.8479-1.1563 0.925-0.2312 0.0771-0.5395 0.0771-0.7708 0.0771-0.2312 0-0.5396-0.0771-0.7708-0.3083l0.3083-0.3084z" fill="#212121"/>
<path d="m36.46 17.112s-0.6167 0.925-0.6167 1.3875 0.3084 0.925 0.3084 0.925" fill="#DC8B00"/>
<path d="m36.692 17.267c-0.2312 0.3084-0.5396 0.6167-0.6937 1.0021-0.0771 0.1542-0.0771 0.3084-0.0771 0.5396 0 0.2313 0.0771 0.3854 0.1541 0.6167-0.1541-0.1542-0.2312-0.3854-0.3083-0.5396-0.0771-0.2313-0.1542-0.4625-0.0771-0.6938 0.0771-0.4625 0.3084-0.8479 0.4625-1.2333l0.5396 0.3083z" fill="#212121"/>
<path d="m35.535 17.96c-0.5396 0.2312-1.5417 0-1.7729-0.5396l1.7729 0.5396z" fill="#DC8B00"/>
<path d="m35.612 18.114c-0.3855 0.1542-0.7709 0.0771-1.0792-0.0771-0.3083-0.1541-0.6167-0.3083-0.7708-0.6166 0.1541 0.3083 0.5395 0.3854 0.7708 0.4625 0.3083 0.0771 0.6167 0 0.8479-0.0771l0.2313 0.3083z" fill="#212121"/>
<path d="m37 27.133c-0.2312-0.6166-0.0771-1.0791 0.3083-1.4645l-0.3083 1.4645z" fill="#DC8B00"/>
<path d="m37 27.133c-0.1542-0.2312-0.1542-0.5395-0.1542-0.8479 0.0771-0.3083 0.2313-0.5396 0.3854-0.7708l0.1542 0.2312c-0.2312 0.1542-0.3854 0.3855-0.4625 0.6167 0 0.2313 0.0771 0.4625 0.0771 0.7708z" fill="#212121"/>
<path d="m39.544 28.29c-0.6167-0.1542-0.925-0.5396-1.0021-1.0792l1.0021 1.0792z" fill="#DC8B00"/>
<path d="m39.544 28.367c-0.2313-0.0771-0.5396-0.1541-0.7708-0.3854-0.2313-0.2312-0.3084-0.4625-0.3854-0.7708h0.2312c0 0.2312 0.0771 0.4625 0.2313 0.6937 0.1541 0.1542 0.4624 0.3084 0.6937 0.4625z" fill="#212121"/>
</svg>
