<?xml version="1.0" encoding="UTF-8"?>
<svg fill="none" viewBox="0 0 48 40" xmlns="http://www.w3.org/2000/svg">
<path d="m36.768 39.558c0.644 0.456 1.474 0.57 2.214 0.29 0.74-0.282 1.284-0.914 1.448-1.68 1.738-8.168 5.954-28.842 7.536-36.272 0.12-0.56-0.08-1.142-0.52-1.516-0.44-0.374-1.05-0.482-1.594-0.28-8.386 3.104-34.212 12.794-44.768 16.7-0.67 0.2479-1.106 0.892-1.084 1.598 0.024 0.708 0.5 1.322 1.186 1.528 4.734 1.416 10.948 3.386 10.948 3.386s2.904 8.77 4.418 13.23c0.19 0.56 0.628 1 1.206 1.152 0.576 0.15 1.192-8e-3 1.622-0.414 2.432-2.296 6.192-5.8461 6.192-5.8461s7.144 5.2381 11.196 8.1241zm-22.02-17.354 3.358 11.076 0.746-7.014s12.974-11.702 20.37-18.372c0.216-0.196 0.246-0.524 0.066-0.754-0.178-0.23-0.506-0.284-0.752-0.128-8.572 5.474-23.788 15.192-23.788 15.192z" clip-rule="evenodd" fill="#DC8B00" fill-rule="evenodd"/>
</svg>
