<svg width="40" height="30" viewBox="0 0 40 30" fill="none" xmlns="http://www.w3.org/2000/svg">
<path d="M16.6667 27.5C16.6667 28.8817 15.5467 30 14.1667 30C12.7867 30 11.6667 28.8817 11.6667 27.5C11.6667 26.12 12.7867 25 14.1667 25C15.5467 25 16.6667 26.12 16.6667 27.5ZM22.5 25C21.12 25 20 26.1183 20 27.5C20 28.8817 21.12 30 22.5 30C23.88 30 25 28.8817 25 27.5C25 26.12 23.88 25 22.5 25ZM33.0067 0L27.2883 20H23.785L28.0217 5H0L7.69167 23.3333H29.7567L35.5467 3.33333H38.7617L40 0H33.0067Z" fill="#FFFAF6"/>
</svg>
